  0
SECTION
  2
HEADER
  9
$ACADVER
  1
AC1015
  9
$ACADMAINTVER
 70
     6
  9
$DWGCODEPAGE
  3
ANSI_1251
  9
$INSBASE
 10
0.0
 20
0.0
 30
0.0
  9
$EXTMIN
 10
0.0
 20
0.0
 30
0.0
  9
$EXTMAX
 10
1200.0
 20
500.0
 30
0.0
  9
$LIMMIN
 10
0.0
 20
0.0
  9
$LIMMAX
 10
1200.0
 20
500.0
  9
$ORTHOMODE
 70
     0
  9
$REGENMODE
 70
     1
  9
$FILLMODE
 70
     1
  9
$QTEXTMODE
 70
     0
  9
$MIRRTEXT
 70
     1
  9
$LTSCALE
 40
1.0
  9
$ATTMODE
 70
     1
  9
$TEXTSIZE
 40
3.5
  9
$TRACEWID
 40
1.0
  9
$TEXTSTYLE
  7
Standard
  9
$CLAYER
  8
0
  9
$CELTYPE
  6
ByLayer
  9
$CECOLOR
 62
   256
  9
$CELTSCALE
 40
1.0
  9
$DISPSILH
 70
     0
  9
$DIMSCALE
 40
1.0
  9
$DIMASZ
 40
3.302
  9
$DIMEXO
 40
1.0
  9
$DIMDLI
 40
3.75
  9
$DIMRND
 40
0.0
  9
$DIMDLE
 40
0.0
  9
$DIMEXE
 40
1.0
  9
$DIMTP
 40
0.0
  9
$DIMTM
 40
0.0
  9
$DIMTXT
 40
3.5
  9
$DIMCEN
 40
2.5
  9
$DIMTSZ
 40
0.0
  9
$DIMTOL
 70
     0
  9
$DIMLIM
 70
     0
  9
$DIMTIH
 70
     1
  9
$DIMTOH
 70
     1
  9
$DIMSE1
 70
     0
  9
$DIMSE2
 70
     0
  9
$DIMTAD
 70
     1
  9
$DIMZIN
 70
     0
  9
$DIMBLK
  1

  9
$DIMASO
 70
     1
  9
$DIMSHO
 70
     1
  9
$DIMPOST
  1

  9
$DIMAPOST
  1

  9
$DIMALT
 70
     0
  9
$DIMALTD
 70
     3
  9
$DIMALTF
 40
0.0393700787
  9
$DIMLFAC
 40
1.0
  9
$DIMTOFL
 70
     1
  9
$DIMTVP
 40
0.0
  9
$DIMTIX
 70
     0
  9
$DIMSOXD
 70
     0
  9
$DIMSAH
 70
     0
  9
$DIMBLK1
  1

  9
$DIMBLK2
  1

  9
$DIMSTYLE
  2
ISO-25
  9
$DIMCLRD
 70
     0
  9
$DIMCLRE
 70
     0
  9
$DIMCLRT
 70
     0
  9
$DIMTFAC
 40
1.0
  9
$DIMGAP
 40
1.524
  9
$DIMJUST
 70
     0
  9
$DIMSD1
 70
     0
  9
$DIMSD2
 70
     0
  9
$DIMTOLJ
 70
     0
  9
$DIMTZIN
 70
     0
  9
$DIMALTZ
 70
     0
  9
$DIMALTTZ
 70
     0
  9
$DIMUPT
 70
     0
  9
$DIMDEC
 70
     2
  9
$DIMTDEC
 70
     2
  9
$DIMALTU
 70
     2
  9
$DIMALTTD
 70
     3
  9
$DIMTXSTY
  7
Standard
  9
$DIMAUNIT
 70
     0
  9
$DIMADEC
 70
     2
  9
$DIMALTRND
 40
0.0
  9
$DIMAZIN
 70
     0
  9
$DIMDSEP
 70
    44
  9
$DIMATFIT
 70
     3
  9
$DIMFRAC
 70
     0
  9
$DIMLDRBLK
  1

  9
$DIMLUNIT
 70
     2
  9
$DIMLWD
 70
    -2
  9
$DIMLWE
 70
    -2
  9
$DIMTMOVE
 70
     0
  9
$LUNITS
 70
     2
  9
$LUPREC
 70
     2
  9
$SKETCHINC
 40
1.0
  9
$FILLETRAD
 40
10.0
  9
$AUNITS
 70
     0
  9
$AUPREC
 70
     2
  9
$MENU
  1
.
  9
$ELEVATION
 40
0.0
  9
$PELEVATION
 40
0.0
  9
$THICKNESS
 40
0.0
  9
$LIMCHECK
 70
     0
  9
$CHAMFERA
 40
0.0
  9
$CHAMFERB
 40
0.0
  9
$CHAMFERC
 40
0.0
  9
$CHAMFERD
 40
0.0
  9
$SKPOLY
 70
     0
  9
$TDCREATE
 40
2458588.517963345
  9
$TDUCREATE
 40
2458588.434630012
  9
$TDUPDATE
 40
2458588.517969167
  9
$TDUUPDATE
 40
2458588.434635833
  9
$TDINDWG
 40
0.0000000116
  9
$TDUSRTIMER
 40
0.0000000116
  9
$USRTIMER
 70
     1
  9
$ANGBASE
 50
0.0
  9
$ANGDIR
 70
     0
  9
$PDMODE
 70
     0
  9
$PDSIZE
 40
-1.0
  9
$PLINEWID
 40
0.0
  9
$SPLFRAME
 70
     0
  9
$SPLINETYPE
 70
     6
  9
$SPLINESEGS
 70
     8
  9
$HANDSEED
  5
32C
  9
$SURFTAB1
 70
     6
  9
$SURFTAB2
 70
     6
  9
$SURFTYPE
 70
     6
  9
$SURFU
 70
     6
  9
$SURFV
 70
     6
  9
$UCSBASE
  2

  9
$UCSNAME
  2

  9
$UCSORG
 10
0.0
 20
0.0
 30
0.0
  9
$UCSXDIR
 10
1.0
 20
0.0
 30
0.0
  9
$UCSYDIR
 10
0.0
 20
1.0
 30
0.0
  9
$UCSORTHOREF
  2

  9
$UCSORTHOVIEW
 70
     0
  9
$UCSORGTOP
 10
0.0
 20
0.0
 30
0.0
  9
$UCSORGBOTTOM
 10
0.0
 20
0.0
 30
0.0
  9
$UCSORGLEFT
 10
0.0
 20
0.0
 30
0.0
  9
$UCSORGRIGHT
 10
0.0
 20
0.0
 30
0.0
  9
$UCSORGFRONT
 10
0.0
 20
0.0
 30
0.0
  9
$UCSORGBACK
 10
0.0
 20
0.0
 30
0.0
  9
$PUCSBASE
  2

  9
$PUCSNAME
  2

  9
$PUCSORG
 10
0.0
 20
0.0
 30
0.0
  9
$PUCSXDIR
 10
1.0
 20
0.0
 30
0.0
  9
$PUCSYDIR
 10
0.0
 20
1.0
 30
0.0
  9
$PUCSORTHOREF
  2

  9
$PUCSORTHOVIEW
 70
     0
  9
$PUCSORGTOP
 10
0.0
 20
0.0
 30
0.0
  9
$PUCSORGBOTTOM
 10
0.0
 20
0.0
 30
0.0
  9
$PUCSORGLEFT
 10
0.0
 20
0.0
 30
0.0
  9
$PUCSORGRIGHT
 10
0.0
 20
0.0
 30
0.0
  9
$PUCSORGFRONT
 10
0.0
 20
0.0
 30
0.0
  9
$PUCSORGBACK
 10
0.0
 20
0.0
 30
0.0
  9
$USERI1
 70
     0
  9
$USERI2
 70
     0
  9
$USERI3
 70
     0
  9
$USERI4
 70
     0
  9
$USERI5
 70
     0
  9
$USERR1
 40
0.0
  9
$USERR2
 40
0.0
  9
$USERR3
 40
0.0
  9
$USERR4
 40
0.0
  9
$USERR5
 40
0.0
  9
$WORLDVIEW
 70
     1
  9
$SHADEDGE
 70
     3
  9
$SHADEDIF
 70
    70
  9
$TILEMODE
 70
     1
  9
$MAXACTVP
 70
    64
  9
$PINSBASE
 10
0.0
 20
0.0
 30
0.0
  9
$PLIMCHECK
 70
     0
  9
$PEXTMIN
 10
1.0000000000E+20
 20
1.0000000000E+20
 30
1.0000000000E+20
  9
$PEXTMAX
 10
-1.0000000000E+20
 20
-1.0000000000E+20
 30
-1.0000000000E+20
  9
$PLIMMIN
 10
0.0
 20
0.0
  9
$PLIMMAX
 10
420.0
 20
297.0
  9
$UNITMODE
 70
     0
  9
$VISRETAIN
 70
     1
  9
$PLINEGEN
 70
     0
  9
$PSLTSCALE
 70
     1
  9
$TREEDEPTH
 70
  3020
  9
$CMLSTYLE
  2
Standard
  9
$CMLJUST
 70
     0
  9
$CMLSCALE
 40
20.0
  9
$PROXYGRAPHICS
 70
     1
  9
$MEASUREMENT
 70
     1
  9
$CELWEIGHT
370
    -1
  9
$ENDCAPS
280
     0
  9
$JOINSTYLE
280
     0
  9
$LWDISPLAY
290
     1
  9
$INSUNITS
 70
     4
  9
$HYPERLINKBASE
  1

  9
$STYLESHEET
  1

  9
$XEDIT
290
     1
  9
$CEPSNTYPE
380
     0
  9
$PSTYLEMODE
290
     1
  9
$FINGERPRINTGUID
  2
{2B3B94FB-ACB9-41C1-980A-4E042D9D3CE8}
  9
$VERSIONGUID
  2
{FAEB1C32-E019-11D5-929B-00C0DF256EC4}
  9
$EXTNAMES
290
     1
  9
$PSVPSCALE
 40
0.0
  9
$OLESTARTUP
290
     0
  0
ENDSEC
  0
SECTION
  2
CLASSES
  0
CLASS
  1
ACDBDICTIONARYWDFLT
  2
AcDbDictionaryWithDefault
  3
ObjectDBX Classes
 90
        0
280
     0
281
     0
  0
CLASS
  1
VISUALSTYLE
  2
AcDbVisualStyle
  3
ObjectDBX Classes
 90
     4095
280
     0
281
     0
  0
CLASS
  1
MATERIAL
  2
AcDbMaterial
  3
ObjectDBX Classes
 90
     1153
280
     0
281
     0
  0
CLASS
  1
SCALE
  2
AcDbScale
  3
ObjectDBX Classes
 90
     1153
280
     0
281
     0
  0
CLASS
  1
TABLESTYLE
  2
AcDbTableStyle
  3
ObjectDBX Classes
 90
     4095
280
     0
281
     0
  0
CLASS
  1
MLEADERSTYLE
  2
AcDbMLeaderStyle
  3
ACDB_MLEADERSTYLE_CLASS
 90
     4095
280
     0
281
     0
  0
CLASS
  1
SUN
  2
AcDbSun
  3
SCENEOE
 90
     1153
280
     0
281
     0
  0
CLASS
  1
ACDBPLACEHOLDER
  2
AcDbPlaceHolder
  3
ObjectDBX Classes
 90
        0
280
     0
281
     0
  0
CLASS
  1
LAYOUT
  2
AcDbLayout
  3
ObjectDBX Classes
 90
        0
280
     0
281
     0
  0
ENDSEC
  0
SECTION
  2
TABLES
  0
TABLE
  2
VPORT
  5
8
330
0
100
AcDbSymbolTable
 70
     1
  0
VPORT
  5
29
330
8
100
AcDbSymbolTableRecord
100
AcDbViewportTableRecord
  2
*Active
 70
     0
 10
0.0
 20
0.0
 11
1.0
 21
1.0
 12
600.0
 22
250.0
 13
0.0
 23
0.0
 14
10.0
 24
10.0
 15
10.0
 25
10.0
 16
0.0
 26
0.0
 36
1.0
 17
0.0
 27
0.0
 37
0.0
 40
500.0
 41
2.4
 42
50.0
 43
0.0
 44
0.0
 50
0.0
 51
0.0
 71
     0
 72
  2000
 73
     1
 74
     3
 75
     0
 76
     0
 77
     0
 78
     0
281
     0
 65
     1
110
0.0
120
0.0
130
0.0
111
1.0
121
0.0
131
0.0
112
0.0
122
1.0
132
0.0
 79
     0
146
0.0
  0
ENDTAB
  0
TABLE
  2
LTYPE
  5
5
330
0
100
AcDbSymbolTable
 70
     6
  0
LTYPE
  5
14
330
5
100
AcDbSymbolTableRecord
100
AcDbLinetypeTableRecord
  2
ByBlock
 70
     0
  3

 72
    65
 73
     0
 40
0.0
  0
LTYPE
  5
15
330
5
100
AcDbSymbolTableRecord
100
AcDbLinetypeTableRecord
  2
ByLayer
 70
     0
  3

 72
    65
 73
     0
 40
0.0
  0
LTYPE
  5
16
330
5
100
AcDbSymbolTableRecord
100
AcDbLinetypeTableRecord
  2
Continuous
 70
     0
  3
Solid line
 72
    65
 73
     0
 40
0.0
  0
LTYPE
  5
6E
330
5
100
AcDbSymbolTableRecord
100
AcDbLinetypeTableRecord
  2
HIDDEN
 70
     0
  3
Hidden __ __ __ __ __ __ __ __ __ __ __ __ __ __
 72
    65
 73
     2
 40
1.905
 49
1.27
 74
     0
 49
-0.635
 74
     0
  0
LTYPE
  5
6F
330
5
100
AcDbSymbolTableRecord
100
AcDbLinetypeTableRecord
  2
PHANTOM
 70
     0
  3
Phantom ______  __  __  ______  __  __  ______
 72
    65
 73
     6
 40
12.7
 49
6.35
 74
     0
 49
-1.27
 74
     0
 49
1.27
 74
     0
 49
-1.27
 74
     0
 49
1.27
 74
     0
 49
-1.27
 74
     0
  0
LTYPE
  5
70
330
5
100
AcDbSymbolTableRecord
100
AcDbLinetypeTableRecord
  2
CENTER
 70
     0
  3
Center ____ _ ____ _ ____ _ ____ _ ____ _ ____
 72
    65
 73
     4
 40
10.16
 49
6.35
 74
     0
 49
-1.27
 74
     0
 49
1.27
 74
     0
 49
-1.27
 74
     0
  0
LTYPE
  5
71
330
5
100
AcDbSymbolTableRecord
100
AcDbLinetypeTableRecord
  2
CENTERX2
 70
     0
  3
Center (2x) ________  __  ________  __  _____
 72
    65
 73
     4
 40
20.32
 49
12.7
 74
     0
 49
-2.54
 74
     0
 49
2.54
 74
     0
 49
-2.54
 74
     0
  0
LTYPE
  5
72
330
5
100
AcDbSymbolTableRecord
100
AcDbLinetypeTableRecord
  2
DOT2
 70
     0
  3
Dot (.5x) ........................................
 72
    65
 73
     2
 40
0.635
 49
0.0
 74
     0
 49
-0.635
 74
     0
  0
ENDTAB
  0
TABLE
  2
LAYER
  5
2
330
0
100
AcDbSymbolTable
 70
     2
  0
LAYER
  5
10
330
2
100
AcDbSymbolTableRecord
100
AcDbLayerTableRecord
  2
0
 70
     0
 62
     7
  6
Continuous
370
    -3
390
F
  0
LAYER
  5
73
330
2
100
AcDbSymbolTableRecord
100
AcDbLayerTableRecord
  2
FORMAT
 70
     0
 62
     7
  6
Continuous
370
    -3
390
F
  0
ENDTAB
  0
TABLE
  2
STYLE
  5
3
330
0
100
AcDbSymbolTable
 70
     2
  0
STYLE
  5
11
330
3
100
AcDbSymbolTableRecord
100
AcDbTextStyleTableRecord
  2
Standard
 70
     0
 40
0.0
 41
1.0
 50
0.0
 71
     0
 42
3.5
  3
txt
  4

  0
STYLE
  5
74
330
3
100
AcDbSymbolTableRecord
100
AcDbTextStyleTableRecord
  2
SLDTEXTSTYLE0
 70
     0
 40
0.0
 41
0.75
 50
0.0
 71
     0
 42
3.5
  3
TXT
  4

  0
ENDTAB
  0
TABLE
  2
VIEW
  5
6
330
0
100
AcDbSymbolTable
 70
     0
  0
ENDTAB
  0
TABLE
  2
UCS
  5
7
330
0
100
AcDbSymbolTable
 70
     0
  0
ENDTAB
  0
TABLE
  2
APPID
  5
9
330
0
100
AcDbSymbolTable
 70
     1
  0
APPID
  5
12
330
9
100
AcDbSymbolTableRecord
100
AcDbRegAppTableRecord
  2
ACAD
 70
     0
  0
ENDTAB
  0
TABLE
  2
DIMSTYLE
  5
A
330
0
100
AcDbSymbolTable
 70
     1
100
AcDbDimStyleTable
  0
DIMSTYLE
105
27
330
A
100
AcDbSymbolTableRecord
100
AcDbDimStyleTableRecord
  2
ISO-25
 70
     0
 41
2.5
 42
0.625
 43
3.75
 44
1.25
 73
     0
 74
     0
 77
     1
 78
     8
140
2.5
141
2.5
143
0.0393700787
147
0.625
171
     3
172
     1
178
     0
271
     2
272
     2
274
     3
278
    44
283
     0
284
     8
340
11
  0
ENDTAB
  0
TABLE
  2
BLOCK_RECORD
  5
1
330
0
100
AcDbSymbolTable
 70
     1
  0
BLOCK_RECORD
  5
1F
330
1
100
AcDbSymbolTableRecord
100
AcDbBlockTableRecord
  2
*Model_Space
340
22
  0
BLOCK_RECORD
  5
1B
330
1
100
AcDbSymbolTableRecord
100
AcDbBlockTableRecord
  2
*Paper_Space
340
1E
  0
BLOCK_RECORD
  5
23
330
1
100
AcDbSymbolTableRecord
100
AcDbBlockTableRecord
  2
*Paper_Space0
340
26
  0
ENDTAB
  0
ENDSEC
  0
SECTION
  2
BLOCKS
  0
BLOCK
  5
20
330
1F
100
AcDbEntity
  8
0
100
AcDbBlockBegin
  2
*Model_Space
 70
     0
 10
0.0
 20
0.0
 30
0.0
  3
*Model_Space
  1

  0
ENDBLK
  5
21
330
1F
100
AcDbEntity
  8
0
100
AcDbBlockEnd
  0
BLOCK
  5
1C
330
1B
100
AcDbEntity
 67
     1
  8
0
100
AcDbBlockBegin
  2
*Paper_Space
 70
     0
 10
0.0
 20
0.0
 30
0.0
  3
*Paper_Space
  1

  0
ENDBLK
  5
1D
330
1B
100
AcDbEntity
 67
     1
  8
0
100
AcDbBlockEnd
  0
BLOCK
  5
24
330
23
100
AcDbEntity
  8
0
100
AcDbBlockBegin
  2
*Paper_Space0
 70
     0
 10
0.0
 20
0.0
 30
0.0
  3
*Paper_Space0
  1

  0
ENDBLK
  5
25
330
23
100
AcDbEntity
  8
0
100
AcDbBlockEnd
  0
ENDSEC
  0
SECTION
  2
ENTITIES
  0
MTEXT
  5
75
330
1F
100
AcDbEntity
  8
0
  6
Continuous
 62
     7
370
     0
100
AcDbMText
 10
916.4688045364
 20
452.2039337601
 30
0.0
 40
19.05
 41
0.0
 71
     1
 72
     1
  1
30mm
  7
SLDTEXTSTYLE0
 73
     1
 44
1.0
  0
ARC
  5
76
330
1F
100
AcDbEntity
  8
0
  6
Continuous
 62
     7
370
    25
100
AcDbCircle
 10
465.6335841616
 20
198.8089715338
 30
0.0
 40
7.500000000000016
100
AcDbArc
 50
269.8651230546
 51
359.8651230546
  0
LINE
  5
77
330
1F
100
AcDbEntity
  8
0
  6
Continuous
 62
     7
370
    25
100
AcDbLine
 10
473.1512234162
 20
206.291294988
 30
0.0
 11
473.1335655402
 21
198.7913170417
 31
0.0
  0
LINE
  5
78
330
1F
100
AcDbEntity
  8
0
  6
Continuous
 62
     7
370
    25
100
AcDbLine
 10
475.1512125682
 20
206.2865862211
 30
0.0
 11
473.1512234162
 21
206.291294988
 31
0.0
  0
LINE
  5
79
330
1F
100
AcDbEntity
  8
0
  6
Continuous
 62
     7
370
    25
100
AcDbLine
 10
475.2218291711
 20
236.2865045254
 30
0.0
 11
475.1512125682
 21
206.2865862211
 31
0.0
  0
LINE
  5
7A
330
1F
100
AcDbEntity
  8
0
  6
Continuous
 62
     7
370
    25
100
AcDbLine
 10
473.2218400191
 20
236.2912123611
 30
0.0
 11
475.2218291711
 21
236.2865045254
 31
0.0
  0
LINE
  5
7B
330
1F
100
AcDbEntity
  8
0
  6
Continuous
 62
     7
370
    25
100
AcDbLine
 10
473.3583793591
 20
294.2910523673
 30
0.0
 11
473.2218400191
 21
236.2912123611
 31
0.0
  0
LINE
  5
7C
330
1F
100
AcDbEntity
  8
0
  6
Continuous
 62
     7
370
    25
100
AcDbLine
 10
520.2738956164
 20
294.1806086858
 30
0.0
 11
473.3583793591
 21
294.2910523673
 31
0.0
  0
LINE
  5
7D
330
1F
100
AcDbEntity
  8
0
  6
Continuous
 62
     7
370
    25
100
AcDbLine
 10
520.2738956164
 20
294.1806086858
 30
0.0
 11
520.1857552479
 21
256.742846552
 31
0.0
  0
ARC
  5
7E
330
1F
100
AcDbEntity
  8
0
  6
Continuous
 62
     7
370
    25
100
AcDbCircle
 10
515.1857754174
 20
256.7546170057
 30
0.0
 40
4.999999999999961
100
AcDbArc
 50
290.9602697462
 51
359.8651230546
  0
ARC
  5
7F
330
1F
100
AcDbEntity
  8
0
  6
Continuous
 62
     7
370
    25
100
AcDbCircle
 10
529.0381982935
 20
220.5928923946
 30
0.0
 40
33.72415197763925
100
AcDbArc
 50
110.9602697462
 51
143.7167439376
  0
ARC
  5
80
330
1F
100
AcDbEntity
  8
0
  6
Continuous
 62
     7
370
    25
100
AcDbCircle
 10
489.761598192
 20
249.4267556531
 30
0.0
 40
15.00000000000001
100
AcDbArc
 50
286.5762807643
 51
323.7167439376
  0
ARC
  5
81
330
1F
100
AcDbEntity
  8
0
  6
Continuous
 62
     7
370
    25
100
AcDbCircle
 10
498.3228276997
 20
220.6651979475
 30
0.0
 40
15.00869627855163
100
AcDbArc
 50
106.5762807643
 51
179.8651230546
  0
LINE
  5
82
330
1F
100
AcDbEntity
  8
0
  6
Continuous
 62
     7
370
    25
100
AcDbLine
 10
483.3141729783
 20
220.7005297353
 30
0.0
 11
483.1931010436
 21
169.2675569614
 31
0.0
  0
LINE
  5
83
330
1F
100
AcDbEntity
  8
0
  6
Continuous
 62
     7
370
    25
100
AcDbLine
 10
442.0642048668
 20
169.3643698056
 30
0.0
 11
483.1931010436
 21
169.2675569614
 31
0.0
  0
LINE
  5
84
330
1F
100
AcDbEntity
  8
0
  6
Continuous
 62
     7
370
    25
100
AcDbLine
 10
442.1159938525
 20
191.3643138071
 30
0.0
 11
442.0642048668
 21
169.3643698056
 31
0.0
  0
LINE
  5
85
330
1F
100
AcDbEntity
  8
0
  6
Continuous
 62
     7
370
    25
100
AcDbLine
 10
465.6159297179
 20
191.3089932462
 30
0.0
 11
442.1159938525
 21
191.3643138071
 31
0.0
  0
LINE
  5
86
330
1F
100
AcDbEntity
  8
0
  6
Continuous
 62
     7
370
    25
100
AcDbLine
 10
491.270767207
 20
448.8680952748
 30
0.0
 11
441.2707627367
 21
448.8680952748
 31
0.0
  0
LINE
  5
87
330
1F
100
AcDbEntity
  8
0
  6
Continuous
 62
     7
370
    25
100
AcDbLine
 10
441.2707627367
 20
448.8680952748
 30
0.0
 11
441.2707627367
 21
461.2348967751
 31
0.0
  0
LINE
  5
88
330
1F
100
AcDbEntity
  8
0
  6
Continuous
 62
     7
370
    25
100
AcDbLine
 10
441.2707627367
 20
461.2348967751
 30
0.0
 11
546.2707594584
 21
461.2348967751
 31
0.0
  0
LINE
  5
89
330
1F
100
AcDbEntity
  8
0
  6
Continuous
 62
     7
370
    25
100
AcDbLine
 10
546.2707594584
 20
451.2349063118
 30
0.0
 11
546.2707594584
 21
461.2348967751
 31
0.0
  0
LINE
  5
8A
330
1F
100
AcDbEntity
  8
0
  6
Continuous
 62
     7
370
    25
100
AcDbLine
 10
576.2707606505
 20
451.2349063118
 30
0.0
 11
546.2707594584
 21
451.2349063118
 31
0.0
  0
LINE
  5
8B
330
1F
100
AcDbEntity
  8
0
  6
Continuous
 62
     7
370
    25
100
AcDbLine
 10
576.2707606505
 20
461.2348967751
 30
0.0
 11
576.2707606505
 21
451.2349063118
 31
0.0
  0
LINE
  5
8C
330
1F
100
AcDbEntity
  8
0
  6
Continuous
 62
     7
370
    25
100
AcDbLine
 10
576.2707606505
 20
461.2348967751
 30
0.0
 11
581.2707707833
 21
461.2348967751
 31
0.0
  0
ARC
  5
8D
330
1F
100
AcDbEntity
  8
0
  6
Continuous
 62
     7
370
    25
100
AcDbCircle
 10
581.2707639884
 20
411.2349033316
 30
0.0
 40
50.00000000000006
100
AcDbArc
 50
0.0
 51
90.0
  0
LINE
  5
8E
330
1F
100
AcDbEntity
  8
0
  6
Continuous
 62
     7
370
    25
100
AcDbLine
 10
631.2707678031
 20
411.2348997553
 30
0.0
 11
631.2707678031
 21
91.2349069079
 31
0.0
  0
ARC
  5
8F
330
1F
100
AcDbEntity
  8
0
  6
Continuous
 62
     7
370
    25
100
AcDbCircle
 10
581.2707639884
 20
91.2349033316
 30
0.0
 40
50.00000000000001
100
AcDbArc
 50
270.0
 51
0.0
  0
LINE
  5
90
330
1F
100
AcDbEntity
  8
0
  6
Continuous
 62
     7
370
    25
100
AcDbLine
 10
581.2707707833
 20
41.2349098881
 30
0.0
 11
576.2707606505
 21
41.2349098881
 31
0.0
  0
LINE
  5
91
330
1F
100
AcDbEntity
  8
0
  6
Continuous
 62
     7
370
    25
100
AcDbLine
 10
576.2707606505
 20
51.2349003514
 30
0.0
 11
576.2707606505
 21
41.2349098881
 31
0.0
  0
LINE
  5
92
330
1F
100
AcDbEntity
  8
0
  6
Continuous
 62
     7
370
    25
100
AcDbLine
 10
546.2707594584
 20
51.2349003514
 30
0.0
 11
576.2707606505
 21
51.2349003514
 31
0.0
  0
LINE
  5
93
330
1F
100
AcDbEntity
  8
0
  6
Continuous
 62
     7
370
    25
100
AcDbLine
 10
546.2707594584
 20
41.2349098881
 30
0.0
 11
546.2707594584
 21
51.2349003514
 31
0.0
  0
LINE
  5
94
330
1F
100
AcDbEntity
  8
0
  6
Continuous
 62
     7
370
    25
100
AcDbLine
 10
546.2707594584
 20
41.2349098881
 30
0.0
 11
491.270767207
 21
41.2349098881
 31
0.0
  0
LINE
  5
95
330
1F
100
AcDbEntity
  8
0
  6
Continuous
 62
     7
370
    25
100
AcDbLine
 10
491.270767207
 20
41.2349098881
 30
0.0
 11
491.270767207
 21
53.6017113884
 31
0.0
  0
LINE
  5
96
330
1F
100
AcDbEntity
  8
0
  6
Continuous
 62
     7
370
    25
100
AcDbLine
 10
491.270767207
 20
53.6017113884
 30
0.0
 11
441.2707627367
 21
53.6017113884
 31
0.0
  0
LINE
  5
97
330
1F
100
AcDbEntity
  8
0
  6
Continuous
 62
     7
370
    25
100
AcDbLine
 10
441.2707627367
 20
53.6017113884
 30
0.0
 11
441.2707627367
 21
65.9685128887
 31
0.0
  0
LINE
  5
98
330
1F
100
AcDbEntity
  8
0
  6
Continuous
 62
     7
370
    25
100
AcDbLine
 10
601.270766611
 20
65.9685128887
 30
0.0
 11
441.2707627367
 21
65.9685128887
 31
0.0
  0
ARC
  5
99
330
1F
100
AcDbEntity
  8
0
  6
Continuous
 62
     7
370
    25
100
AcDbCircle
 10
601.2707639884
 20
81.2349033316
 30
0.0
 40
15.26639080022937
100
AcDbArc
 50
270.0
 51
33.4951681656
  0
LINE
  5
9A
330
1F
100
AcDbEntity
  8
0
  6
Continuous
 62
     7
370
    25
100
AcDbLine
 10
614.0019015025
 20
89.6599137743
 30
0.0
 11
606.4514533232
 21
101.0694795807
 31
0.0
  0
SPLINE
  5
9B
330
1F
100
AcDbEntity
  8
0
  6
Continuous
 62
     7
370
    25
100
AcDbSpline
210
0.0
220
0.0
230
1.0
 70
     8
 71
     3
 72
     9
 73
     5
 74
     0
 42
0.000000001
 43
0.00000001
 40
0.0
 40
0.0
 40
0.0
 40
0.0
 40
0.5599904903879026
 40
0.9999999999999999
 40
0.9999999999999999
 40
0.9999999999999999
 40
0.9999999999999999
 10
582.0957884739566
 20
138.7918138464245
 30
0.0
 10
586.6645931098307
 20
131.7649440483256
 30
0.0
 10
594.8233113636161
 20
119.2167491794602
 30
0.0
 10
602.8983566199173
 20
106.6145618483272
 30
0.0
 10
606.451453323238
 20
101.0694795807156
 30
0.0
  0
LINE
  5
9C
330
1F
100
AcDbEntity
  8
0
  6
Continuous
 62
     7
370
    25
100
AcDbLine
 10
582.095788474
 20
146.4849033912
 30
0.0
 11
582.095788474
 21
138.7918138464
 31
0.0
  0
LINE
  5
9D
330
1F
100
AcDbEntity
  8
0
  6
Continuous
 62
     7
370
    25
100
AcDbLine
 10
577.0939454983
 20
146.4849033912
 30
0.0
 11
582.095788474
 21
146.4849033912
 31
0.0
  0
SPLINE
  5
9E
330
1F
100
AcDbEntity
  8
0
  6
Continuous
 62
     7
370
    25
100
AcDbSpline
210
0.0
220
0.0
230
1.0
 70
     8
 71
     3
 72
     9
 73
     5
 74
     0
 42
0.000000001
 43
0.00000001
 40
0.0
 40
0.0
 40
0.0
 40
0.0
 40
0.5599951382066043
 40
1.0
 40
1.0
 40
1.0
 40
1.0
 10
570.4012379597355
 20
156.7820826133046
 30
0.0
 10
571.6501893926626
 20
154.859736154204
 30
0.0
 10
573.8804791714754
 20
151.4269448173776
 30
0.0
 10
576.1120454752604
 20
147.9949831918973
 30
0.0
 10
577.0939454983402
 20
146.4849033911976
 30
0.0
  0
LINE
  5
9F
330
1F
100
AcDbEntity
  8
0
  6
Continuous
 62
     7
370
    25
100
AcDbLine
 10
570.4012379597
 20
164.4849026163
 30
0.0
 11
570.4012379597
 21
156.7820826133
 31
0.0
  0
LINE
  5
A0
330
1F
100
AcDbEntity
  8
0
  6
Continuous
 62
     7
370
    25
100
AcDbLine
 10
565.4028371524
 20
164.4849026163
 30
0.0
 11
570.4012379597
 21
164.4849026163
 31
0.0
  0
SPLINE
  5
A1
330
1F
100
AcDbEntity
  8
0
  6
Continuous
 62
     7
370
    25
100
AcDbSpline
210
0.0
220
0.0
230
1.0
 70
     8
 71
     3
 72
     9
 73
     5
 74
     0
 42
0.000000001
 43
0.00000001
 40
0.0
 40
0.0
 40
0.0
 40
0.0
 40
0.5599966137900019
 40
0.9999999999999999
 40
0.9999999999999999
 40
0.9999999999999999
 40
0.9999999999999999
 10
558.7780491064716
 20
174.724839027718
 30
0.0
 10
560.0133730311428
 20
172.812557424701
 30
0.0
 10
562.2193219498528
 20
169.3977481992043
 30
0.0
 10
564.430091197334
 20
165.986057900477
 30
0.0
 10
565.4028371523548
 20
164.4849026163373
 30
0.0
  0
LINE
  5
A2
330
1F
100
AcDbEntity
  8
0
  6
Continuous
 62
     7
370
    25
100
AcDbLine
 10
558.7780491065
 20
182.4849018415
 30
0.0
 11
558.7780491065
 21
174.7248390277
 31
0.0
  0
LINE
  5
A3
330
1F
100
AcDbEntity
  8
0
  6
Continuous
 62
     7
370
    25
100
AcDbLine
 10
553.7791416596
 20
182.4849018415
 30
0.0
 11
558.7780491065
 21
182.4849018415
 31
0.0
  0
SPLINE
  5
A4
330
1F
100
AcDbEntity
  8
0
  6
Continuous
 62
     7
370
    25
100
AcDbSpline
210
0.0
220
0.0
230
1.0
 70
     8
 71
     3
 72
     9
 73
     5
 74
     0
 42
0.000000001
 43
0.00000001
 40
0.0
 40
0.0
 40
0.0
 40
0.0
 40
0.5614733940246829
 40
0.9999999999999999
 40
0.9999999999999999
 40
0.9999999999999999
 40
0.9999999999999999
 10
553.7780538748432
 20
182.486600573853
 30
0.0
 10
553.77825756361
 20
182.4862827077475
 30
0.0
 10
553.7786203390668
 20
182.4857165792206
 30
0.0
 10
553.7789827380252
 20
182.4851502096169
 30
0.0
 10
553.7791416596103
 20
182.4849018414769
 30
0.0
  0
LINE
  5
A5
330
1F
100
AcDbEntity
  8
0
  6
Continuous
 62
     7
370
    25
100
AcDbLine
 10
553.7780538748
 20
200.4849047919
 30
0.0
 11
553.7780538748
 21
182.4866005739
 31
0.0
  0
LINE
  5
A6
330
1F
100
AcDbEntity
  8
0
  6
Continuous
 62
     7
370
    25
100
AcDbLine
 10
549.2707655381
 20
200.4849047919
 30
0.0
 11
553.7780538748
 21
200.4849047919
 31
0.0
  0
LINE
  5
A7
330
1F
100
AcDbEntity
  8
0
  6
Continuous
 62
     7
370
    25
100
AcDbLine
 10
549.2707655381
 20
206.1695934792
 30
0.0
 11
549.2707655381
 21
200.4849047919
 31
0.0
  0
SPLINE
  5
A8
330
1F
100
AcDbEntity
  8
0
  6
Continuous
 62
     7
370
    25
100
AcDbSpline
210
0.0
220
0.0
230
1.0
 70
     8
 71
     3
 72
    12
 73
     8
 74
     0
 42
0.000000001
 43
0.00000001
 40
0.0
 40
0.0
 40
0.0
 40
0.0
 40
0.1612233559110303
 40
0.3223035808986361
 40
0.4952476533908298
 40
0.7270163041890219
 40
1.0
 40
1.0
 40
1.0
 40
1.0
 10
563.2576212834049
 20
215.6210349460396
 30
0.0
 10
562.9621747631207
 20
214.6937387717294
 30
0.0
 10
562.3715440141603
 20
212.8399696584088
 30
0.0
 10
560.4486545624271
 20
210.4952002860429
 30
0.0
 10
557.6732899065915
 20
208.5096409651956
 30
0.0
 10
553.867729495959
 20
206.9733310293949
 30
0.0
 10
550.88429010463
 20
206.4517036489272
 30
0.0
 10
549.2707655380893
 20
206.1695934792313
 30
0.0
  0
ARC
  5
A9
330
1F
100
AcDbEntity
  8
0
  6
Continuous
 62
     7
370
    25
100
AcDbCircle
 10
507.187430655
 20
228.7349033316
 30
0.0
 40
57.58333333333301
100
AcDbArc
 50
346.8361106896
 51
357.5117021337
  0
LINE
  5
AA
330
1F
100
AcDbEntity
  8
0
  6
Continuous
 62
     7
370
    25
100
AcDbLine
 10
580.6870028924
 20
226.2349029591
 30
0.0
 11
564.7164747666
 21
226.2349029591
 31
0.0
  0
LINE
  5
AB
330
1F
100
AcDbEntity
  8
0
  6
Continuous
 62
     7
370
    25
100
AcDbLine
 10
580.6870028924
 20
276.2349037041
 30
0.0
 11
580.6870028924
 21
226.2349029591
 31
0.0
  0
LINE
  5
AC
330
1F
100
AcDbEntity
  8
0
  6
Continuous
 62
     7
370
    25
100
AcDbLine
 10
564.7164747666
 20
276.2349037041
 30
0.0
 11
580.6870028924
 21
276.2349037041
 31
0.0
  0
ARC
  5
AD
330
1F
100
AcDbEntity
  8
0
  6
Continuous
 62
     7
370
    25
100
AcDbCircle
 10
507.187430655
 20
273.7349033316
 30
0.0
 40
57.58333333333302
100
AcDbArc
 50
2.4882978663
 51
13.1638893104
  0
SPLINE
  5
AE
330
1F
100
AcDbEntity
  8
0
  6
Continuous
 62
     7
370
    25
100
AcDbSpline
210
0.0
220
0.0
230
1.0
 70
     8
 71
     3
 72
    12
 73
     8
 74
     0
 42
0.000000001
 43
0.00000001
 40
0.0
 40
0.0
 40
0.0
 40
0.0
 40
0.2346399734732394
 40
0.4385651765946639
 40
0.6182069158826581
 40
0.8105424549851604
 40
1.0
 40
1.0
 40
1.0
 40
1.0
 10
549.2707655380893
 20
296.3002131839547
 30
0.0
 10
550.6575634118846
 20
296.063941290417
 30
0.0
 10
553.2496249665263
 20
295.6223258947967
 30
0.0
 10
556.7633947377202
 20
294.3749108309224
 30
0.0
 10
559.74176003416
 20
292.6094232251415
 30
0.0
 10
562.1577441026944
 20
290.1277511290725
 30
0.0
 10
562.8928426383611
 20
287.9362582910894
 30
0.0
 10
563.2576212834049
 20
286.8487717171463
 30
0.0
  0
LINE
  5
AF
330
1F
100
AcDbEntity
  8
0
  6
Continuous
 62
     7
370
    25
100
AcDbLine
 10
549.2707655381
 20
296.300213184
 30
0.0
 11
549.2707655381
 21
301.9849018713
 31
0.0
  0
LINE
  5
B0
330
1F
100
AcDbEntity
  8
0
  6
Continuous
 62
     7
370
    25
100
AcDbLine
 10
549.2707655381
 20
301.9849018713
 30
0.0
 11
553.7780538748
 21
301.9849018713
 31
0.0
  0
LINE
  5
B1
330
1F
100
AcDbEntity
  8
0
  6
Continuous
 62
     7
370
    25
100
AcDbLine
 10
553.7780538748
 20
301.9849018713
 30
0.0
 11
553.7780538748
 21
319.9849048217
 31
0.0
  0
LINE
  5
B2
330
1F
100
AcDbEntity
  8
0
  6
Continuous
 62
     7
370
    25
100
AcDbLine
 10
553.7780538748
 20
319.9849048217
 30
0.0
 11
558.7780491065
 21
319.9849048217
 31
0.0
  0
LINE
  5
B3
330
1F
100
AcDbEntity
  8
0
  6
Continuous
 62
     7
370
    25
100
AcDbLine
 10
558.7780491065
 20
319.9849048217
 30
0.0
 11
558.7780491065
 21
327.7474486788
 31
0.0
  0
SPLINE
  5
B4
330
1F
100
AcDbEntity
  8
0
  6
Continuous
 62
     7
370
    25
100
AcDbSpline
210
0.0
220
0.0
230
1.0
 70
     8
 71
     3
 72
     9
 73
     5
 74
     0
 42
0.000000001
 43
0.00000001
 40
0.0
 40
0.0
 40
0.0
 40
0.0
 40
0.5600048674319341
 40
1.0
 40
1.0
 40
1.0
 40
1.0
 10
565.4012278269458
 20
337.9849040468487
 30
0.0
 10
564.163529792582
 20
336.0747758974005
 30
0.0
 10
561.9533739415452
 20
332.6638624205093
 30
0.0
 10
559.7482797969484
 20
329.2496746704892
 30
0.0
 10
558.7780491064716
 20
327.7474486788067
 30
0.0
  0
LINE
  5
B5
330
1F
100
AcDbEntity
  8
0
  6
Continuous
 62
     7
370
    25
100
AcDbLine
 10
565.4012278269
 20
337.9849040468
 30
0.0
 11
570.4012379597
 21
337.9849040468
 31
0.0
  0
LINE
  5
B6
330
1F
100
AcDbEntity
  8
0
  6
Continuous
 62
     7
370
    25
100
AcDbLine
 10
570.4012379597
 20
337.9849040468
 30
0.0
 11
570.4012379597
 21
345.6889310439
 31
0.0
  0
SPLINE
  5
B7
330
1F
100
AcDbEntity
  8
0
  6
Continuous
 62
     7
370
    25
100
AcDbSpline
210
0.0
220
0.0
230
1.0
 70
     8
 71
     3
 72
     9
 73
     5
 74
     0
 42
0.000000001
 43
0.00000001
 40
0.0
 40
0.0
 40
0.0
 40
0.0
 40
0.5600081058979967
 40
1.0
 40
1.0
 40
1.0
 40
1.0
 10
577.095778341167
 20
355.9849032719883
 30
0.0
 10
575.845673165749
 20
354.0632464238798
 30
0.0
 10
573.6133748074719
 20
350.6317660080256
 30
0.0
 10
571.3827116621494
 20
347.1992224052925
 30
0.0
 10
570.4012379597355
 20
345.6889310439381
 30
0.0
  0
LINE
  5
B8
330
1F
100
AcDbEntity
  8
0
  6
Continuous
 62
     7
370
    25
100
AcDbLine
 10
577.0957783412
 20
355.984903272
 30
0.0
 11
582.095788474
 21
355.984903272
 31
0.0
  0
LINE
  5
B9
330
1F
100
AcDbEntity
  8
0
  6
Continuous
 62
     7
370
    25
100
AcDbLine
 10
582.095788474
 20
355.984903272
 30
0.0
 11
582.095788474
 21
363.6716598233
 31
0.0
  0
SPLINE
  5
BA
330
1F
100
AcDbEntity
  8
0
  6
Continuous
 62
     7
370
    25
100
AcDbSpline
210
0.0
220
0.0
230
1.0
 70
     8
 71
     3
 72
     9
 73
     5
 74
     0
 42
0.000000001
 43
0.00000001
 40
0.0
 40
0.0
 40
0.0
 40
0.0
 40
0.5599986480553019
 40
1.0
 40
1.0
 40
1.0
 40
1.0
 10
606.451453323238
 20
401.4003270824704
 30
0.0
 10
601.9267518279346
 20
394.3436572660864
 30
0.0
 10
593.8469082229259
 20
381.742430743684
 30
0.0
 10
585.6864160587347
 20
369.1932960529244
 30
0.0
 10
582.0957884739566
 20
363.6716598232541
 30
0.0
  0
LINE
  5
BB
330
1F
100
AcDbEntity
  8
0
  6
Continuous
 62
     7
370
    25
100
AcDbLine
 10
606.4514533232
 20
401.4003270825
 30
0.0
 11
614.0019015025
 21
412.8098928889
 31
0.0
  0
ARC
  5
BC
330
1F
100
AcDbEntity
  8
0
  6
Continuous
 62
     7
370
    25
100
AcDbCircle
 10
601.2707639884
 20
421.2349033316
 30
0.0
 40
15.26639080022977
100
AcDbArc
 50
326.5048318344
 51
90.0
  0
LINE
  5
BD
330
1F
100
AcDbEntity
  8
0
  6
Continuous
 62
     7
370
    25
100
AcDbLine
 10
491.270767207
 20
436.5012937744
 30
0.0
 11
601.270766611
 21
436.5012937744
 31
0.0
  0
LINE
  5
BE
330
1F
100
AcDbEntity
  8
0
  6
Continuous
 62
     7
370
    25
100
AcDbLine
 10
491.270767207
 20
436.5012937744
 30
0.0
 11
491.270767207
 21
448.8680952748
 31
0.0
  0
ARC
  5
BF
330
1F
100
AcDbEntity
  8
0
  6
Continuous
 62
     7
370
    25
100
AcDbCircle
 10
69.2707639884
 20
421.2349033316
 30
0.0
 40
15.26639080022937
100
AcDbArc
 50
90.0
 51
213.4951681657
  0
LINE
  5
C0
330
1F
100
AcDbEntity
  8
0
  6
Continuous
 62
     7
370
    25
100
AcDbLine
 10
56.5396264743
 20
412.8098928889
 30
0.0
 11
64.0900746535
 21
401.4003270825
 31
0.0
  0
SPLINE
  5
C1
330
1F
100
AcDbEntity
  8
0
  6
Continuous
 62
     7
370
    25
100
AcDbSpline
210
0.0
220
0.0
230
1.0
 70
     8
 71
     3
 72
     9
 73
     5
 74
     0
 42
0.000000001
 43
0.00000001
 40
0.0
 40
0.0
 40
0.0
 40
0.0
 40
0.5599905516474024
 40
1.0
 40
1.0
 40
1.0
 40
1.0
 10
88.44573950278046
 20
363.6779853661808
 30
0.0
 10
83.8769351812081
 20
370.7048578516175
 30
0.0
 10
75.71821838119818
 20
383.2530561466864
 30
0.0
 10
67.64317155355282
 20
395.8552449424231
 30
0.0
 10
64.09007465349914
 20
401.4003270824704
 30
0.0
  0
LINE
  5
C2
330
1F
100
AcDbEntity
  8
0
  6
Continuous
 62
     7
370
    25
100
AcDbLine
 10
88.4457395028
 20
363.6779853662
 30
0.0
 11
88.4457395028
 21
355.984903272
 31
0.0
  0
LINE
  5
C3
330
1F
100
AcDbEntity
  8
0
  6
Continuous
 62
     7
370
    25
100
AcDbLine
 10
88.4457395028
 20
355.984903272
 30
0.0
 11
93.4475824784
 21
355.984903272
 31
0.0
  0
SPLINE
  5
C4
330
1F
100
AcDbEntity
  8
0
  6
Continuous
 62
     7
370
    25
100
AcDbSpline
210
0.0
220
0.0
230
1.0
 70
     8
 71
     3
 72
     9
 73
     5
 74
     0
 42
0.000000001
 43
0.00000001
 40
0.0
 40
0.0
 40
0.0
 40
0.0
 40
0.5599948533789189
 40
1.0
 40
1.0
 40
1.0
 40
1.0
 10
100.1402900170016
 20
345.6877165993008
 30
0.0
 10
98.89133817956875
 20
347.610062795411
 30
0.0
 10
96.66104654403517
 20
351.0428554086128
 30
0.0
 10
94.42948225193626
 20
354.4748208255225
 30
0.0
 10
93.44758247839691
 20
355.9849032719883
 30
0.0
  0
LINE
  5
C5
330
1F
100
AcDbEntity
  8
0
  6
Continuous
 62
     7
370
    25
100
AcDbLine
 10
100.140290017
 20
345.6877165993
 30
0.0
 11
100.140290017
 21
337.9849040468
 31
0.0
  0
LINE
  5
C6
330
1F
100
AcDbEntity
  8
0
  6
Continuous
 62
     7
370
    25
100
AcDbLine
 10
100.140290017
 20
337.9849040468
 30
0.0
 11
105.1386759232
 21
337.9849040468
 31
0.0
  0
SPLINE
  5
C7
330
1F
100
AcDbEntity
  8
0
  6
Continuous
 62
     7
370
    25
100
AcDbSpline
210
0.0
220
0.0
230
1.0
 70
     8
 71
     3
 72
     9
 73
     5
 74
     0
 42
0.000000001
 43
0.00000001
 40
0.0
 40
0.0
 40
0.0
 40
0.0
 40
0.5599956675675443
 40
0.9999999999999999
 40
0.9999999999999999
 40
0.9999999999999999
 40
0.9999999999999999
 10
111.7634788702655
 20
327.7449527343068
 30
0.0
 10
110.5281553840284
 20
329.6572346213002
 30
0.0
 10
108.3222035208595
 20
333.0720501238912
 30
0.0
 10
106.1114271183602
 20
336.4837439725192
 30
0.0
 10
105.1386759232211
 20
337.9849040468487
 30
0.0
  0
LINE
  5
C8
330
1F
100
AcDbEntity
  8
0
  6
Continuous
 62
     7
370
    25
100
AcDbLine
 10
111.7634788703
 20
327.7449527343
 30
0.0
 11
111.7634788703
 21
319.9849048217
 31
0.0
  0
LINE
  5
C9
330
1F
100
AcDbEntity
  8
0
  6
Continuous
 62
     7
370
    25
100
AcDbLine
 10
111.7634788703
 20
319.9849048217
 30
0.0
 11
116.762371416
 21
319.9849048217
 31
0.0
  0
SPLINE
  5
CA
330
1F
100
AcDbEntity
  8
0
  6
Continuous
 62
     7
370
    25
100
AcDbSpline
210
0.0
220
0.0
230
1.0
 70
     8
 71
     3
 72
     9
 73
     5
 74
     0
 42
0.000000001
 43
0.00000001
 40
0.0
 40
0.0
 40
0.0
 40
0.0
 40
0.557163764561251
 40
1.0
 40
1.0
 40
1.0
 40
1.0
 10
116.7634741018939
 20
319.9831837375912
 30
0.0
 10
116.7632711717429
 20
319.9835045737166
 30
0.0
 10
116.7629069518061
 20
319.9840804118198
 30
0.0
 10
116.7625357829739
 20
319.98465179329
 30
0.0
 10
116.7623714159656
 20
319.9849048217091
 30
0.0
  0
LINE
  5
CB
330
1F
100
AcDbEntity
  8
0
  6
Continuous
 62
     7
370
    25
100
AcDbLine
 10
116.7634741019
 20
319.9831837376
 30
0.0
 11
116.7634741019
 21
301.9849018713
 31
0.0
  0
LINE
  5
CC
330
1F
100
AcDbEntity
  8
0
  6
Continuous
 62
     7
370
    25
100
AcDbLine
 10
116.7634741019
 20
301.9849018713
 30
0.0
 11
121.2707624386
 21
301.9849018713
 31
0.0
  0
LINE
  5
CD
330
1F
100
AcDbEntity
  8
0
  6
Continuous
 62
     7
370
    25
100
AcDbLine
 10
121.2707624386
 20
301.9849018713
 30
0.0
 11
121.2707624386
 21
296.7348912319
 31
0.0
  0
LINE
  5
CE
330
1F
100
AcDbEntity
  8
0
  6
Continuous
 62
     7
370
    25
100
AcDbLine
 10
119.7707668494
 20
296.7349098583
 30
0.0
 11
121.2707624386
 21
296.7348912319
 31
0.0
  0
SPLINE
  5
CF
330
1F
100
AcDbEntity
  8
0
  6
Continuous
 62
     7
370
    25
100
AcDbSpline
210
0.0
220
0.0
230
1.0
 70
     8
 71
     3
 72
    11
 73
     7
 74
     0
 42
0.000000001
 43
0.00000001
 40
0.0
 40
0.0
 40
0.0
 40
0.0
 40
0.2257018235561763
 40
0.4879576514572865
 40
0.7274699280211185
 40
1.0
 40
1.0
 40
1.0
 40
1.0
 10
103.8640603970218
 20
292.0349048038277
 30
0.0
 10
104.8925129558952
 20
292.7922772733483
 30
0.0
 10
107.1159832290016
 20
294.4296840327743
 30
0.0
 10
111.0788909706678
 20
295.6657428871279
 30
0.0
 10
115.3589667812268
 20
296.4674383100135
 30
0.0
 10
118.2382783770921
 20
296.6420006017427
 30
0.0
 10
119.7707668493915
 20
296.7349098583016
 30
0.0
  0
LINE
  5
D0
330
1F
100
AcDbEntity
  8
0
  6
Continuous
 62
     7
370
    25
100
AcDbLine
 10
90.1707575272
 20
292.0349048038
 30
0.0
 11
103.864060397
 21
292.0349048038
 31
0.0
  0
LINE
  5
D1
330
1F
100
AcDbEntity
  8
0
  6
Continuous
 62
     7
370
    25
100
AcDbLine
 10
90.1707575272
 20
296.2349051197
 30
0.0
 11
90.1707575272
 21
292.0349048038
 31
0.0
  0
SPLINE
  5
D2
330
1F
100
AcDbEntity
  8
0
  6
Continuous
 62
     7
370
    25
100
AcDbSpline
210
0.0
220
0.0
230
1.0
 70
     8
 71
     3
 72
    15
 73
    11
 74
     0
 42
0.000000001
 43
0.00000001
 40
0.0
 40
0.0
 40
0.0
 40
0.0
 40
0.098805603769429
 40
0.1963074502377165
 40
0.2978914905530845
 40
0.4083465104041393
 40
0.5314308794182833
 40
0.6698795608286007
 40
0.8256173057675895
 40
1.0
 40
1.0
 40
1.0
 40
1.0
 10
71.67077218996765
 20
286.7349044938836
 30
0.0
 10
71.88363871968929
 20
287.4428008295657
 30
0.0
 10
72.30656296787386
 20
288.8492526844087
 30
0.0
 10
73.55961238898878
 20
290.717461214907
 30
0.0
 10
75.24228800916855
 20
292.3138819050942
 30
0.0
 10
77.38046192576198
 20
293.6306175379771
 30
0.0
 10
79.95382324732458
 20
294.6810242864861
 30
0.0
 10
82.96632424002348
 20
295.4682572278943
 30
0.0
 10
86.41870106939042
 20
296.0144520212459
 30
0.0
 10
88.87385039086115
 20
296.1587049879183
 30
0.0
 10
90.17075752722504
 20
296.2349051197323
 30
0.0
  0
ARC
  5
D3
330
1F
100
AcDbEntity
  8
0
  6
Continuous
 62
     7
370
    25
100
AcDbCircle
 10
127.2541014689
 20
273.7349025676
 30
0.0
 40
57.08333754556259
100
AcDbArc
 50
166.836110891
 51
172.2885756544
  0
ARC
  5
D4
330
1F
100
AcDbEntity
  8
0
  6
Continuous
 62
     7
370
    25
100
AcDbCircle
 10
70.686999131
 20
276.3945604213
 30
0.0
 40
5.0
100
AcDbArc
 50
90.0
 51
180.0
  0
LINE
  5
D5
330
1F
100
AcDbEntity
  8
0
  6
Continuous
 62
     7
370
    25
100
AcDbLine
 10
65.6870022963
 20
276.2349037041
 30
0.0
 11
65.6870022963
 21
276.3945603331
 31
0.0
  0
LINE
  5
D6
330
1F
100
AcDbEntity
  8
0
  6
Continuous
 62
     7
370
    25
100
AcDbLine
 10
53.6870077799
 20
276.2349037041
 30
0.0
 11
65.6870022963
 21
276.2349037041
 31
0.0
  0
LINE
  5
D7
330
1F
100
AcDbEntity
  8
0
  6
Continuous
 62
     7
370
    25
100
AcDbLine
 10
53.6870077799
 20
226.2349029591
 30
0.0
 11
53.6870077799
 21
276.2349037041
 31
0.0
  0
LINE
  5
D8
330
1F
100
AcDbEntity
  8
0
  6
Continuous
 62
     7
370
    25
100
AcDbLine
 10
65.6870022963
 20
226.2349029591
 30
0.0
 11
53.6870077799
 21
226.2349029591
 31
0.0
  0
LINE
  5
D9
330
1F
100
AcDbEntity
  8
0
  6
Continuous
 62
     7
370
    25
100
AcDbLine
 10
65.6870022963
 20
226.0752463301
 30
0.0
 11
65.6870022963
 21
226.2349029591
 31
0.0
  0
ARC
  5
DA
330
1F
100
AcDbEntity
  8
0
  6
Continuous
 62
     7
370
    25
100
AcDbCircle
 10
70.686999131
 20
226.0752462419
 30
0.0
 40
5.0
100
AcDbArc
 50
180.0
 51
270.0
  0
ARC
  5
DB
330
1F
100
AcDbEntity
  8
0
  6
Continuous
 62
     7
370
    25
100
AcDbCircle
 10
127.2541014689
 20
228.7349040956
 30
0.0
 40
57.08333754556247
100
AcDbArc
 50
187.7114243456
 51
193.163889109
  0
SPLINE
  5
DC
330
1F
100
AcDbEntity
  8
0
  6
Continuous
 62
     7
370
    25
100
AcDbSpline
210
0.0
220
0.0
230
1.0
 70
     8
 71
     3
 72
    15
 73
    11
 74
     0
 42
0.000000001
 43
0.00000001
 40
0.0
 40
0.0
 40
0.0
 40
0.0
 40
0.1743826942324105
 40
0.3301204391713993
 40
0.4685691205817167
 40
0.5916534895958607
 40
0.7021085094469155
 40
0.8036925497622834
 40
0.901194396230571
 40
1.0
 40
1.0
 40
1.0
 40
1.0
 10
90.17075752722504
 20
206.2349015434536
 30
0.0
 10
88.87385039086126
 20
206.3111016752677
 30
0.0
 10
86.41870106939042
 20
206.4553546419401
 30
0.0
 10
82.96632424002348
 20
207.0015494352917
 30
0.0
 10
79.95382324732448
 20
207.7887823766999
 30
0.0
 10
77.38046192576209
 20
208.839189125209
 30
0.0
 10
75.24228800916843
 20
210.1559247580917
 30
0.0
 10
73.55961238898901
 20
211.7523454482791
 30
0.0
 10
72.30656296787386
 20
213.6205539787772
 30
0.0
 10
71.88363871968929
 20
215.0270058336202
 30
0.0
 10
71.67077218996765
 20
215.7349021693024
 30
0.0
  0
LINE
  5
DD
330
1F
100
AcDbEntity
  8
0
  6
Continuous
 62
     7
370
    25
100
AcDbLine
 10
90.1707575272
 20
210.4349018594
 30
0.0
 11
90.1707575272
 21
206.2349015435
 31
0.0
  0
LINE
  5
DE
330
1F
100
AcDbEntity
  8
0
  6
Continuous
 62
     7
370
    25
100
AcDbLine
 10
103.864060397
 20
210.4349018594
 30
0.0
 11
90.1707575272
 21
210.4349018594
 31
0.0
  0
SPLINE
  5
DF
330
1F
100
AcDbEntity
  8
0
  6
Continuous
 62
     7
370
    25
100
AcDbSpline
210
0.0
220
0.0
230
1.0
 70
     8
 71
     3
 72
    11
 73
     7
 74
     0
 42
0.000000001
 43
0.00000001
 40
0.0
 40
0.0
 40
0.0
 40
0.0
 40
0.3408094883532592
 40
0.6294494177164092
 40
0.8250558564695764
 40
1.0
 40
1.0
 40
1.0
 40
1.0
 10
119.7707668493915
 20
205.7348968048844
 30
0.0
 10
117.8539322354308
 20
205.8603517668876
 30
0.0
 10
114.31368329035
 20
206.0920576186353
 30
0.0
 10
109.7776613122903
 20
207.1526897080927
 30
0.0
 10
106.3035806430427
 20
208.5510042745537
 30
0.0
 10
104.6464323611658
 20
209.8307221416151
 30
0.0
 10
103.8640603970218
 20
210.4349018593583
 30
0.0
  0
LINE
  5
E0
330
1F
100
AcDbEntity
  8
0
  6
Continuous
 62
     7
370
    25
100
AcDbLine
 10
121.2707624386
 20
205.7349154313
 30
0.0
 11
119.7707668494
 21
205.7348968049
 31
0.0
  0
LINE
  5
E1
330
1F
100
AcDbEntity
  8
0
  6
Continuous
 62
     7
370
    25
100
AcDbLine
 10
121.2707624386
 20
200.4849047919
 30
0.0
 11
121.2707624386
 21
205.7349154313
 31
0.0
  0
LINE
  5
E2
330
1F
100
AcDbEntity
  8
0
  6
Continuous
 62
     7
370
    25
100
AcDbLine
 10
116.7634741019
 20
200.4849047919
 30
0.0
 11
121.2707624386
 21
200.4849047919
 31
0.0
  0
LINE
  5
E3
330
1F
100
AcDbEntity
  8
0
  6
Continuous
 62
     7
370
    25
100
AcDbLine
 10
116.7634741019
 20
182.4849018415
 30
0.0
 11
116.7634741019
 21
200.4849047919
 31
0.0
  0
LINE
  5
E4
330
1F
100
AcDbEntity
  8
0
  6
Continuous
 62
     7
370
    25
100
AcDbLine
 10
111.7634788703
 20
182.4849018415
 30
0.0
 11
116.7634741019
 21
182.4849018415
 31
0.0
  0
LINE
  5
E5
330
1F
100
AcDbEntity
  8
0
  6
Continuous
 62
     7
370
    25
100
AcDbLine
 10
111.7634788703
 20
174.7223803361
 30
0.0
 11
111.7634788703
 21
182.4849018415
 31
0.0
  0
SPLINE
  5
E6
330
1F
100
AcDbEntity
  8
0
  6
Continuous
 62
     7
370
    25
100
AcDbSpline
210
0.0
220
0.0
230
1.0
 70
     8
 71
     3
 72
     9
 73
     5
 74
     0
 42
0.000000001
 43
0.00000001
 40
0.0
 40
0.0
 40
0.0
 40
0.0
 40
0.5600053236455687
 40
1.0
 40
1.0
 40
1.0
 40
1.0
 10
105.1402852486301
 20
164.4849026163373
 30
0.0
 10
106.3779890008595
 20
166.3950352472011
 30
0.0
 10
108.5881532617493
 20
169.8059539478111
 30
0.0
 10
110.7932486420704
 20
173.2201515618999
 30
0.0
 10
111.7634788702655
 20
174.722380336121
 30
0.0
  0
LINE
  5
E7
330
1F
100
AcDbEntity
  8
0
  6
Continuous
 62
     7
370
    25
100
AcDbLine
 10
100.140290017
 20
164.4849026163
 30
0.0
 11
105.1402852486
 21
164.4849026163
 31
0.0
  0
LINE
  5
E8
330
1F
100
AcDbEntity
  8
0
  6
Continuous
 62
     7
370
    25
100
AcDbLine
 10
100.140290017
 20
156.7808905204
 30
0.0
 11
100.140290017
 21
164.4849026163
 31
0.0
  0
SPLINE
  5
E9
330
1F
100
AcDbEntity
  8
0
  6
Continuous
 62
     7
370
    25
100
AcDbSpline
210
0.0
220
0.0
230
1.0
 70
     8
 71
     3
 72
     9
 73
     5
 74
     0
 42
0.000000001
 43
0.00000001
 40
0.0
 40
0.0
 40
0.0
 40
0.0
 40
0.5600080448029774
 40
1.0
 40
1.0
 40
1.0
 40
1.0
 10
93.44574963557007
 20
146.4849033911976
 30
0.0
 10
94.69585489770671
 20
148.4065626666134
 30
0.0
 10
96.92815365437268
 20
151.8380477912455
 30
0.0
 10
99.15881636817203
 20
155.2705966407891
 30
0.0
 10
100.1402900170016
 20
156.7808905204091
 30
0.0
  0
LINE
  5
EA
330
1F
100
AcDbEntity
  8
0
  6
Continuous
 62
     7
370
    25
100
AcDbLine
 10
88.4457395028
 20
146.4849033912
 30
0.0
 11
93.4457496356
 21
146.4849033912
 31
0.0
  0
LINE
  5
EB
330
1F
100
AcDbEntity
  8
0
  6
Continuous
 62
     7
370
    25
100
AcDbLine
 10
88.4457395028
 20
138.7981542905
 30
0.0
 11
88.4457395028
 21
146.4849033912
 31
0.0
  0
SPLINE
  5
EC
330
1F
100
AcDbEntity
  8
0
  6
Continuous
 62
     7
370
    25
100
AcDbSpline
210
0.0
220
0.0
230
1.0
 70
     8
 71
     3
 72
     9
 73
     5
 74
     0
 42
0.000000001
 43
0.00000001
 40
0.0
 40
0.0
 40
0.0
 40
0.0
 40
0.5599985701182849
 40
1.0
 40
1.0
 40
1.0
 40
1.0
 10
64.09007465349914
 20
101.0694795807156
 30
0.0
 10
68.61477655411674
 20
108.1261491340762
 30
0.0
 10
76.69462200740406
 20
120.7273769405509
 30
0.0
 10
84.85511216493235
 20
133.2765154170634
 30
0.0
 10
88.44573950278046
 20
138.7981542905125
 30
0.0
  0
LINE
  5
ED
330
1F
100
AcDbEntity
  8
0
  6
Continuous
 62
     7
370
    25
100
AcDbLine
 10
64.0900746535
 20
101.0694795807
 30
0.0
 11
56.5396264743
 21
89.6599137743
 31
0.0
  0
ARC
  5
EE
330
1F
100
AcDbEntity
  8
0
  6
Continuous
 62
     7
370
    25
100
AcDbCircle
 10
69.2707639884
 20
81.2349033316
 30
0.0
 40
15.26639080022939
100
AcDbArc
 50
146.5048318344
 51
270.0
  0
LINE
  5
EF
330
1F
100
AcDbEntity
  8
0
  6
Continuous
 62
     7
370
    25
100
AcDbLine
 10
179.2707607697
 20
65.9685128887
 30
0.0
 11
69.2707613658
 21
65.9685128887
 31
0.0
  0
LINE
  5
F0
330
1F
100
AcDbEntity
  8
0
  6
Continuous
 62
     7
370
    25
100
AcDbLine
 10
179.2707607697
 20
53.6017113884
 30
0.0
 11
179.2707607697
 21
65.9685128887
 31
0.0
  0
LINE
  5
F1
330
1F
100
AcDbEntity
  8
0
  6
Continuous
 62
     7
370
    25
100
AcDbLine
 10
229.2707652401
 20
53.6017113884
 30
0.0
 11
179.2707607697
 21
53.6017113884
 31
0.0
  0
LINE
  5
F2
330
1F
100
AcDbEntity
  8
0
  6
Continuous
 62
     7
370
    25
100
AcDbLine
 10
229.2707652401
 20
41.2349098881
 30
0.0
 11
229.2707652401
 21
53.6017113884
 31
0.0
  0
LINE
  5
F3
330
1F
100
AcDbEntity
  8
0
  6
Continuous
 62
     7
370
    25
100
AcDbLine
 10
229.2707652401
 20
41.2349098881
 30
0.0
 11
124.2707685183
 21
41.2349098881
 31
0.0
  0
LINE
  5
F4
330
1F
100
AcDbEntity
  8
0
  6
Continuous
 62
     7
370
    25
100
AcDbLine
 10
124.2707685183
 20
51.2349003514
 30
0.0
 11
124.2707685183
 21
41.2349098881
 31
0.0
  0
LINE
  5
F5
330
1F
100
AcDbEntity
  8
0
  6
Continuous
 62
     7
370
    25
100
AcDbLine
 10
94.2707673262
 20
51.2349003514
 30
0.0
 11
124.2707685183
 21
51.2349003514
 31
0.0
  0
LINE
  5
F6
330
1F
100
AcDbEntity
  8
0
  6
Continuous
 62
     7
370
    25
100
AcDbLine
 10
94.2707673262
 20
41.2349098881
 30
0.0
 11
94.2707673262
 21
51.2349003514
 31
0.0
  0
LINE
  5
F7
330
1F
100
AcDbEntity
  8
0
  6
Continuous
 62
     7
370
    25
100
AcDbLine
 10
94.2707673262
 20
41.2349098881
 30
0.0
 11
89.2707571934
 21
41.2349098881
 31
0.0
  0
ARC
  5
F8
330
1F
100
AcDbEntity
  8
0
  6
Continuous
 62
     7
370
    25
100
AcDbCircle
 10
89.2707639884
 20
91.2349033316
 30
0.0
 40
50.00000000000004
100
AcDbArc
 50
180.0
 51
270.0
  0
LINE
  5
F9
330
1F
100
AcDbEntity
  8
0
  6
Continuous
 62
     7
370
    25
100
AcDbLine
 10
39.2707601737
 20
91.2349069079
 30
0.0
 11
39.2707601737
 21
411.2348997553
 31
0.0
  0
ARC
  5
FA
330
1F
100
AcDbEntity
  8
0
  6
Continuous
 62
     7
370
    25
100
AcDbCircle
 10
89.2707639884
 20
411.2349033316
 30
0.0
 40
50.00000000000006
100
AcDbArc
 50
90.0
 51
180.0
  0
LINE
  5
FB
330
1F
100
AcDbEntity
  8
0
  6
Continuous
 62
     7
370
    25
100
AcDbLine
 10
89.2707571934
 20
461.2348967751
 30
0.0
 11
94.2707673262
 21
461.2348967751
 31
0.0
  0
LINE
  5
FC
330
1F
100
AcDbEntity
  8
0
  6
Continuous
 62
     7
370
    25
100
AcDbLine
 10
94.2707673262
 20
451.2349063118
 30
0.0
 11
94.2707673262
 21
461.2348967751
 31
0.0
  0
LINE
  5
FD
330
1F
100
AcDbEntity
  8
0
  6
Continuous
 62
     7
370
    25
100
AcDbLine
 10
124.2707685183
 20
451.2349063118
 30
0.0
 11
94.2707673262
 21
451.2349063118
 31
0.0
  0
LINE
  5
FE
330
1F
100
AcDbEntity
  8
0
  6
Continuous
 62
     7
370
    25
100
AcDbLine
 10
124.2707685183
 20
461.2348967751
 30
0.0
 11
124.2707685183
 21
451.2349063118
 31
0.0
  0
LINE
  5
FF
330
1F
100
AcDbEntity
  8
0
  6
Continuous
 62
     7
370
    25
100
AcDbLine
 10
124.2707685183
 20
461.2348967751
 30
0.0
 11
179.2707607697
 21
461.2348967751
 31
0.0
  0
LINE
  5
100
330
1F
100
AcDbEntity
  8
0
  6
Continuous
 62
     7
370
    25
100
AcDbLine
 10
179.2707607697
 20
448.8680952748
 30
0.0
 11
179.2707607697
 21
461.2348967751
 31
0.0
  0
LINE
  5
101
330
1F
100
AcDbEntity
  8
0
  6
Continuous
 62
     7
370
    25
100
AcDbLine
 10
229.2707652401
 20
448.8680952748
 30
0.0
 11
179.2707607697
 21
448.8680952748
 31
0.0
  0
LINE
  5
102
330
1F
100
AcDbEntity
  8
0
  6
Continuous
 62
     7
370
    25
100
AcDbLine
 10
229.2707652401
 20
436.5012937744
 30
0.0
 11
229.2707652401
 21
448.8680952748
 31
0.0
  0
LINE
  5
103
330
1F
100
AcDbEntity
  8
0
  6
Continuous
 62
     7
370
    25
100
AcDbLine
 10
69.2707613658
 20
436.5012937744
 30
0.0
 11
229.2707652401
 21
436.5012937744
 31
0.0
  0
ARC
  5
104
330
1F
100
AcDbEntity
  8
0
  6
Continuous
 62
     7
370
    25
100
AcDbCircle
 10
435.1450616197
 20
147.0655481274
 30
0.0
 40
2.499999999999997
100
AcDbArc
 50
107.6443412598
 51
180.1867381361
  0
SPLINE
  5
105
330
1F
100
AcDbEntity
  8
0
  6
Continuous
 62
     7
370
    25
100
AcDbSpline
210
0.0
220
0.0
230
1.0
 70
     8
 71
     3
 72
    13
 73
     9
 74
     0
 42
0.000000001
 43
0.00000001
 40
0.0
 40
0.0
 40
0.0
 40
0.0
 40
0.2481141100555455
 40
0.457792871624446
 40
0.6145890851978881
 40
0.751762007599011
 40
0.8779845080659114
 40
0.9999999999999999
 40
0.9999999999999999
 40
0.9999999999999999
 40
0.9999999999999999
 10
434.3872905324626
 20
149.4479396899495
 30
0.0
 10
436.2311034079762
 20
149.575131664737
 30
0.0
 10
439.6331041681529
 20
149.8098123097536
 30
0.0
 10
444.1145933708762
 20
150.8231313404618
 30
0.0
 10
447.600932263653
 20
152.2624808753126
 30
0.0
 10
450.1699863744117
 20
154.0878276675912
 30
0.0
 10
452.0240752169329
 20
156.3600879794583
 30
0.0
 10
452.5819963919688
 20
158.1355136472507
 30
0.0
 10
452.8562293003726
 20
159.0081819852147
 30
0.0
  0
LINE
  5
106
330
1F
100
AcDbEntity
  8
0
  6
Continuous
 62
     7
370
    25
100
AcDbLine
 10
470.8219782065
 20
164.5667695959
 30
0.0
 11
458.0668747972
 21
164.5251953562
 31
0.0
  0
LINE
  5
107
330
1F
100
AcDbEntity
  8
0
  6
Continuous
 62
     7
370
    25
100
AcDbLine
 10
470.9849373053
 20
114.5670258959
 30
0.0
 11
470.8219782065
 21
164.5667695959
 31
0.0
  0
LINE
  5
108
330
1F
100
AcDbEntity
  8
0
  6
Continuous
 62
     7
370
    25
100
AcDbLine
 10
205.9863374184
 20
113.7033545931
 30
0.0
 11
470.9849373053
 21
114.5670258959
 31
0.0
  0
ARC
  5
109
330
1F
100
AcDbEntity
  8
0
  6
Continuous
 62
     7
370
    25
100
AcDbCircle
 10
279.2981178202
 20
171.4425908721
 30
0.0
 40
57.0833333333976
100
AcDbArc
 50
191.802201138
 51
193.3506274236
  0
ARC
  5
10A
330
1F
100
AcDbEntity
  8
0
  6
Continuous
 62
     7
370
    25
100
AcDbCircle
 10
287.7880715492
 20
148.9701418855
 30
0.0
 40
3.000000000000053
100
AcDbArc
 50
180.1867381361
 51
270.1867381361
  0
LINE
  5
10B
330
1F
100
AcDbEntity
  8
0
  6
Continuous
 62
     7
370
    25
100
AcDbLine
 10
313.7879331212
 20
149.0548843106
 30
0.0
 11
324.2878780316
 21
149.0891048272
 31
0.0
  0
ARC
  5
10C
330
1F
100
AcDbEntity
  8
0
  6
Continuous
 62
     7
370
    25
100
AcDbCircle
 10
324.2976552601
 20
146.0891182373
 30
0.0
 40
2.999999999999996
100
AcDbArc
 50
0.1867381361
 51
90.1867381361
  0
ARC
  5
10D
330
1F
100
AcDbEntity
  8
0
  6
Continuous
 62
     7
370
    25
100
AcDbCircle
 10
330.3507481826
 20
129.8087599467
 30
0.0
 40
3.00000000000001
100
AcDbArc
 50
180.1867381361
 51
270.1867381361
  0
LINE
  5
10E
330
1F
100
AcDbEntity
  8
0
  6
Continuous
 62
     7
370
    25
100
AcDbLine
 10
330.3605259012
 20
126.8087768515
 30
0.0
 11
370.3603126656
 21
126.9391471108
 31
0.0
  0
ARC
  5
10F
330
1F
100
AcDbEntity
  8
0
  6
Continuous
 62
     7
370
    25
100
AcDbCircle
 10
370.3505357357
 20
129.9391275284
 30
0.0
 40
3.000000000000053
100
AcDbArc
 50
270.1867381361
 51
0.1867381361
  0
LINE
  5
110
330
1F
100
AcDbEntity
  8
0
  6
Continuous
 62
     7
370
    25
100
AcDbLine
 10
373.3505212318
 20
129.9489060005
 30
0.0
 11
373.3153209637
 21
140.7488504012
 31
0.0
  0
ARC
  5
111
330
1F
100
AcDbEntity
  8
0
  6
Continuous
 62
     7
370
    25
100
AcDbCircle
 10
376.3153046216
 20
140.758625305
 30
0.0
 40
2.999999999999996
100
AcDbArc
 50
90.1867381361
 51
180.1867381361
  0
LINE
  5
112
330
1F
100
AcDbEntity
  8
0
  6
Continuous
 62
     7
370
    25
100
AcDbLine
 10
242.2883153509
 20
148.8218450506
 30
0.0
 11
284.7880885552
 21
148.9603662451
 31
0.0
  0
ARC
  5
113
330
1F
100
AcDbEntity
  8
0
  6
Continuous
 62
     7
370
    25
100
AcDbCircle
 10
429.9592527625
 20
146.6369800102
 30
0.0
 40
2.70348768946474
100
AcDbArc
 50
270.1867381361
 51
6.4834748365
  0
SPLINE
  5
114
330
1F
100
AcDbEntity
  8
0
  6
Continuous
 62
     7
370
    25
100
AcDbSpline
210
0.0
220
0.0
230
1.0
 70
     8
 71
     3
 72
    13
 73
     9
 74
     0
 42
0.000000001
 43
0.00000001
 40
0.0
 40
0.0
 40
0.0
 40
0.0
 40
0.1220153650210015
 40
0.2482379570563476
 40
0.3854109909980776
 40
0.542207007293806
 40
0.7518858117041828
 40
1.0
 40
1.0
 40
1.0
 40
1.0
 10
223.7574473570514
 20
158.2614996989522
 30
0.0
 10
224.0373637189524
 20
157.3906387629452
 30
0.0
 10
224.6068482737295
 20
155.6188886264168
 30
0.0
 10
226.47571054201
 20
153.3587625765577
 30
0.0
 10
229.0566089829528
 20
151.5502018290905
 30
0.0
 10
232.5522531144294
 20
150.1336015084527
 30
0.0
 10
237.0402533759315
 20
149.1495209709389
 30
0.0
 10
240.4437121621282
 20
148.9370174800767
 30
0.0
 10
242.288315350883
 20
148.8218450506482
 30
0.0
  0
LINE
  5
115
330
1F
100
AcDbEntity
  8
0
  6
Continuous
 62
     7
370
    25
100
AcDbLine
 10
205.8233783196
 20
163.703083392
 30
0.0
 11
205.9863374184
 21
113.7033545931
 31
0.0
  0
ARC
  5
116
330
1F
100
AcDbEntity
  8
0
  6
Continuous
 62
     7
370
    25
100
AcDbCircle
 10
397.2308247893
 20
171.8269579589
 30
0.0
 40
57.08333333333108
100
AcDbArc
 50
347.0228488257
 51
348.5712751341
  0
LINE
  5
117
330
1F
100
AcDbEntity
  8
0
  6
Continuous
 62
     7
370
    25
100
AcDbLine
 10
376.3055258046
 20
143.7586092909
 30
0.0
 11
429.9680606078
 21
143.9335042198
 31
0.0
  0
LINE
  5
118
330
1F
100
AcDbEntity
  8
0
  6
Continuous
 62
     7
370
    25
100
AcDbLine
 10
432.645449097
 20
146.9422498306
 30
0.0
 11
432.645076568
 21
147.0573985537
 31
0.0
  0
LINE
  5
119
330
1F
100
AcDbEntity
  8
0
  6
Continuous
 62
     7
370
    25
100
AcDbLine
 10
218.510957117
 20
163.7444341143
 30
0.0
 11
205.8233783196
 21
163.703083392
 31
0.0
  0
ARC
  5
11A
330
1F
100
AcDbEntity
  8
0
  6
Continuous
 62
     7
370
    25
100
AcDbCircle
 10
310.7879493923
 20
149.045103245
 30
0.0
 40
3.000000000000053
100
AcDbArc
 50
270.1867381361
 51
0.1867381361
  0
LINE
  5
11B
330
1F
100
AcDbEntity
  8
0
  6
Continuous
 62
     7
370
    25
100
AcDbLine
 10
287.7978474449
 20
145.9701576789
 30
0.0
 11
310.7977264177
 21
146.0451179703
 31
0.0
  0
LINE
  5
11C
330
1F
100
AcDbEntity
  8
0
  6
Continuous
 62
     7
370
    25
100
AcDbLine
 10
327.2976397152
 20
146.0988962611
 30
0.0
 11
327.3507642175
 21
129.7989854177
 31
0.0
  0
ARC
  5
11D
330
1F
100
AcDbEntity
  8
0
  6
Continuous
 62
     7
370
    25
100
AcDbCircle
 10
458.0831671329
 20
159.5252219401
 30
0.0
 40
5.000000000000021
100
AcDbArc
 50
90.1867381361
 51
168.5712751341
  0
ARC
  5
11E
330
1F
100
AcDbEntity
  8
0
  6
Continuous
 62
     7
370
    25
100
AcDbCircle
 10
218.5272552152
 20
158.7444596702
 30
0.0
 40
4.999999999999994
100
AcDbArc
 50
11.802201138
 51
90.1867381361
  0
LINE
  5
11F
330
1F
100
AcDbEntity
  8
0
  6
Continuous
 62
     7
370
    25
100
AcDbLine
 10
853.2039538573
 20
282.2574575951
 30
0.0
 11
863.2883444976
 21
282.2629188706
 31
0.0
  0
LINE
  5
120
330
1F
100
AcDbEntity
  8
0
  6
Continuous
 62
     7
370
    25
100
AcDbLine
 10
863.2883444976
 20
282.2629188706
 30
0.0
 11
863.3154050063
 21
232.2629255762
 31
0.0
  0
LINE
  5
121
330
1F
100
AcDbEntity
  8
0
  6
Continuous
 62
     7
370
    25
100
AcDbLine
 10
863.3154050063
 20
232.2629255762
 30
0.0
 11
782.3154047679
 21
232.2190714588
 31
0.0
  0
LINE
  5
122
330
1F
100
AcDbEntity
  8
0
  6
Continuous
 62
     7
370
    25
100
AcDbLine
 10
782.3154047679
 20
232.2190714588
 30
0.0
 11
782.2910264682
 21
277.2190639337
 31
0.0
  0
LINE
  5
123
330
1F
100
AcDbEntity
  8
0
  6
Continuous
 62
     7
370
    25
100
AcDbLine
 10
782.2910264682
 20
277.2190639337
 30
0.0
 11
829.2066768359
 21
277.2444648256
 31
0.0
  0
LINE
  5
124
330
1F
100
AcDbEntity
  8
0
  6
Continuous
 62
     7
370
    25
100
AcDbLine
 10
829.2229191016
 20
247.2444696871
 30
0.0
 11
829.2066768359
 21
277.2444648256
 31
0.0
  0
ARC
  5
125
330
1F
100
AcDbEntity
  8
0
  6
Continuous
 62
     7
370
    25
100
AcDbCircle
 10
834.2229185746
 20
247.247176624
 30
0.0
 40
4.999999999999999
100
AcDbArc
 50
180.0310204951
 51
270.0310204951
  0
LINE
  5
126
330
1F
100
AcDbEntity
  8
0
  6
Continuous
 62
     7
370
    25
100
AcDbLine
 10
848.2255951117
 20
242.2547567223
 30
0.0
 11
834.2256263446
 21
242.2471776192
 31
0.0
  0
ARC
  5
127
330
1F
100
AcDbEntity
  8
0
  6
Continuous
 62
     7
370
    25
100
AcDbCircle
 10
848.2229165228
 20
247.2547563605
 30
0.0
 40
4.999999999999999
100
AcDbArc
 50
270.0310204951
 51
0.0310204951
  0
LINE
  5
128
330
1F
100
AcDbEntity
  8
0
  6
Continuous
 62
     7
370
    25
100
AcDbLine
 10
853.2039538573
 20
282.2574575951
 30
0.0
 11
853.2229081343
 21
247.2574634997
 31
0.0
  0
LINE
  5
129
330
1F
100
AcDbEntity
  8
0
  6
Continuous
 62
     7
370
    25
100
AcDbLine
 10
913.7707368087
 20
239.2269068917
 30
0.0
 11
923.2051984023
 21
247.6284737752
 31
0.0
  0
LINE
  5
12A
330
1F
100
AcDbEntity
  8
0
  6
Continuous
 62
     7
370
    25
100
AcDbLine
 10
923.2051984023
 20
247.6284737752
 30
0.0
 11
936.5060940932
 21
232.6923938056
 31
0.0
  0
LINE
  5
12B
330
1F
100
AcDbEntity
  8
0
  6
Continuous
 62
     7
370
    25
100
AcDbLine
 10
936.5060940932
 20
232.6923938056
 30
0.0
 11
788.8330832671
 21
101.1865431031
 31
0.0
  0
LINE
  5
12C
330
1F
100
AcDbEntity
  8
0
  6
Continuous
 62
     7
370
    25
100
AcDbLine
 10
788.8330832671
 20
101.1865431031
 30
0.0
 11
775.5321875762
 21
116.1226326187
 31
0.0
  0
LINE
  5
12D
330
1F
100
AcDbEntity
  8
0
  6
Continuous
 62
     7
370
    25
100
AcDbLine
 10
775.5321875762
 20
116.1226326187
 30
0.0
 11
784.9681094836
 21
124.5255166252
 31
0.0
  0
ARC
  5
12E
330
1F
100
AcDbEntity
  8
0
  6
Continuous
 62
     7
370
    25
100
AcDbCircle
 10
796.1046979895
 20
141.1380630994
 30
0.0
 40
20.00000000000007
100
AcDbArc
 50
236.1632308371
 51
311.6857186512
  0
LINE
  5
12F
330
1F
100
AcDbEntity
  8
0
  6
Continuous
 62
     7
370
    25
100
AcDbLine
 10
909.2846528243
 20
215.1463212033
 30
0.0
 11
809.405596609
 21
126.2019866665
 31
0.0
  0
ARC
  5
130
330
1F
100
AcDbEntity
  8
0
  6
Continuous
 62
     7
370
    25
100
AcDbCircle
 10
895.9837456378
 20
230.0824002604
 30
0.0
 40
20.00000000000004
100
AcDbArc
 50
311.6857186512
 51
27.2082064653
  0
LINE
  5
131
330
1F
100
AcDbEntity
  8
0
  6
Continuous
 62
     7
370
    25
100
AcDbLine
 10
970.0859800528
 20
125.5076670607
 30
0.0
 11
983.0170885276
 21
121.9937795361
 31
0.0
  0
LINE
  5
132
330
1F
100
AcDbEntity
  8
0
  6
Continuous
 62
     7
370
    25
100
AcDbLine
 10
990.1728645514
 20
199.427075084
 30
0.0
 11
970.0859800528
 21
125.5076670607
 31
0.0
  0
LINE
  5
133
330
1F
100
AcDbEntity
  8
0
  6
Continuous
 62
     7
370
    25
100
AcDbLine
 10
1038.4231225203
 20
186.3155508002
 30
0.0
 11
990.1728645514
 21
199.427075084
 31
0.0
  0
LINE
  5
134
330
1F
100
AcDbEntity
  8
0
  6
Continuous
 62
     7
370
    25
100
AcDbLine
 10
1038.4231225203
 20
186.3155508002
 30
0.0
 11
1035.276354904
 21
174.7354859074
 31
0.0
  0
LINE
  5
135
330
1F
100
AcDbEntity
  8
0
  6
Continuous
 62
     7
370
    25
100
AcDbLine
 10
1035.276354904
 20
174.7354859074
 30
0.0
 11
1001.8872038077
 21
183.8086613973
 31
0.0
  0
LINE
  5
136
330
1F
100
AcDbEntity
  8
0
  6
Continuous
 62
     7
370
    25
100
AcDbLine
 10
999.4326845359
 20
182.4031093677
 30
0.0
 11
997.8593007277
 21
176.6130843719
 31
0.0
  0
ARC
  5
137
330
1F
100
AcDbEntity
  8
0
  6
Continuous
 62
     7
370
    25
100
AcDbCircle
 10
995.9293116734
 20
177.1375420708
 30
0.0
 40
2.000000000000045
100
AcDbArc
 50
254.7975443211
 51
344.7975443211
  0
LINE
  5
138
330
1F
100
AcDbEntity
  8
0
  6
Continuous
 62
     7
370
    25
100
AcDbLine
 10
995.4048410605
 20
175.2075323423
 30
0.0
 11
994.053842182
 21
175.5746522506
 31
0.0
  0
LINE
  5
139
330
1F
100
AcDbEntity
  8
0
  6
Continuous
 62
     7
370
    25
100
AcDbLine
 10
991.5993825148
 20
174.1691076716
 30
0.0
 11
982.7884451102
 21
141.7449259718
 31
0.0
  0
ARC
  5
13A
330
1F
100
AcDbEntity
  8
0
  6
Continuous
 62
     7
370
    25
100
AcDbCircle
 10
984.7184360595
 20
141.2204671904
 30
0.0
 40
1.999999999999998
100
AcDbArc
 50
164.7975443211
 51
254.7975443211
  0
LINE
  5
13B
330
1F
100
AcDbEntity
  8
0
  6
Continuous
 62
     7
370
    25
100
AcDbLine
 10
984.1939822386
 20
139.290458854
 30
0.0
 11
985.5449811171
 21
138.9233314951
 31
0.0
  0
ARC
  5
13C
330
1F
100
AcDbEntity
  8
0
  6
Continuous
 62
     7
370
    25
100
AcDbCircle
 10
985.0205212635
 20
136.9933234112
 30
0.0
 40
2.000000000000038
100
AcDbArc
 50
344.7975443211
 51
74.7975443211
  0
LINE
  5
13D
330
1F
100
AcDbEntity
  8
0
  6
Continuous
 62
     7
370
    25
100
AcDbLine
 10
986.9505182456
 20
136.4688643773
 30
0.0
 11
983.0170885276
 21
121.9937795361
 31
0.0
  0
ARC
  5
13E
330
1F
100
AcDbEntity
  8
0
  6
Continuous
 62
     7
370
    25
100
AcDbCircle
 10
1001.3627159306
 20
181.8786514535
 30
0.0
 40
2.000000000000045
100
AcDbArc
 50
74.7975443211
 51
164.7975443211
  0
ARC
  5
13F
330
1F
100
AcDbEntity
  8
0
  6
Continuous
 62
     7
370
    25
100
AcDbCircle
 10
993.5293821598
 20
173.6446438001
 30
0.0
 40
2.000000000000038
100
AcDbArc
 50
74.7975443211
 51
164.7975443211
  0
LINE
  5
140
330
1F
100
AcDbEntity
  8
0
  6
Continuous
 62
     7
370
    25
100
AcDbLine
 10
912.7708092879
 20
194.3754696806
 30
0.0
 11
912.7708092879
 21
204.6911151667
 31
0.0
  0
LINE
  5
141
330
1F
100
AcDbEntity
  8
0
  6
Continuous
 62
     7
370
    25
100
AcDbLine
 10
912.7708092879
 20
204.6911151667
 30
0.0
 11
949.3708029936
 21
204.6911486944
 31
0.0
  0
LINE
  5
142
330
1F
100
AcDbEntity
  8
0
  6
Continuous
 62
     7
370
    25
100
AcDbLine
 10
949.3708029936
 20
219.6911492904
 30
0.0
 11
949.3708029936
 21
204.6911486944
 31
0.0
  0
ARC
  5
143
330
1F
100
AcDbEntity
  8
0
  6
Continuous
 62
     7
370
    25
100
AcDbCircle
 10
951.3708138399
 20
219.6911518576
 30
0.0
 40
1.999999999999984
100
AcDbArc
 50
90.0000541521
 51
180.0000541521
  0
LINE
  5
144
330
1F
100
AcDbEntity
  8
0
  6
Continuous
 62
     7
370
    25
100
AcDbLine
 10
952.7708307456
 20
221.6911533435
 30
0.0
 11
951.3708368491
 21
221.6911514809
 31
0.0
  0
ARC
  5
145
330
1F
100
AcDbEntity
  8
0
  6
Continuous
 62
     7
370
    25
100
AcDbCircle
 10
952.7708100594
 20
223.6911531807
 30
0.0
 40
2.000000000000097
100
AcDbArc
 50
270.0000541521
 51
0.0000541521
  0
LINE
  5
146
330
1F
100
AcDbEntity
  8
0
  6
Continuous
 62
     7
370
    25
100
AcDbLine
 10
954.7708049964
 20
257.2911552673
 30
0.0
 11
954.7708049964
 21
223.691155534
 31
0.0
  0
ARC
  5
147
330
1F
100
AcDbEntity
  8
0
  6
Continuous
 62
     7
370
    25
100
AcDbCircle
 10
952.770778303
 20
257.2911531807
 30
0.0
 40
1.999999999999984
100
AcDbArc
 50
0.0000541521
 51
90.0000541521
  0
LINE
  5
148
330
1F
100
AcDbEntity
  8
0
  6
Continuous
 62
     7
370
    25
100
AcDbLine
 10
951.3707772444
 20
259.2911518698
 30
0.0
 11
952.7707711409
 21
259.2911528011
 31
0.0
  0
ARC
  5
149
330
1F
100
AcDbEntity
  8
0
  6
Continuous
 62
     7
370
    25
100
AcDbCircle
 10
951.3707745225
 20
261.2911518575
 30
0.0
 40
1.999999999999984
100
AcDbArc
 50
180.0000541521
 51
270.0000541521
  0
LINE
  5
14A
330
1F
100
AcDbEntity
  8
0
  6
Continuous
 62
     7
370
    25
100
AcDbLine
 10
949.370743389
 20
267.2911503871
 30
0.0
 11
949.3708029936
 21
261.291150335
 31
0.0
  0
ARC
  5
14B
330
1F
100
AcDbEntity
  8
0
  6
Continuous
 62
     7
370
    25
100
AcDbCircle
 10
947.3707688517
 20
267.291148077
 30
0.0
 40
2.00000000000004
100
AcDbArc
 50
0.0000541521
 51
90.0000541521
  0
LINE
  5
14C
330
1F
100
AcDbEntity
  8
0
  6
Continuous
 62
     7
370
    25
100
AcDbLine
 10
912.7707496833
 20
269.2911153247
 30
0.0
 11
947.3707691382
 21
269.2911488523
 31
0.0
  0
LINE
  5
14D
330
1F
100
AcDbEntity
  8
0
  6
Continuous
 62
     7
370
    25
100
AcDbLine
 10
912.7707496833
 20
269.2911153247
 30
0.0
 11
912.7707496833
 21
281.291115429
 31
0.0
  0
LINE
  5
14E
330
1F
100
AcDbEntity
  8
0
  6
Continuous
 62
     7
370
    25
100
AcDbLine
 10
912.7707496833
 20
281.291115429
 30
0.0
 11
962.7707616042
 21
281.2911619951
 31
0.0
  0
LINE
  5
14F
330
1F
100
AcDbEntity
  8
0
  6
Continuous
 62
     7
370
    25
100
AcDbLine
 10
962.7707616042
 20
281.2911619951
 30
0.0
 11
962.7708808135
 21
160.2911645134
 31
0.0
  0
LINE
  5
150
330
1F
100
AcDbEntity
  8
0
  6
Continuous
 62
     7
370
    25
100
AcDbLine
 10
962.7708808135
 20
160.2911645134
 30
0.0
 11
912.7708688925
 21
160.2911123594
 31
0.0
  0
LINE
  5
151
330
1F
100
AcDbEntity
  8
0
  6
Continuous
 62
     7
370
    25
100
AcDbLine
 10
912.7708688925
 20
160.2911123594
 30
0.0
 11
912.7708688925
 21
170.3754657467
 31
0.0
  0
LINE
  5
152
330
1F
100
AcDbEntity
  8
0
  6
Continuous
 62
     7
370
    25
100
AcDbLine
 10
947.7708355139
 20
170.3755029996
 30
0.0
 11
912.7708688925
 21
170.3754657467
 31
0.0
  0
ARC
  5
153
330
1F
100
AcDbEntity
  8
0
  6
Continuous
 62
     7
370
    25
100
AcDbCircle
 10
947.7708557241
 20
175.3755011311
 30
0.0
 40
5.000000000000073
100
AcDbArc
 50
270.0000541521
 51
0.0000541521
  0
LINE
  5
154
330
1F
100
AcDbEntity
  8
0
  6
Continuous
 62
     7
370
    25
100
AcDbLine
 10
952.7708307456
 20
189.3755042513
 30
0.0
 11
952.7708307456
 21
175.3755056818
 31
0.0
  0
ARC
  5
155
330
1F
100
AcDbEntity
  8
0
  6
Continuous
 62
     7
370
    25
100
AcDbCircle
 10
947.7708424922
 20
189.3755011311
 30
0.0
 40
5.000000000000073
100
AcDbArc
 50
0.0000541521
 51
90.0000541521
  0
LINE
  5
156
330
1F
100
AcDbEntity
  8
0
  6
Continuous
 62
     7
370
    25
100
AcDbLine
 10
912.7708092879
 20
194.3754696806
 30
0.0
 11
947.7708355139
 21
194.3754994829
 31
0.0
  0
LINE
  5
157
330
1F
100
AcDbEntity
  8
0
  6
Continuous
 62
     7
370
    25
100
AcDbLine
 10
1054.0412083815
 20
175.0475907286
 30
0.0
 11
1052.3887888144
 21
176.1743345817
 31
0.0
  0
ARC
  5
158
330
1F
100
AcDbEntity
  8
0
  6
Continuous
 62
     7
370
    25
100
AcDbCircle
 10
1052.9144787769
 20
173.3951822634
 30
0.0
 40
2.000000000000148
100
AcDbArc
 50
325.710904131
 51
55.710904131
  0
LINE
  5
159
330
1F
100
AcDbEntity
  8
0
  6
Continuous
 62
     7
370
    25
100
AcDbLine
 10
1052.3133889388
 20
168.9636254271
 30
0.0
 11
1054.5668617438
 21
172.2684422096
 31
0.0
  0
ARC
  5
15A
330
1F
100
AcDbEntity
  8
0
  6
Continuous
 62
     7
370
    25
100
AcDbCircle
 10
1055.6182366461
 20
166.710147231
 30
0.0
 40
3.999999999999976
100
AcDbArc
 50
145.710904131
 51
235.710904131
  0
LINE
  5
15B
330
1F
100
AcDbEntity
  8
0
  6
Continuous
 62
     7
370
    25
100
AcDbLine
 10
1071.5413109015
 20
151.0112130602
 30
0.0
 11
1053.364755268
 21
163.405328389
 31
0.0
  0
ARC
  5
15C
330
1F
100
AcDbEntity
  8
0
  6
Continuous
 62
     7
370
    25
100
AcDbCircle
 10
1073.7947582151
 20
154.316033158
 30
0.0
 40
4.000000000000156
100
AcDbArc
 50
235.710904131
 51
325.710904131
  0
LINE
  5
15D
330
1F
100
AcDbEntity
  8
0
  6
Continuous
 62
     7
370
    25
100
AcDbLine
 10
1079.3530360411
 20
155.3673812707
 30
0.0
 11
1077.0995632361
 21
152.0625570377
 31
0.0
  0
ARC
  5
15E
330
1F
100
AcDbEntity
  8
0
  6
Continuous
 62
     7
370
    25
100
AcDbCircle
 10
1081.0054666562
 20
154.2406423325
 30
0.0
 40
2.0
100
AcDbArc
 50
55.710904131
 51
145.710904131
  0
LINE
  5
15F
330
1F
100
AcDbEntity
  8
0
  6
Continuous
 62
     7
370
    25
100
AcDbLine
 10
1042.2481909941
 20
161.3026329835
 30
0.0
 11
1052.3887888144
 21
176.1743345817
 31
0.0
  0
LINE
  5
160
330
1F
100
AcDbEntity
  8
0
  6
Continuous
 62
     7
370
    25
100
AcDbLine
 10
1090.394260044
 20
150.2593675216
 30
0.0
 11
1082.1322218131
 21
155.8930569847
 31
0.0
  0
LINE
  5
161
330
1F
100
AcDbEntity
  8
0
  6
Continuous
 62
     7
370
    25
100
AcDbLine
 10
1080.253602619
 20
135.3876659234
 30
0.0
 11
1090.394260044
 21
150.2593675216
 31
0.0
  0
LINE
  5
162
330
1F
100
AcDbEntity
  8
0
  6
Continuous
 62
     7
370
    25
100
AcDbLine
 10
1042.2481909941
 20
161.3026329835
 30
0.0
 11
1080.253602619
 21
135.3876659234
 31
0.0
  0
LINE
  5
163
330
1F
100
AcDbEntity
  8
0
  6
Continuous
 62
     7
370
    25
100
AcDbLine
 10
1036.077083702
 20
315.2666085919
 30
0.0
 11
1026.1340752791
 21
330.2711465915
 31
0.0
  0
LINE
  5
164
330
1F
100
AcDbEntity
  8
0
  6
Continuous
 62
     7
370
    25
100
AcDbLine
 10
1026.1340752791
 20
330.2711465915
 30
0.0
 11
1034.4699040602
 21
335.7950517495
 31
0.0
  0
ARC
  5
165
330
1F
100
AcDbEntity
  8
0
  6
Continuous
 62
     7
370
    25
100
AcDbCircle
 10
1035.5747080651
 20
334.1278813691
 30
0.0
 40
2.000000000000035
100
AcDbArc
 50
33.5311731107
 51
123.5311731107
  0
LINE
  5
166
330
1F
100
AcDbEntity
  8
0
  6
Continuous
 62
     7
370
    25
100
AcDbLine
 10
1037.2418776702
 20
335.2326595743
 30
0.0
 11
1039.451421852
 21
331.8983235915
 31
0.0
  0
ARC
  5
167
330
1F
100
AcDbEntity
  8
0
  6
Continuous
 62
     7
370
    25
100
AcDbCircle
 10
1042.7857828864
 20
334.1078833437
 30
0.0
 40
3.999999999999944
100
AcDbArc
 50
213.5311731107
 51
303.5311731107
  0
LINE
  5
168
330
1F
100
AcDbEntity
  8
0
  6
Continuous
 62
     7
370
    25
100
AcDbLine
 10
1044.9953690718
 20
330.7735392412
 30
0.0
 11
1063.3342281531
 21
342.9261365493
 31
0.0
  0
ARC
  5
169
330
1F
100
AcDbEntity
  8
0
  6
Continuous
 62
     7
370
    25
100
AcDbCircle
 10
1061.1246617836
 20
346.2604765153
 30
0.0
 40
4.000000000000038
100
AcDbArc
 50
303.5311731107
 51
33.5311731107
  0
LINE
  5
16A
330
1F
100
AcDbEntity
  8
0
  6
Continuous
 62
     7
370
    25
100
AcDbLine
 10
1064.4590274047
 20
348.4700390657
 30
0.0
 11
1062.2494236182
 21
351.8043824991
 31
0.0
  0
ARC
  5
16B
330
1F
100
AcDbEntity
  8
0
  6
Continuous
 62
     7
370
    25
100
AcDbCircle
 10
1063.9166118153
 20
352.9091617253
 30
0.0
 40
2.000000000000082
100
AcDbArc
 50
123.5311731107
 51
213.5311731107
  0
LINE
  5
16C
330
1F
100
AcDbEntity
  8
0
  6
Continuous
 62
     7
370
    25
100
AcDbLine
 10
1062.8118530463
 20
354.5763337572
 30
0.0
 11
1064.4789949607
 21
355.6811132987
 31
0.0
  0
LINE
  5
16D
330
1F
100
AcDbEntity
  8
0
  6
Continuous
 62
     7
370
    25
100
AcDbLine
 10
1074.4220033835
 20
340.6765752991
 30
0.0
 11
1036.077083702
 21
315.2666085919
 31
0.0
  0
LINE
  5
16E
330
1F
100
AcDbEntity
  8
0
  6
Continuous
 62
     7
370
    25
100
AcDbLine
 10
1074.4220033835
 20
340.6765752991
 30
0.0
 11
1064.4789949607
 21
355.6811132987
 31
0.0
  0
LINE
  5
16F
330
1F
100
AcDbEntity
  8
0
  6
Continuous
 62
     7
370
    25
100
AcDbLine
 10
1101.8347755622
 20
143.3476948698
 30
0.0
 11
1100.1824155997
 21
144.4744312723
 31
0.0
  0
ARC
  5
170
330
1F
100
AcDbEntity
  8
0
  6
Continuous
 62
     7
370
    25
100
AcDbCircle
 10
1100.7080674108
 20
141.6952838855
 30
0.0
 40
2.00000000000018
100
AcDbArc
 50
325.710904131
 51
55.710904131
  0
LINE
  5
171
330
1F
100
AcDbEntity
  8
0
  6
Continuous
 62
     7
370
    25
100
AcDbLine
 10
1100.1070157241
 20
137.2637221177
 30
0.0
 11
1102.3604885291
 21
140.5685463508
 31
0.0
  0
ARC
  5
172
330
1F
100
AcDbEntity
  8
0
  6
Continuous
 62
     7
370
    25
100
AcDbCircle
 10
1103.41182528
 20
135.0102488531
 30
0.0
 40
3.999999999999999
100
AcDbArc
 50
145.710904131
 51
235.710904131
  0
LINE
  5
173
330
1F
100
AcDbEntity
  8
0
  6
Continuous
 62
     7
370
    25
100
AcDbLine
 10
1119.3348780821
 20
119.3113172015
 30
0.0
 11
1101.1583224486
 21
131.7054250797
 31
0.0
  0
ARC
  5
174
330
1F
100
AcDbEntity
  8
0
  6
Continuous
 62
     7
370
    25
100
AcDbCircle
 10
1121.588346849
 20
122.6161347801
 30
0.0
 40
4.000000000000147
100
AcDbArc
 50
235.710904131
 51
325.710904131
  0
LINE
  5
175
330
1F
100
AcDbEntity
  8
0
  6
Continuous
 62
     7
370
    25
100
AcDbLine
 10
1127.1466628264
 20
123.6674779614
 30
0.0
 11
1124.8931900214
 21
120.3626537283
 31
0.0
  0
LINE
  5
176
330
1F
100
AcDbEntity
  8
0
  6
Continuous
 62
     7
370
    25
100
AcDbLine
 10
1128.0472294043
 20
103.6877626141
 30
0.0
 11
1138.1878272246
 21
118.5594642123
 31
0.0
  0
LINE
  5
177
330
1F
100
AcDbEntity
  8
0
  6
Continuous
 62
     7
370
    25
100
AcDbLine
 10
1090.0417581748
 20
129.6027296742
 30
0.0
 11
1100.1824155997
 21
144.4744312723
 31
0.0
  0
ARC
  5
178
330
1F
100
AcDbEntity
  8
0
  6
Continuous
 62
     7
370
    25
100
AcDbCircle
 10
1128.7990552901
 20
122.5407439546
 30
0.0
 40
1.999999999999988
100
AcDbArc
 50
55.710904131
 51
145.710904131
  0
LINE
  5
179
330
1F
100
AcDbEntity
  8
0
  6
Continuous
 62
     7
370
    25
100
AcDbLine
 10
1090.0417581748
 20
129.6027296742
 30
0.0
 11
1128.0472294043
 21
103.6877626141
 31
0.0
  0
LINE
  5
17A
330
1F
100
AcDbEntity
  8
0
  6
Continuous
 62
     7
370
    25
100
AcDbLine
 10
1138.1878272246
 20
118.5594642123
 30
0.0
 11
1129.9257889937
 21
124.193161126
 31
0.0
  0
ARC
  5
17B
330
1F
100
AcDbEntity
  8
0
  6
Continuous
 62
     7
370
    25
100
AcDbCircle
 10
1005.4033969554
 20
309.3515414318
 30
0.0
 40
4.000000000000159
100
AcDbArc
 50
341.4983891504
 51
71.4983891504
  0
LINE
  5
17C
330
1F
100
AcDbEntity
  8
0
  6
Continuous
 62
     7
370
    25
100
AcDbLine
 10
1006.6727415274
 20
313.1447987219
 30
0.0
 11
985.8098045539
 21
320.1260858734
 31
0.0
  0
ARC
  5
17D
330
1F
100
AcDbEntity
  8
0
  6
Continuous
 62
     7
370
    25
100
AcDbCircle
 10
984.5404728089
 20
316.3328304289
 30
0.0
 40
4.000000000000052
100
AcDbArc
 50
71.4983891504
 51
161.4983891504
  0
LINE
  5
17E
330
1F
100
AcDbEntity
  8
0
  6
Continuous
 62
     7
370
    25
100
AcDbLine
 10
980.7472244452
 20
317.6021569927
 30
0.0
 11
979.4778839301
 21
313.8088950475
 31
0.0
  0
ARC
  5
17F
330
1F
100
AcDbEntity
  8
0
  6
Continuous
 62
     7
370
    25
100
AcDbCircle
 10
977.5812591332
 20
314.4435594015
 30
0.0
 40
1.999999999999936
100
AcDbArc
 50
251.4983891504
 51
341.4983891504
  0
LINE
  5
180
330
1F
100
AcDbEntity
  8
0
  6
Continuous
 62
     7
370
    25
100
AcDbLine
 10
976.9465938758
 20
312.5469306072
 30
0.0
 11
961.7735758971
 21
317.6242330631
 31
0.0
  0
LINE
  5
181
330
1F
100
AcDbEntity
  8
0
  6
Continuous
 62
     7
370
    25
100
AcDbLine
 10
938.3425728034
 20
291.7207995017
 30
0.0
 11
954.209090824
 21
339.1365328391
 31
0.0
  0
LINE
  5
182
330
1F
100
AcDbEntity
  8
0
  6
Continuous
 62
     7
370
    25
100
AcDbLine
 10
954.209090824
 20
339.1365328391
 30
0.0
 11
1024.3843809317
 21
315.6540164312
 31
0.0
  0
LINE
  5
183
330
1F
100
AcDbEntity
  8
0
  6
Continuous
 62
     7
370
    25
100
AcDbLine
 10
1024.3843809317
 20
315.6540164312
 30
0.0
 11
1018.6724678229
 21
298.5843525787
 31
0.0
  0
LINE
  5
184
330
1F
100
AcDbEntity
  8
0
  6
Continuous
 62
     7
370
    25
100
AcDbLine
 10
1018.6724678229
 20
298.5843525787
 30
0.0
 11
1009.1893092345
 21
301.7576666137
 31
0.0
  0
ARC
  5
185
330
1F
100
AcDbEntity
  8
0
  6
Continuous
 62
     7
370
    25
100
AcDbCircle
 10
1009.8239600867
 20
303.6542945878
 30
0.0
 40
1.999999999999954
100
AcDbArc
 50
161.4983891504
 51
251.4983891504
  0
LINE
  5
186
330
1F
100
AcDbEntity
  8
0
  6
Continuous
 62
     7
370
    25
100
AcDbLine
 10
1007.9273596953
 20
304.288956668
 30
0.0
 11
1009.1966406058
 21
308.0822148879
 31
0.0
  0
LINE
  5
187
330
1F
100
AcDbEntity
  8
0
  6
Continuous
 62
     7
370
    25
100
AcDbLine
 10
961.7735758971
 20
317.6242330631
 30
0.0
 11
951.6189709853
 21
287.2781598528
 31
0.0
  0
LINE
  5
188
330
1F
100
AcDbEntity
  8
0
  6
Continuous
 62
     7
370
    25
100
AcDbLine
 10
951.6189709853
 20
287.2781598528
 30
0.0
 11
938.3425728034
 21
291.7207995017
 31
0.0
  0
LINE
  5
189
330
1F
100
AcDbEntity
  8
0
  6
Continuous
 62
     7
370
    25
100
AcDbLine
 10
984.9426761817
 20
189.5202466806
 30
0.0
 11
967.6250234793
 21
194.4293373783
 31
0.0
  0
LINE
  5
18A
330
1F
100
AcDbEntity
  8
0
  6
Continuous
 62
     7
370
    25
100
AcDbLine
 10
964.7608414839
 20
118.3254861792
 30
0.0
 11
984.9426761817
 21
189.5202466806
 31
0.0
  0
LINE
  5
18B
330
1F
100
AcDbEntity
  8
0
  6
Continuous
 62
     7
370
    25
100
AcDbLine
 10
916.6562572669
 20
131.9618442615
 30
0.0
 11
920.4744712065
 21
145.4311230739
 31
0.0
  0
LINE
  5
18C
330
1F
100
AcDbEntity
  8
0
  6
Continuous
 62
     7
370
    25
100
AcDbLine
 10
951.2614027213
 20
136.7038482388
 30
0.0
 11
920.4744712065
 21
145.4311230739
 31
0.0
  0
LINE
  5
18D
330
1F
100
AcDbEntity
  8
0
  6
Continuous
 62
     7
370
    25
100
AcDbLine
 10
955.6249991606
 20
152.0973139962
 30
0.0
 11
951.2614027213
 21
136.7038482388
 31
0.0
  0
ARC
  5
18E
330
1F
100
AcDbEntity
  8
0
  6
Continuous
 62
     7
370
    25
100
AcDbCircle
 10
957.5492011799
 20
151.5518593073
 30
0.0
 40
2.00000000000005
100
AcDbArc
 50
74.1733856983
 51
164.1733856983
  0
LINE
  5
18F
330
1F
100
AcDbEntity
  8
0
  6
Continuous
 62
     7
370
    25
100
AcDbLine
 10
961.9430319022
 20
152.3851299246
 30
0.0
 11
958.0946580123
 21
153.4760439356
 31
0.0
  0
ARC
  5
190
330
1F
100
AcDbEntity
  8
0
  6
Continuous
 62
     7
370
    25
100
AcDbCircle
 10
963.0339298832
 20
156.2334990895
 30
0.0
 40
4.000000000000069
100
AcDbArc
 50
254.1733856983
 51
344.1733856983
  0
LINE
  5
191
330
1F
100
AcDbEntity
  8
0
  6
Continuous
 62
     7
370
    25
100
AcDbLine
 10
972.8822723578
 20
176.3086014946
 30
0.0
 11
966.8822900008
 21
155.1425898035
 31
0.0
  0
ARC
  5
192
330
1F
100
AcDbEntity
  8
0
  6
Continuous
 62
     7
370
    25
100
AcDbCircle
 10
969.0339277295
 20
177.3995101886
 30
0.0
 40
3.999999999999988
100
AcDbArc
 50
344.1733856983
 51
74.1733856983
  0
LINE
  5
193
330
1F
100
AcDbEntity
  8
0
  6
Continuous
 62
     7
370
    25
100
AcDbLine
 10
966.2764683913
 20
182.3387810548
 30
0.0
 11
970.1248422812
 21
181.2478744944
 31
0.0
  0
ARC
  5
194
330
1F
100
AcDbEntity
  8
0
  6
Continuous
 62
     7
370
    25
100
AcDbCircle
 10
966.8219251241
 20
184.2629673694
 30
0.0
 40
2.000000000000027
100
AcDbArc
 50
164.1733856983
 51
254.1733856983
  0
LINE
  5
195
330
1F
100
AcDbEntity
  8
0
  6
Continuous
 62
     7
370
    25
100
AcDbLine
 10
967.6250234793
 20
194.4293373783
 30
0.0
 11
964.897753353
 21
184.8084250053
 31
0.0
  0
LINE
  5
196
330
1F
100
AcDbEntity
  8
0
  6
Continuous
 62
     7
370
    25
100
AcDbLine
 10
916.6562572669
 20
131.9618442615
 30
0.0
 11
964.7608414839
 21
118.3254861792
 31
0.0
  0
LINE
  5
197
330
1F
100
AcDbEntity
  8
0
  6
Continuous
 62
     7
370
    25
100
AcDbLine
 10
858.5852400016
 20
364.4545370301
 30
0.0
 11
854.4474855612
 21
348.9988291224
 31
0.0
  0
LINE
  5
198
330
1F
100
AcDbEntity
  8
0
  6
Continuous
 62
     7
370
    25
100
AcDbLine
 10
854.4474855612
 20
348.9988291224
 30
0.0
 11
864.2261639785
 21
346.380918618
 31
0.0
  0
ARC
  5
199
330
1F
100
AcDbEntity
  8
0
  6
Continuous
 62
     7
370
    25
100
AcDbCircle
 10
861.6400445184
 20
336.7211003826
 30
0.0
 40
10.0000000000001
100
AcDbArc
 50
34.8364519833
 51
75.0124380289
  0
ARC
  5
19A
330
1F
100
AcDbEntity
  8
0
  6
Continuous
 62
     7
370
    25
100
AcDbCircle
 10
905.1261278422
 20
366.9857640846
 30
0.0
 40
42.98102784807367
100
AcDbArc
 50
214.8364519833
 51
276.4327083296
  0
LINE
  5
19B
330
1F
100
AcDbEntity
  8
0
  6
Continuous
 62
     7
370
    25
100
AcDbLine
 10
909.9415556143
 20
324.2753365596
 30
0.0
 11
910.0261346053
 21
324.591203924
 31
0.0
  0
ARC
  5
19C
330
1F
100
AcDbEntity
  8
0
  6
Continuous
 62
     7
370
    25
100
AcDbCircle
 10
905.9183545457
 20
351.7826822446
 30
0.0
 40
27.50000149789892
100
AcDbArc
 50
278.5906148294
 51
306.4302650084
  0
ARC
  5
19D
330
1F
100
AcDbEntity
  8
0
  6
Continuous
 62
     7
370
    25
100
AcDbCircle
 10
905.9183363695
 20
351.7827044421
 30
0.0
 40
27.50002980422196
100
AcDbArc
 50
306.4302680135
 51
320.3881028407
  0
ARC
  5
19E
330
1F
100
AcDbEntity
  8
0
  6
Continuous
 62
     7
370
    25
100
AcDbCircle
 10
929.0297853856
 20
332.6551663718
 30
0.0
 40
2.500000000000049
100
AcDbArc
 50
75.0124380289
 51
140.3881028407
  0
LINE
  5
19F
330
1F
100
AcDbEntity
  8
0
  6
Continuous
 62
     7
370
    25
100
AcDbLine
 10
929.6762958716
 20
335.070117708
 30
0.0
 11
932.3117152404
 21
334.3645775278
 31
0.0
  0
ARC
  5
1A0
330
1F
100
AcDbEntity
  8
0
  6
Continuous
 62
     7
370
    25
100
AcDbCircle
 10
932.9582431301
 20
336.7795332185
 30
0.0
 40
2.499999999999964
100
AcDbArc
 50
255.0124380289
 51
345.0124380289
  0
LINE
  5
1A1
330
1F
100
AcDbEntity
  8
0
  6
Continuous
 62
     7
370
    25
100
AcDbLine
 10
935.37318861
 20
336.1330100854
 30
0.0
 11
937.3127833556
 21
343.3778801521
 31
0.0
  0
LINE
  5
1A2
330
1F
100
AcDbEntity
  8
0
  6
Continuous
 62
     7
370
    25
100
AcDbLine
 10
937.3127833556
 20
343.3778801521
 30
0.0
 11
944.5576087187
 21
341.4383077582
 31
0.0
  0
LINE
  5
1A3
330
1F
100
AcDbEntity
  8
0
  6
Continuous
 62
     7
370
    25
100
AcDbLine
 10
934.2132822226
 20
302.7990268131
 30
0.0
 11
944.5576087187
 21
341.4383077582
 31
0.0
  0
LINE
  5
1A4
330
1F
100
AcDbEntity
  8
0
  6
Continuous
 62
     7
370
    25
100
AcDbLine
 10
847.9594603728
 20
367.2992432078
 30
0.0
 11
837.615074272
 21
328.6599585374
 31
0.0
  0
LINE
  5
1A5
330
1F
100
AcDbEntity
  8
0
  6
Continuous
 62
     7
370
    25
100
AcDbLine
 10
847.9594603728
 20
367.2992432078
 30
0.0
 11
858.5852400016
 21
364.4545370301
 31
0.0
  0
LINE
  5
1A6
330
1F
100
AcDbEntity
  8
0
  6
Continuous
 62
     7
370
    25
100
AcDbLine
 10
837.615074272
 20
328.6599585374
 30
0.0
 11
934.2132822226
 21
302.7990268131
 31
0.0
  0
LINE
  5
1A7
330
1F
100
AcDbEntity
  8
0
  6
Continuous
 62
     7
370
    25
100
AcDbLine
 10
1005.770744438
 20
291.427090164
 30
0.0
 11
989.7707716178
 21
291.4270752629
 31
0.0
  0
LINE
  5
1A8
330
1F
100
AcDbEntity
  8
0
  6
Continuous
 62
     7
370
    25
100
AcDbLine
 10
989.7707716178
 20
291.4270752629
 30
0.0
 11
989.7707716178
 21
281.3040589501
 31
0.0
  0
ARC
  5
1A9
330
1F
100
AcDbEntity
  8
0
  6
Continuous
 62
     7
370
    25
100
AcDbCircle
 10
979.7707556076
 20
281.3040495849
 30
0.0
 40
10.00000000000015
100
AcDbArc
 50
319.8240681064
 51
0.0000541521
  0
ARC
  5
1AA
330
1F
100
AcDbEntity
  8
0
  6
Continuous
 62
     7
370
    25
100
AcDbCircle
 10
1020.2518157604
 20
247.1240396266
 30
0.0
 40
42.98102784807359
100
AcDbArc
 50
139.8240681064
 51
201.4203244528
  0
LINE
  5
1AB
330
1F
100
AcDbEntity
  8
0
  6
Continuous
 62
     7
370
    25
100
AcDbLine
 10
980.2396312903
 20
231.4270654281
 30
0.0
 11
980.5666223715
 21
231.4270672907
 31
0.0
  0
ARC
  5
1AC
330
1F
100
AcDbEntity
  8
0
  6
Continuous
 62
     7
370
    25
100
AcDbCircle
 10
1005.7707941966
 20
242.427090079
 30
0.0
 40
27.50000149789899
100
AcDbArc
 50
203.5782309525
 51
231.4178811315
  0
ARC
  5
1AD
330
1F
100
AcDbEntity
  8
0
  6
Continuous
 62
     7
370
    25
100
AcDbCircle
 10
1005.7708109385
 20
242.4271133774
 30
0.0
 40
27.50002980422192
100
AcDbArc
 50
231.4178841366
 51
245.3757189638
  0
ARC
  5
1AE
330
1F
100
AcDbEntity
  8
0
  6
Continuous
 62
     7
370
    25
100
AcDbCircle
 10
993.2708162818
 20
215.1552978559
 30
0.0
 40
2.499999999999996
100
AcDbArc
 50
0.0000541521
 51
65.3757189638
  0
LINE
  5
1AF
330
1F
100
AcDbEntity
  8
0
  6
Continuous
 62
     7
370
    25
100
AcDbLine
 10
995.7708135794
 20
215.1552991529
 30
0.0
 11
995.7708135794
 21
212.4270790776
 31
0.0
  0
ARC
  5
1B0
330
1F
100
AcDbEntity
  8
0
  6
Continuous
 62
     7
370
    25
100
AcDbCircle
 10
998.2708188604
 20
212.4270829905
 30
0.0
 40
2.500000000000093
100
AcDbArc
 50
180.0000541521
 51
270.0000541521
  0
LINE
  5
1B1
330
1F
100
AcDbEntity
  8
0
  6
Continuous
 62
     7
370
    25
100
AcDbLine
 10
998.2708111952
 20
209.9270814617
 30
0.0
 11
1005.7708040427
 21
209.9270889123
 31
0.0
  0
LINE
  5
1B2
330
1F
100
AcDbEntity
  8
0
  6
Continuous
 62
     7
370
    25
100
AcDbLine
 10
1005.7708040427
 20
209.9270889123
 30
0.0
 11
1005.7708040427
 21
202.4270886143
 31
0.0
  0
LINE
  5
1B3
330
1F
100
AcDbEntity
  8
0
  6
Continuous
 62
     7
370
    25
100
AcDbLine
 10
965.7708421897
 20
202.4270513614
 30
0.0
 11
1005.7708040427
 21
202.4270886143
 31
0.0
  0
LINE
  5
1B4
330
1F
100
AcDbEntity
  8
0
  6
Continuous
 62
     7
370
    25
100
AcDbLine
 10
965.7707229804
 20
302.4270528515
 30
0.0
 11
965.7708421897
 21
202.4270513614
 31
0.0
  0
LINE
  5
1B5
330
1F
100
AcDbEntity
  8
0
  6
Continuous
 62
     7
370
    25
100
AcDbLine
 10
1005.770744438
 20
302.4270901044
 30
0.0
 11
965.7707229804
 21
302.4270528515
 31
0.0
  0
LINE
  5
1B6
330
1F
100
AcDbEntity
  8
0
  6
Continuous
 62
     7
370
    25
100
AcDbLine
 10
1005.770744438
 20
302.4270901044
 30
0.0
 11
1005.770744438
 21
291.427090164
 31
0.0
  0
LINE
  5
1B7
330
1F
100
AcDbEntity
  8
0
  6
Continuous
 62
     7
370
    25
100
AcDbLine
 10
1082.0781007956
 20
345.5610269268
 30
0.0
 11
1078.4698740195
 21
350.8448371251
 31
0.0
  0
ARC
  5
1B8
330
1F
100
AcDbEntity
  8
0
  6
Continuous
 62
     7
370
    25
100
AcDbCircle
 10
1093.6800589204
 20
367.0284141308
 30
0.0
 40
4.999999999999917
100
AcDbArc
 50
169.3288211302
 51
198.6061584537
  0
ARC
  5
1B9
330
1F
100
AcDbEntity
  8
0
  6
Continuous
 62
     7
370
    25
100
AcDbCircle
 10
1108.3354294086
 20
381.4136084151
 30
0.0
 40
5.00000000000003
100
AcDbArc
 50
79.3288211302
 51
124.3288211302
  0
LINE
  5
1BA
330
1F
100
AcDbEntity
  8
0
  6
Continuous
 62
     7
370
    25
100
AcDbLine
 10
1114.2848745536
 20
385.3805357178
 30
0.0
 11
1109.2612758826
 21
386.3271319826
 31
0.0
  0
LINE
  5
1BB
330
1F
100
AcDbEntity
  8
0
  6
Continuous
 62
     7
370
    25
100
AcDbLine
 10
1137.5728861045
 20
383.4578984936
 30
0.0
 11
1082.0781007956
 21
345.5610269268
 31
0.0
  0
ARC
  5
1BC
330
1F
100
AcDbEntity
  8
0
  6
Continuous
 62
     7
370
    25
100
AcDbCircle
 10
1094.6266606805
 20
372.0520122598
 30
0.0
 40
4.999999999999984
100
AcDbArc
 50
124.3288211302
 51
169.3288211302
  0
LINE
  5
1BD
330
1F
100
AcDbEntity
  8
0
  6
Continuous
 62
     7
370
    25
100
AcDbLine
 10
1133.966566677
 20
388.7388104161
 30
0.0
 11
1137.5728861045
 21
383.4578984936
 31
0.0
  0
ARC
  5
1BE
330
1F
100
AcDbEntity
  8
0
  6
Continuous
 62
     7
370
    25
100
AcDbCircle
 10
1113.3590275377
 20
380.4670066551
 30
0.0
 40
5.000000000000133
100
AcDbArc
 50
50.0514838066
 51
79.3288211302
  0
ARC
  5
1BF
330
1F
100
AcDbEntity
  8
0
  6
Continuous
 62
     7
370
    25
100
AcDbCircle
 10
1080.1214769785
 20
351.9727167179
 30
0.0
 40
1.999999999999979
100
AcDbArc
 50
86.9215510556
 51
214.3288211302
  0
ARC
  5
1C0
330
1F
100
AcDbEntity
  8
0
  6
Continuous
 62
     7
370
    25
100
AcDbCircle
 10
1132.3149422645
 20
387.610929267
 30
0.0
 40
2.000000000000117
100
AcDbArc
 50
34.3288211302
 51
161.7052132449
  0
ARC
  5
1C1
330
1F
100
AcDbEntity
  8
0
  6
Continuous
 62
     7
370
    25
100
AcDbCircle
 10
1122.1557840007
 20
390.9697241953
 30
0.0
 40
8.700000000000024
100
AcDbArc
 50
230.0514838066
 51
341.7052132449
  0
ARC
  5
1C2
330
1F
100
AcDbEntity
  8
0
  6
Continuous
 62
     7
370
    25
100
AcDbCircle
 10
1080.6961014614
 20
362.6572759837
 30
0.0
 40
8.700000000000069
100
AcDbArc
 50
266.9215510556
 51
18.6061584537
  0
LINE
  5
1C3
330
1F
100
AcDbEntity
  8
0
  6
Continuous
 62
     7
370
    25
100
AcDbLine
 10
1089.7131577681
 20
372.9778745731
 30
0.0
 11
1088.7665167998
 21
367.9542759021
 31
0.0
  0
LINE
  5
1C4
330
1F
100
AcDbEntity
  8
0
  6
Continuous
 62
     7
370
    25
100
AcDbLine
 10
1105.5157200049
 20
385.5426752528
 30
0.0
 11
1091.8069497298
 21
376.1810877879
 31
0.0
  0
ARC
  5
1C5
330
1F
100
AcDbEntity
  8
0
  6
Continuous
 62
     7
370
    25
100
AcDbCircle
 10
815.1358364986
 20
349.6194635295
 30
0.0
 40
4.999999999999984
100
AcDbArc
 50
180.7341202256
 51
225.7341202256
  0
LINE
  5
1C6
330
1F
100
AcDbEntity
  8
0
  6
Continuous
 62
     7
370
    25
100
AcDbLine
 10
810.136260147
 20
349.5554023941
 30
0.0
 11
809.9235609721
 21
366.1543348392
 31
0.0
  0
ARC
  5
1C7
330
1F
100
AcDbEntity
  8
0
  6
Continuous
 62
     7
370
    25
100
AcDbCircle
 10
814.9231457978
 20
366.2183967868
 30
0.0
 40
4.999999999999994
100
AcDbArc
 50
135.7341202256
 51
180.7341202256
  0
LINE
  5
1C8
330
1F
100
AcDbEntity
  8
0
  6
Continuous
 62
     7
370
    25
100
AcDbLine
 10
811.3425985526
 20
369.7083437403
 30
0.0
 11
814.9107114028
 21
373.3690896591
 31
0.0
  0
ARC
  5
1C9
330
1F
100
AcDbEntity
  8
0
  6
Continuous
 62
     7
370
    25
100
AcDbCircle
 10
818.4912687063
 20
369.8791469782
 30
0.0
 40
4.99999999999998
100
AcDbArc
 50
106.456782902
 51
135.7341202256
  0
ARC
  5
1CA
330
1F
100
AcDbEntity
  8
0
  6
Continuous
 62
     7
370
    25
100
AcDbCircle
 10
814.6101676925
 20
383.0179085226
 30
0.0
 40
8.700000000000058
100
AcDbArc
 50
286.456782902
 51
38.1413903002
  0
ARC
  5
1CB
330
1F
100
AcDbEntity
  8
0
  6
Continuous
 62
     7
370
    25
100
AcDbCircle
 10
823.0256007607
 20
389.6262733942
 30
0.0
 40
2.000000000000032
100
AcDbArc
 50
90.7341202256
 51
218.1413903002
  0
LINE
  5
1CC
330
1F
100
AcDbEntity
  8
0
  6
Continuous
 62
     7
370
    25
100
AcDbLine
 10
829.3977395247
 20
391.7080903014
 30
0.0
 11
822.9999855708
 21
391.6261041125
 31
0.0
  0
LINE
  5
1CD
330
1F
100
AcDbEntity
  8
0
  6
Continuous
 62
     7
370
    25
100
AcDbLine
 10
830.2587584208
 20
324.5136061271
 30
0.0
 11
829.3977395247
 21
391.7080903014
 31
0.0
  0
LINE
  5
1CE
330
1F
100
AcDbEntity
  8
0
  6
Continuous
 62
     7
370
    25
100
AcDbLine
 10
823.8644615363
 20
324.4316720923
 30
0.0
 11
830.2587584208
 21
324.5136061271
 31
0.0
  0
ARC
  5
1CF
330
1F
100
AcDbEntity
  8
0
  6
Continuous
 62
     7
370
    25
100
AcDbCircle
 10
823.8388499866
 20
326.4315059054
 30
0.0
 40
2.000000000000051
100
AcDbArc
 50
143.3577281109
 51
270.7341202256
  0
ARC
  5
1D0
330
1F
100
AcDbEntity
  8
0
  6
Continuous
 62
     7
370
    25
100
AcDbCircle
 10
815.2534121087
 20
332.8174480006
 30
0.0
 40
8.700000000000047
100
AcDbArc
 50
323.3577281109
 51
75.0114575491
  0
ARC
  5
1D1
330
1F
100
AcDbEntity
  8
0
  6
Continuous
 62
     7
370
    25
100
AcDbCircle
 10
818.79658669
 20
346.0513406209
 30
0.0
 40
5.000000000000063
100
AcDbArc
 50
225.7341202256
 51
255.0114575491
  0
LINE
  5
1D2
330
1F
100
AcDbEntity
  8
0
  6
Continuous
 62
     7
370
    25
100
AcDbLine
 10
815.3066352557
 20
342.4707943161
 30
0.0
 11
811.6458967875
 21
346.0389220675
 31
0.0
  0
LINE
  5
1D3
330
1F
100
AcDbEntity
  8
0
  6
Continuous
 62
     7
370
    25
100
AcDbLine
 10
326.8606370862
 20
378.2174283226
 30
0.0
 11
326.8733319442
 21
373.2174479922
 31
0.0
  0
LINE
  5
1D4
330
1F
100
AcDbEntity
  8
0
  6
Continuous
 62
     7
370
    25
100
AcDbLine
 10
379.3551527511
 20
378.3507043083
 30
0.0
 11
326.8606370862
 21
378.2174283226
 31
0.0
  0
LINE
  5
1D5
330
1F
100
AcDbEntity
  8
0
  6
Continuous
 62
     7
370
    25
100
AcDbLine
 10
379.4059321831
 20
358.3507755359
 30
0.0
 11
379.3551527511
 21
378.3507043083
 31
0.0
  0
LINE
  5
1D6
330
1F
100
AcDbEntity
  8
0
  6
Continuous
 62
     7
370
    25
100
AcDbLine
 10
379.4059321831
 20
358.3507755359
 30
0.0
 11
363.8533853542
 21
358.3112874587
 31
0.0
  0
LINE
  5
1D7
330
1F
100
AcDbEntity
  8
0
  6
Continuous
 62
     7
370
    25
100
AcDbLine
 10
363.8533853542
 20
358.3112874587
 30
0.0
 11
246.7263058375
 21
372.8552156647
 31
0.0
  0
ARC
  5
1D8
330
1F
100
AcDbEntity
  8
0
  6
Continuous
 62
     7
370
    25
100
AcDbCircle
 10
244.2617905873
 20
353.0076422237
 30
0.0
 40
20.00000000000004
100
AcDbArc
 50
82.9216882806
 51
115.9165991902
  0
ARC
  5
1D9
330
1F
100
AcDbEntity
  8
0
  6
Continuous
 62
     7
370
    25
100
AcDbCircle
 10
226.7792953318
 20
388.9848900289
 30
0.0
 40
19.99999999999998
100
AcDbArc
 50
280.7618824011
 51
295.9165991902
  0
ARC
  5
1DA
330
1F
100
AcDbEntity
  8
0
  6
Continuous
 62
     7
370
    25
100
AcDbCircle
 10
221.0902348695
 20
418.9161597194
 30
0.0
 40
50.4671349855243
100
AcDbArc
 50
270.1454675415
 51
280.7618824011
  0
LINE
  5
1DB
330
1F
100
AcDbEntity
  8
0
  6
Continuous
 62
     7
370
    25
100
AcDbLine
 10
221.2183639954
 20
368.4491881688
 30
0.0
 11
219.2183748435
 21
368.4441068729
 31
0.0
  0
LINE
  5
1DC
330
1F
100
AcDbEntity
  8
0
  6
Continuous
 62
     7
370
    25
100
AcDbLine
 10
219.2183748435
 20
368.4441068729
 30
0.0
 11
219.3211928557
 21
327.9442408641
 31
0.0
  0
LINE
  5
1DD
330
1F
100
AcDbEntity
  8
0
  6
Continuous
 62
     7
370
    25
100
AcDbLine
 10
199.4826809119
 20
327.8938749393
 30
0.0
 11
219.3211928557
 21
327.9442408641
 31
0.0
  0
LINE
  5
1DE
330
1F
100
AcDbEntity
  8
0
  6
Continuous
 62
     7
370
    25
100
AcDbLine
 10
199.3557379197
 20
377.8937154969
 30
0.0
 11
199.4826809119
 21
327.8938749393
 31
0.0
  0
LINE
  5
1DF
330
1F
100
AcDbEntity
  8
0
  6
Continuous
 62
     7
370
    25
100
AcDbLine
 10
296.860733683
 20
378.1412684878
 30
0.0
 11
199.3557379197
 21
377.8937154969
 31
0.0
  0
LINE
  5
1E0
330
1F
100
AcDbEntity
  8
0
  6
Continuous
 62
     7
370
    25
100
AcDbLine
 10
296.860733683
 20
378.1412684878
 30
0.0
 11
296.8734294723
 21
373.1412807067
 31
0.0
  0
LINE
  5
1E1
330
1F
100
AcDbEntity
  8
0
  6
Continuous
 62
     7
370
    25
100
AcDbLine
 10
296.8734294723
 20
373.1412807067
 30
0.0
 11
326.8733319442
 21
373.2174479922
 31
0.0
  0
LINE
  5
1E2
330
1F
100
AcDbEntity
  8
0
  6
Continuous
 62
     7
370
    25
100
AcDbLine
 10
745.2707604121
 20
171.2349051197
 30
0.0
 11
755.2707508753
 21
171.2349051197
 31
0.0
  0
LINE
  5
1E3
330
1F
100
AcDbEntity
  8
0
  6
Continuous
 62
     7
370
    25
100
AcDbLine
 10
745.2707604121
 20
171.2349051197
 30
0.0
 11
745.2707604121
 21
331.2349015435
 31
0.0
  0
LINE
  5
1E4
330
1F
100
AcDbEntity
  8
0
  6
Continuous
 62
     7
370
    25
100
AcDbLine
 10
755.2707508753
 20
331.2349015435
 30
0.0
 11
745.2707604121
 21
331.2349015435
 31
0.0
  0
LINE
  5
1E5
330
1F
100
AcDbEntity
  8
0
  6
Continuous
 62
     7
370
    25
100
AcDbLine
 10
755.2707508753
 20
361.2349027355
 30
0.0
 11
755.2707508753
 21
331.2349015435
 31
0.0
  0
LINE
  5
1E6
330
1F
100
AcDbEntity
  8
0
  6
Continuous
 62
     7
370
    25
100
AcDbLine
 10
745.2707604121
 20
361.2349027355
 30
0.0
 11
755.2707508753
 21
361.2349027355
 31
0.0
  0
LINE
  5
1E7
330
1F
100
AcDbEntity
  8
0
  6
Continuous
 62
     7
370
    25
100
AcDbLine
 10
745.2707604121
 20
361.2349027355
 30
0.0
 11
745.2707604121
 21
366.2349054178
 31
0.0
  0
ARC
  5
1E8
330
1F
100
AcDbEntity
  8
0
  6
Continuous
 62
     7
370
    25
100
AcDbCircle
 10
795.2707639884
 20
366.2349033316
 30
0.0
 40
50.0
100
AcDbArc
 50
90.0
 51
180.0
  0
LINE
  5
1E9
330
1F
100
AcDbEntity
  8
0
  6
Continuous
 62
     7
370
    25
100
AcDbLine
 10
795.270772333
 20
416.2349098881
 30
0.0
 11
1115.2707353781
 21
416.2349098881
 31
0.0
  0
ARC
  5
1EA
330
1F
100
AcDbEntity
  8
0
  6
Continuous
 62
     7
370
    25
100
AcDbCircle
 10
1115.2707639884
 20
366.2349033316
 30
0.0
 40
50.0
100
AcDbArc
 50
0.0
 51
90.0
  0
LINE
  5
1EB
330
1F
100
AcDbEntity
  8
0
  6
Continuous
 62
     7
370
    25
100
AcDbLine
 10
1165.2707472991
 20
366.2349054178
 30
0.0
 11
1165.2707472991
 21
361.2349027355
 31
0.0
  0
LINE
  5
1EC
330
1F
100
AcDbEntity
  8
0
  6
Continuous
 62
     7
370
    25
100
AcDbLine
 10
1155.2707568358
 20
361.2349027355
 30
0.0
 11
1165.2707472991
 21
361.2349027355
 31
0.0
  0
LINE
  5
1ED
330
1F
100
AcDbEntity
  8
0
  6
Continuous
 62
     7
370
    25
100
AcDbLine
 10
1155.2707568358
 20
331.2349015435
 30
0.0
 11
1155.2707568358
 21
361.2349027355
 31
0.0
  0
LINE
  5
1EE
330
1F
100
AcDbEntity
  8
0
  6
Continuous
 62
     7
370
    25
100
AcDbLine
 10
1165.2707472991
 20
331.2349015435
 30
0.0
 11
1155.2707568358
 21
331.2349015435
 31
0.0
  0
LINE
  5
1EF
330
1F
100
AcDbEntity
  8
0
  6
Continuous
 62
     7
370
    25
100
AcDbLine
 10
1165.2707472991
 20
331.2349015435
 30
0.0
 11
1165.2707472991
 21
171.2349051197
 31
0.0
  0
LINE
  5
1F0
330
1F
100
AcDbEntity
  8
0
  6
Continuous
 62
     7
370
    25
100
AcDbLine
 10
1155.2707568358
 20
171.2349051197
 30
0.0
 11
1165.2707472991
 21
171.2349051197
 31
0.0
  0
LINE
  5
1F1
330
1F
100
AcDbEntity
  8
0
  6
Continuous
 62
     7
370
    25
100
AcDbLine
 10
1155.2707568358
 20
141.2349039276
 30
0.0
 11
1155.2707568358
 21
171.2349051197
 31
0.0
  0
LINE
  5
1F2
330
1F
100
AcDbEntity
  8
0
  6
Continuous
 62
     7
370
    25
100
AcDbLine
 10
1165.2707472991
 20
141.2349039276
 30
0.0
 11
1155.2707568358
 21
141.2349039276
 31
0.0
  0
LINE
  5
1F3
330
1F
100
AcDbEntity
  8
0
  6
Continuous
 62
     7
370
    25
100
AcDbLine
 10
1165.2707472991
 20
141.2349039276
 30
0.0
 11
1165.2707472991
 21
136.2349012454
 31
0.0
  0
ARC
  5
1F4
330
1F
100
AcDbEntity
  8
0
  6
Continuous
 62
     7
370
    25
100
AcDbCircle
 10
1115.2707639884
 20
136.2349033316
 30
0.0
 40
50.0
100
AcDbArc
 50
270.0
 51
0.0
  0
LINE
  5
1F5
330
1F
100
AcDbEntity
  8
0
  6
Continuous
 62
     7
370
    25
100
AcDbLine
 10
1115.2707353781
 20
86.2348967751
 30
0.0
 11
795.270772333
 21
86.2348967751
 31
0.0
  0
ARC
  5
1F6
330
1F
100
AcDbEntity
  8
0
  6
Continuous
 62
     7
370
    25
100
AcDbCircle
 10
795.2707639884
 20
136.2349033316
 30
0.0
 40
50.0
100
AcDbArc
 50
180.0
 51
270.0
  0
LINE
  5
1F7
330
1F
100
AcDbEntity
  8
0
  6
Continuous
 62
     7
370
    25
100
AcDbLine
 10
745.2707604121
 20
136.2349012454
 30
0.0
 11
745.2707604121
 21
141.2349039276
 31
0.0
  0
LINE
  5
1F8
330
1F
100
AcDbEntity
  8
0
  6
Continuous
 62
     7
370
    25
100
AcDbLine
 10
755.2707508753
 20
141.2349039276
 30
0.0
 11
745.2707604121
 21
141.2349039276
 31
0.0
  0
LINE
  5
1F9
330
1F
100
AcDbEntity
  8
0
  6
Continuous
 62
     7
370
    25
100
AcDbLine
 10
755.2707508753
 20
171.2349051197
 30
0.0
 11
755.2707508753
 21
141.2349039276
 31
0.0
  0
LINE
  5
1FA
330
1F
100
AcDbEntity
  8
0
  6
Continuous
 62
     7
370
    25
100
AcDbLine
 10
810.8707681845
 20
216.3331316372
 30
0.0
 11
810.8707681845
 21
201.7349035998
 31
0.0
  0
ARC
  5
1FB
330
1F
100
AcDbEntity
  8
0
  6
Continuous
 62
     7
370
    25
100
AcDbCircle
 10
795.8707639884
 20
241.7349033316
 30
0.0
 40
29.49999999999997
100
AcDbArc
 50
300.5622753517
 51
337.4772123225
  0
LINE
  5
1FC
330
1F
100
AcDbEntity
  8
0
  6
Continuous
 62
     7
370
    25
100
AcDbLine
 10
841.7707697104
 20
230.434903275
 30
0.0
 11
823.1207147788
 21
230.434903275
 31
0.0
  0
LINE
  5
1FD
330
1F
100
AcDbEntity
  8
0
  6
Continuous
 62
     7
370
    25
100
AcDbLine
 10
841.7707697104
 20
217.6326134761
 30
0.0
 11
841.7707697104
 21
230.434903275
 31
0.0
  0
LINE
  5
1FE
330
1F
100
AcDbEntity
  8
0
  6
Continuous
 62
     7
370
    25
100
AcDbLine
 10
871.7707411002
 20
217.6326134761
 30
0.0
 11
841.7707697104
 21
217.6326134761
 31
0.0
  0
LINE
  5
1FF
330
1F
100
AcDbEntity
  8
0
  6
Continuous
 62
     7
370
    25
100
AcDbLine
 10
871.7707411002
 20
228.2349032869
 30
0.0
 11
871.7707411002
 21
217.6326134761
 31
0.0
  0
LINE
  5
200
330
1F
100
AcDbEntity
  8
0
  6
Continuous
 62
     7
370
    25
100
AcDbLine
 10
886.7707863997
 20
228.2349032869
 30
0.0
 11
871.7707411002
 21
228.2349032869
 31
0.0
  0
LINE
  5
201
330
1F
100
AcDbEntity
  8
0
  6
Continuous
 62
     7
370
    25
100
AcDbLine
 10
886.7707863997
 20
234.2349024077
 30
0.0
 11
886.7707863997
 21
228.2349032869
 31
0.0
  0
LINE
  5
202
330
1F
100
AcDbEntity
  8
0
  6
Continuous
 62
     7
370
    25
100
AcDbLine
 10
880.2707806777
 20
234.2349024077
 30
0.0
 11
886.7707863997
 21
234.2349024077
 31
0.0
  0
LINE
  5
203
330
1F
100
AcDbEntity
  8
0
  6
Continuous
 62
     7
370
    25
100
AcDbLine
 10
880.2707806777
 20
249.2349032366
 30
0.0
 11
880.2707806777
 21
234.2349024077
 31
0.0
  0
LINE
  5
204
330
1F
100
AcDbEntity
  8
0
  6
Continuous
 62
     7
370
    25
100
AcDbLine
 10
886.7707863997
 20
249.2349032366
 30
0.0
 11
880.2707806777
 21
249.2349032366
 31
0.0
  0
LINE
  5
205
330
1F
100
AcDbEntity
  8
0
  6
Continuous
 62
     7
370
    25
100
AcDbLine
 10
886.7707863997
 20
271.2349028846
 30
0.0
 11
886.7707863997
 21
249.2349032366
 31
0.0
  0
LINE
  5
206
330
1F
100
AcDbEntity
  8
0
  6
Continuous
 62
     7
370
    25
100
AcDbLine
 10
871.7707411002
 20
271.2349028846
 30
0.0
 11
886.7707863997
 21
271.2349028846
 31
0.0
  0
LINE
  5
207
330
1F
100
AcDbEntity
  8
0
  6
Continuous
 62
     7
370
    25
100
AcDbLine
 10
871.7707411002
 20
284.8371931871
 30
0.0
 11
871.7707411002
 21
271.2349028846
 31
0.0
  0
LINE
  5
208
330
1F
100
AcDbEntity
  8
0
  6
Continuous
 62
     7
370
    25
100
AcDbLine
 10
841.7707697104
 20
284.8371931871
 30
0.0
 11
871.7707411002
 21
284.8371931871
 31
0.0
  0
LINE
  5
209
330
1F
100
AcDbEntity
  8
0
  6
Continuous
 62
     7
370
    25
100
AcDbLine
 10
841.7707697104
 20
270.0349030604
 30
0.0
 11
841.7707697104
 21
284.8371931871
 31
0.0
  0
LINE
  5
20A
330
1F
100
AcDbEntity
  8
0
  6
Continuous
 62
     7
370
    25
100
AcDbLine
 10
836.3461509894
 20
270.0349030604
 30
0.0
 11
841.7707697104
 21
270.0349030604
 31
0.0
  0
ARC
  5
20B
330
1F
100
AcDbEntity
  8
0
  6
Continuous
 62
     7
370
    25
100
AcDbCircle
 10
825.3707639884
 20
269.2993772105
 30
0.0
 40
11.00000000000011
100
AcDbArc
 50
3.8340008615
 51
55.0
  0
LINE
  5
20C
330
1F
100
AcDbEntity
  8
0
  6
Continuous
 62
     7
370
    25
100
AcDbLine
 10
817.4528793048
 20
288.2720524033
 30
0.0
 11
831.6800907801
 21
278.3100505878
 31
0.0
  0
ARC
  5
20D
330
1F
100
AcDbEntity
  8
0
  6
Continuous
 62
     7
370
    25
100
AcDbCircle
 10
811.1435488846
 20
279.2613804739
 30
0.0
 40
11.00000000000006
100
AcDbArc
 50
55.0
 51
80.9660573558
  0
LINE
  5
20E
330
1F
100
AcDbEntity
  8
0
  6
Continuous
 62
     7
370
    25
100
AcDbLine
 10
812.8707722377
 20
291.7349034508
 30
0.0
 11
812.8707722377
 21
290.1249298414
 31
0.0
  0
LINE
  5
20F
330
1F
100
AcDbEntity
  8
0
  6
Continuous
 62
     7
370
    25
100
AcDbLine
 10
810.8707681845
 20
291.7349034508
 30
0.0
 11
812.8707722377
 21
291.7349034508
 31
0.0
  0
LINE
  5
210
330
1F
100
AcDbEntity
  8
0
  6
Continuous
 62
     7
370
    25
100
AcDbLine
 10
810.8707681845
 20
301.7349050899
 30
0.0
 11
810.8707681845
 21
291.7349034508
 31
0.0
  0
LINE
  5
211
330
1F
100
AcDbEntity
  8
0
  6
Continuous
 62
     7
370
    25
100
AcDbLine
 10
780.8707669924
 20
301.7349050899
 30
0.0
 11
810.8707681845
 21
301.7349050899
 31
0.0
  0
LINE
  5
212
330
1F
100
AcDbEntity
  8
0
  6
Continuous
 62
     7
370
    25
100
AcDbLine
 10
780.8707669924
 20
291.7349034508
 30
0.0
 11
780.8707669924
 21
301.7349050899
 31
0.0
  0
LINE
  5
213
330
1F
100
AcDbEntity
  8
0
  6
Continuous
 62
     7
370
    25
100
AcDbLine
 10
778.8707629393
 20
291.7349034508
 30
0.0
 11
780.8707669924
 21
291.7349034508
 31
0.0
  0
LINE
  5
214
330
1F
100
AcDbEntity
  8
0
  6
Continuous
 62
     7
370
    25
100
AcDbLine
 10
778.8707629393
 20
265.844030637
 30
0.0
 11
778.8707629393
 21
291.7349034508
 31
0.0
  0
ARC
  5
215
330
1F
100
AcDbEntity
  8
0
  6
Continuous
 62
     7
370
    25
100
AcDbCircle
 10
795.8707639884
 20
241.7349033316
 30
0.0
 40
29.50000000000006
100
AcDbArc
 50
125.1887028463
 51
239.4377246483
  0
LINE
  5
216
330
1F
100
AcDbEntity
  8
0
  6
Continuous
 62
     7
370
    25
100
AcDbLine
 10
780.8707669924
 20
201.7349035998
 30
0.0
 11
780.8707669924
 21
216.3331316372
 31
0.0
  0
LINE
  5
217
330
1F
100
AcDbEntity
  8
0
  6
Continuous
 62
     7
370
    25
100
AcDbLine
 10
810.8707681845
 20
201.7349035998
 30
0.0
 11
780.8707669924
 21
201.7349035998
 31
0.0
  0
CIRCLE
  5
218
330
1F
100
AcDbEntity
  8
0
  6
Continuous
 62
     7
370
    25
100
AcDbCircle
 10
1062.7760794665
 20
251.2349033316
 30
0.0
 40
6.499999999999886
  0
CIRCLE
  5
219
330
1F
100
AcDbEntity
  8
0
  6
Continuous
 62
     7
370
    25
100
AcDbCircle
 10
1057.7760794665
 20
298.6250286675
 30
0.0
 40
6.999999999999943
  0
CIRCLE
  5
21A
330
1F
100
AcDbEntity
  8
0
  6
Continuous
 62
     7
370
    25
100
AcDbCircle
 10
1057.7760794665
 20
203.8447779957
 30
0.0
 40
7.0
  0
ARC
  5
21B
330
1F
100
AcDbEntity
  8
0
  6
Continuous
 62
     7
370
    25
100
AcDbCircle
 10
762.2707639884
 20
186.2349033316
 30
0.0
 40
5.000000000000114
100
AcDbArc
 50
180.0
 51
0.0
  0
LINE
  5
21C
330
1F
100
AcDbEntity
  8
0
  6
Continuous
 62
     7
370
    25
100
AcDbLine
 10
767.270775194
 20
209.2349038978
 30
0.0
 11
767.270775194
 21
186.2349057158
 31
0.0
  0
ARC
  5
21D
330
1F
100
AcDbEntity
  8
0
  6
Continuous
 62
     7
370
    25
100
AcDbCircle
 10
762.2707639884
 20
209.2349033316
 30
0.0
 40
5.000000000000114
100
AcDbArc
 50
0.0
 51
180.0
  0
LINE
  5
21E
330
1F
100
AcDbEntity
  8
0
  6
Continuous
 62
     7
370
    25
100
AcDbLine
 10
757.2707549285
 20
186.2349057158
 30
0.0
 11
757.2707549285
 21
209.2349038978
 31
0.0
  0
ARC
  5
21F
330
1F
100
AcDbEntity
  8
0
  6
Continuous
 62
     7
370
    25
100
AcDbCircle
 10
762.2707639884
 20
276.2349033316
 30
0.0
 40
5.0
100
AcDbArc
 50
180.0
 51
0.0
  0
LINE
  5
220
330
1F
100
AcDbEntity
  8
0
  6
Continuous
 62
     7
370
    25
100
AcDbLine
 10
767.270775194
 20
316.2349009474
 30
0.0
 11
767.270775194
 21
276.2349037041
 31
0.0
  0
ARC
  5
221
330
1F
100
AcDbEntity
  8
0
  6
Continuous
 62
     7
370
    25
100
AcDbCircle
 10
762.2707639884
 20
316.2349033316
 30
0.0
 40
5.0
100
AcDbArc
 50
0.0
 51
180.0
  0
LINE
  5
222
330
1F
100
AcDbEntity
  8
0
  6
Continuous
 62
     7
370
    25
100
AcDbLine
 10
757.2707549285
 20
276.2349037041
 30
0.0
 11
757.2707549285
 21
316.2349009474
 31
0.0
  0
SPLINE
  5
223
330
1F
100
AcDbEntity
  8
0
  6
Continuous
 62
     7
370
    25
100
AcDbSpline
210
0.0
220
0.0
230
1.0
 70
     8
 71
     3
 72
    11
 73
     7
 74
     0
 42
0.000000001
 43
0.00000001
 40
0.0
 40
0.0
 40
0.0
 40
0.0
 40
0.2800562135892604
 40
0.5600435204008417
 40
0.7801413978003866
 40
1.0
 40
1.0
 40
1.0
 40
1.0
 10
909.7707883070636
 20
272.9152677168402
 30
0.0
 10
909.6407993790335
 20
274.6404425743054
 30
0.0
 10
909.3808535062602
 20
278.0903678164529
 30
0.0
 10
907.4430920529318
 20
282.5554021171502
 30
0.0
 10
904.8588000955176
 20
286.1920123693932
 30
0.0
 10
902.741278594096
 20
287.8889898039887
 30
0.0
 10
901.6830936621357
 20
288.7370170613083
 30
0.0
  0
LINE
  5
224
330
1F
100
AcDbEntity
  8
0
  6
Continuous
 62
     7
370
    25
100
AcDbLine
 10
909.7707883071
 20
229.5544607152
 30
0.0
 11
909.7707883071
 21
272.9152677168
 31
0.0
  0
SPLINE
  5
225
330
1F
100
AcDbEntity
  8
0
  6
Continuous
 62
     7
370
    25
100
AcDbSpline
210
0.0
220
0.0
230
1.0
 70
     8
 71
     3
 72
    12
 73
     8
 74
     0
 42
0.000000001
 43
0.00000001
 40
0.0
 40
0.0
 40
0.0
 40
0.0
 40
0.1864378370020358
 40
0.3730837677462173
 40
0.559888600817648
 40
0.7798427507458675
 40
1.0
 40
1.0
 40
1.0
 40
1.0
 10
901.6809478949237
 20
213.7312436064038
 30
0.0
 10
902.5840777407171
 20
214.4415475823285
 30
0.0
 10
904.3913454662538
 20
215.8629483443434
 30
0.0
 10
906.5529696922015
 20
218.5803952144813
 30
0.0
 10
908.3053268450082
 20
221.789648927806
 30
0.0
 10
909.5288747053837
 20
225.4897942096194
 30
0.0
 10
909.6901256355447
 20
228.1991551148186
 30
0.0
 10
909.7707883070636
 20
229.5544607152495
 30
0.0
  0
SPLINE
  5
226
330
1F
100
AcDbEntity
  8
0
  6
Continuous
 62
     7
370
    25
100
AcDbSpline
210
0.0
220
0.0
230
1.0
 70
     8
 71
     3
 72
    11
 73
     7
 74
     0
 42
0.000000001
 43
0.00000001
 40
0.0
 40
0.0
 40
0.0
 40
0.0
 40
0.2800312249529083
 40
0.5600489386977413
 40
0.7800310545569348
 40
1.0
 40
1.0
 40
1.0
 40
1.0
 10
791.1116794298816
 20
138.4725043137822
 30
0.0
 10
801.4373688170405
 20
145.490798216334
 30
0.0
 10
822.0882493878529
 20
159.527047396239
 30
0.0
 10
850.9673356116032
 20
178.9035095384651
 30
0.0
 10
877.5366872406777
 20
196.9166523061795
 30
0.0
 10
893.6330216306324
 20
208.1264916992626
 30
0.0
 10
901.6809478949237
 20
213.7312436064038
 30
0.0
  0
SPLINE
  5
227
330
1F
100
AcDbEntity
  8
0
  6
Continuous
 62
     7
370
    25
100
AcDbSpline
210
0.0
220
0.0
230
1.0
 70
     8
 71
     3
 72
    10
 73
     6
 74
     0
 42
0.000000001
 43
0.00000001
 40
0.0
 40
0.0
 40
0.0
 40
0.0
 40
0.2805463798018259
 40
0.5595413038450735
 40
1.0
 40
1.0
 40
1.0
 40
1.0
 10
785.4716793249775
 20
136.7339187820706
 30
0.0
 10
786.0315327594651
 20
136.7576700013628
 30
0.0
 10
787.1481435705424
 20
136.8050410928027
 30
0.0
 10
789.1009932072621
 20
137.30526128408
 30
0.0
 10
790.3481525498703
 20
138.0292618930318
 30
0.0
 10
791.1116794298816
 20
138.4725043137822
 30
0.0
  0
ARC
  5
228
330
1F
100
AcDbEntity
  8
0
  6
Continuous
 62
     7
370
    25
100
AcDbCircle
 10
785.2707639884
 20
116.2349033316
 30
0.0
 40
20.49999999999997
100
AcDbArc
 50
89.4384300628
 51
337.5519392912
  0
SPLINE
  5
229
330
1F
100
AcDbEntity
  8
0
  6
Continuous
 62
     7
370
    25
100
AcDbSpline
210
0.0
220
0.0
230
1.0
 70
     8
 71
     3
 72
    10
 73
     6
 74
     0
 42
0.000000001
 43
0.00000001
 40
0.0
 40
0.0
 40
0.0
 40
0.0
 40
0.5594639925528263
 40
0.7795050320580635
 40
0.9999999999999999
 40
0.9999999999999999
 40
0.9999999999999999
 40
0.9999999999999999
 10
808.0222622107196
 20
112.9187488516125
 30
0.0
 10
807.133543962602
 20
112.2285269407862
 30
0.0
 10
805.8952867097474
 20
111.2668360010873
 30
0.0
 10
804.7708939659203
 20
109.6029711662586
 30
0.0
 10
804.4020244907017
 20
108.8059739123619
 30
0.0
 10
804.2173997114826
 20
108.4070646723065
 30
0.0
  0
SPLINE
  5
22A
330
1F
100
AcDbEntity
  8
0
  6
Continuous
 62
     7
370
    25
100
AcDbSpline
210
0.0
220
0.0
230
1.0
 70
     8
 71
     3
 72
    10
 73
     6
 74
     0
 42
0.000000001
 43
0.00000001
 40
0.0
 40
0.0
 40
0.0
 40
0.0
 40
0.2799706777167699
 40
0.5599574735814582
 40
1.0
 40
1.0
 40
1.0
 40
1.0
 10
905.9681311796833
 20
176.1383482774052
 30
0.0
 10
896.7949225598459
 20
170.2890166564548
 30
0.0
 10
878.4479772108184
 20
158.5900166636018
 30
0.0
 10
845.892031911174
 20
137.3731087541924
 30
0.0
 10
822.3871562063158
 20
122.1948625039885
 30
0.0
 10
808.0222622107196
 20
112.9187488516125
 30
0.0
  0
SPLINE
  5
22B
330
1F
100
AcDbEntity
  8
0
  6
Continuous
 62
     7
370
    25
100
AcDbSpline
210
0.0
220
0.0
230
1.0
 70
     8
 71
     3
 72
    14
 73
    10
 74
     0
 42
0.000000001
 43
0.00000001
 40
0.0
 40
0.0
 40
0.0
 40
0.0
 40
0.2504738313875505
 40
0.3764751471648778
 40
0.5016864370806472
 40
0.6265433709171884
 40
0.7505627943090042
 40
0.874962465630732
 40
0.9999999999999999
 40
0.9999999999999999
 40
0.9999999999999999
 40
0.9999999999999999
 10
909.7708479117084
 20
173.9404046495709
 30
0.0
 10
909.7055198803681
 20
174.3920639143448
 30
0.0
 10
909.6073284642165
 20
175.0709311925438
 30
0.0
 10
909.0515732106899
 20
175.7945913043459
 30
0.0
 10
908.5229324898914
 20
176.2151028781549
 30
0.0
 10
907.8974609333551
 20
176.4708206014266
 30
0.0
 10
907.2313306814286
 20
176.5522694099714
 30
0.0
 10
906.5607956045139
 20
176.4523149019698
 30
0.0
 10
906.1660224937336
 20
176.2431820843624
 30
0.0
 10
905.9681311796833
 20
176.1383482774052
 30
0.0
  0
LINE
  5
22C
330
1F
100
AcDbEntity
  8
0
  6
Continuous
 62
     7
370
    25
100
AcDbLine
 10
909.7707287024
 20
166.7349034508
 30
0.0
 11
909.7708479117
 21
173.9404046496
 31
0.0
  0
SPLINE
  5
22D
330
1F
100
AcDbEntity
  8
0
  6
Continuous
 62
     7
370
    25
100
AcDbSpline
210
0.0
220
0.0
230
1.0
 70
     8
 71
     3
 72
    11
 73
     7
 74
     0
 42
0.000000001
 43
0.00000001
 40
0.0
 40
0.0
 40
0.0
 40
0.0
 40
0.2257026490267027
 40
0.4879583114477226
 40
0.7274704929597238
 40
1.0
 40
1.0
 40
1.0
 40
1.0
 10
914.4707933615375
 20
150.8281969984326
 30
0.0
 10
913.7134087714726
 20
151.8566484009192
 30
0.0
 10
912.0759795818802
 20
154.0801110493528
 30
0.0
 10
910.8399021929512
 20
158.0430263280567
 30
0.0
 10
910.0382601195894
 20
162.3231107753296
 30
0.0
 10
909.8636587075589
 20
165.2024183305674
 30
0.0
 10
909.7707287024189
 20
166.7349034508023
 30
0.0
  0
LINE
  5
22E
330
1F
100
AcDbEntity
  8
0
  6
Continuous
 62
     7
370
    25
100
AcDbLine
 10
914.4707933615
 20
137.1349015792
 30
0.0
 11
914.4707933615
 21
150.8281969984
 31
0.0
  0
LINE
  5
22F
330
1F
100
AcDbEntity
  8
0
  6
Continuous
 62
     7
370
    25
100
AcDbLine
 10
910.2707520674
 20
137.1349015792
 30
0.0
 11
914.4707933615
 21
137.1349015792
 31
0.0
  0
SPLINE
  5
230
330
1F
100
AcDbEntity
  8
0
  6
Continuous
 62
     7
370
    25
100
AcDbSpline
210
0.0
220
0.0
230
1.0
 70
     8
 71
     3
 72
    15
 73
    11
 74
     0
 42
0.000000001
 43
0.00000001
 40
0.0
 40
0.0
 40
0.0
 40
0.0
 40
0.0988069408857153
 40
0.1963073998141737
 40
0.2978926097909264
 40
0.4083470995757149
 40
0.5314314098779614
 40
0.6698794266222764
 40
0.8256173272033355
 40
1.0
 40
1.0
 40
1.0
 40
1.0
 10
919.7707787703205
 20
118.6349087913785
 30
0.0
 10
919.0628670498875
 20
118.8477687856598
 30
0.0
 10
917.6564040231966
 20
119.2706742174772
 30
0.0
 10
915.7882393359381
 20
120.5238006971543
 30
0.0
 10
914.1917457377758
 20
122.2063954160211
 30
0.0
 10
912.8750368713878
 20
124.3446057675514
 30
0.0
 10
911.8246832040223
 20
126.9179748031407
 30
0.0
 10
911.0374124204293
 20
129.9304641440796
 30
0.0
 10
910.4912524010492
 20
133.3828457190538
 30
0.0
 10
910.3469684997797
 20
135.8379950987547
 30
0.0
 10
910.2707520674396
 20
137.1349015792164
 30
0.0
  0
ARC
  5
231
330
1F
100
AcDbEntity
  8
0
  6
Continuous
 62
     7
370
    25
100
AcDbCircle
 10
932.7707647523
 20
174.2182408121
 30
0.0
 40
57.08333754556254
100
AcDbArc
 50
256.836110891
 51
262.2885756544
  0
ARC
  5
232
330
1F
100
AcDbEntity
  8
0
  6
Continuous
 62
     7
370
    25
100
AcDbCircle
 10
930.1111068986
 20
117.6511384743
 30
0.0
 40
5.000000000000114
100
AcDbArc
 50
180.0
 51
270.0
  0
LINE
  5
233
330
1F
100
AcDbEntity
  8
0
  6
Continuous
 62
     7
370
    25
100
AcDbLine
 10
980.4304257582
 20
112.6511388977
 30
0.0
 11
930.1111117552
 21
112.6511388977
 31
0.0
  0
ARC
  5
234
330
1F
100
AcDbEntity
  8
0
  6
Continuous
 62
     7
370
    25
100
AcDbCircle
 10
980.4304210781
 20
117.6511384743
 30
0.0
 40
5.000000000000014
100
AcDbArc
 50
270.0
 51
0.0
  0
ARC
  5
235
330
1F
100
AcDbEntity
  8
0
  6
Continuous
 62
     7
370
    25
100
AcDbCircle
 10
977.7707632244
 20
174.2182408121
 30
0.0
 40
57.08333754556248
100
AcDbArc
 50
277.7114243456
 51
283.163889109
  0
SPLINE
  5
236
330
1F
100
AcDbEntity
  8
0
  6
Continuous
 62
     7
370
    25
100
AcDbSpline
210
0.0
220
0.0
230
1.0
 70
     8
 71
     3
 72
    15
 73
    11
 74
     0
 42
0.000000001
 43
0.00000001
 40
0.0
 40
0.0
 40
0.0
 40
0.0
 40
0.174382746692204
 40
0.3301207132679859
 40
0.4685687886803482
 40
0.5916531511401937
 40
0.7021091095683791
 40
0.803692516999573
 40
0.9011930172443439
 40
1.0
 40
1.0
 40
1.0
 40
1.0
 10
1000.270785446041
 20
137.1349015792164
 30
0.0
 10
1000.194568796962
 20
135.8379952484525
 30
0.0
 10
1000.050284485388
 20
133.3828461521418
 30
0.0
 10
999.5041271911047
 20
129.9304626949885
 30
0.0
 10
998.7168477067461
 20
126.9179793635252
 30
0.0
 10
997.6665174063013
 20
124.3445815797372
 30
0.0
 10
996.3497204696463
 20
122.2064354495922
 30
0.0
 10
994.7533015166529
 20
120.5237797667429
 30
0.0
 10
992.8851297684672
 20
119.2706775033961
 30
0.0
 10
991.4786692174949
 20
118.8477698858151
 30
0.0
 10
990.7707587431598
 20
118.6349087913785
 30
0.0
  0
LINE
  5
237
330
1F
100
AcDbEntity
  8
0
  6
Continuous
 62
     7
370
    25
100
AcDbLine
 10
996.0707441519
 20
137.1349015792
 30
0.0
 11
1000.270785446
 21
137.1349015792
 31
0.0
  0
LINE
  5
238
330
1F
100
AcDbEntity
  8
0
  6
Continuous
 62
     7
370
    25
100
AcDbLine
 10
996.0707441519
 20
150.8281969984
 30
0.0
 11
996.0707441519
 21
137.1349015792
 31
0.0
  0
SPLINE
  5
239
330
1F
100
AcDbEntity
  8
0
  6
Continuous
 62
     7
370
    25
100
AcDbSpline
210
0.0
220
0.0
230
1.0
 70
     8
 71
     3
 72
    11
 73
     7
 74
     0
 42
0.000000001
 43
0.00000001
 40
0.0
 40
0.0
 40
0.0
 40
0.0
 40
0.3408089687196688
 40
0.6294482911760471
 40
0.8250540119524503
 40
1.0
 40
1.0
 40
1.0
 40
1.0
 10
1000.770749206417
 20
166.7349034508023
 30
0.0
 10
1000.645311615658
 20
164.8180673762669
 30
0.0
 10
1000.413637908688
 20
161.2778166718514
 30
0.0
 10
999.3529657258096
 20
156.7418139464327
 30
0.0
 10
997.9546980241863
 20
153.2677035598387
 30
0.0
 10
996.674945001013
 20
151.6105685614681
 30
0.0
 10
996.0707441519428
 20
150.8281969984326
 30
0.0
  0
LINE
  5
23A
330
1F
100
AcDbEntity
  8
0
  6
Continuous
 62
     7
370
    25
100
AcDbLine
 10
1000.7706896018
 20
173.9404046496
 30
0.0
 11
1000.7707492064
 21
166.7349034508
 31
0.0
  0
SPLINE
  5
23B
330
1F
100
AcDbEntity
  8
0
  6
Continuous
 62
     7
370
    25
100
AcDbSpline
210
0.0
220
0.0
230
1.0
 70
     8
 71
     3
 72
    14
 73
    10
 74
     0
 42
0.000000001
 43
0.00000001
 40
0.0
 40
0.0
 40
0.0
 40
0.0
 40
0.1249543533461042
 40
0.2494220418622525
 40
0.3734337762753869
 40
0.4983320220699351
 40
0.6238215104688256
 40
0.7494796772222369
 40
1.0
 40
1.0
 40
1.0
 40
1.0
 10
1004.573406333797
 20
176.1383482774052
 30
0.0
 10
1004.375670970639
 20
176.2431193597315
 30
0.0
 10
1003.980970372329
 20
176.4522534681653
 30
0.0
 10
1003.310501546401
 20
176.5522299975853
 30
0.0
 10
1002.644331417895
 20
176.4710112037797
 30
0.0
 10
1002.017863961927
 20
176.2155166509095
 30
0.0
 10
1001.491638802316
 20
175.7923481624579
 30
0.0
 10
1000.932934897858
 20
175.0713909238373
 30
0.0
 10
1000.835546504556
 20
174.3925118515018
 30
0.0
 10
1000.770689601772
 20
173.9404046495709
 30
0.0
  0
SPLINE
  5
23C
330
1F
100
AcDbEntity
  8
0
  6
Continuous
 62
     7
370
    25
100
AcDbSpline
210
0.0
220
0.0
230
1.0
 70
     8
 71
     3
 72
     9
 73
     5
 74
     0
 42
0.000000001
 43
0.00000001
 40
0.0
 40
0.0
 40
0.0
 40
0.0
 40
0.5600425397296347
 40
1.0
 40
1.0
 40
1.0
 40
1.0
 10
1102.519275302761
 20
112.9187488516125
 30
0.0
 10
1084.263820622762
 20
124.7658398478242
 30
0.0
 10
1051.667270566383
 20
145.9197525522609
 30
0.0
 10
1018.962232027436
 20
166.9055084227645
 30
0.0
 10
1004.573406333797
 20
176.1383482774052
 30
0.0
  0
SPLINE
  5
23D
330
1F
100
AcDbEntity
  8
0
  6
Continuous
 62
     7
370
    25
100
AcDbSpline
210
0.0
220
0.0
230
1.0
 70
     8
 71
     3
 72
    10
 73
     6
 74
     0
 42
0.000000001
 43
0.00000001
 40
0.0
 40
0.0
 40
0.0
 40
0.0
 40
0.2805481262860586
 40
0.5595427485044989
 40
1.0
 40
1.0
 40
1.0
 40
1.0
 10
1106.324137801998
 20
108.4070646723065
 30
0.0
 10
1106.083442905319
 20
108.9130989758927
 30
0.0
 10
1105.6033859332
 20
109.9223654743525
 30
0.0
 10
1104.379572027885
 20
111.5242769385107
 30
0.0
 10
1103.225693732193
 20
112.3892200697593
 30
0.0
 10
1102.519275302761
 20
112.9187488516125
 30
0.0
  0
ARC
  5
23E
330
1F
100
AcDbEntity
  8
0
  6
Continuous
 62
     7
370
    25
100
AcDbCircle
 10
1125.2707639884
 20
116.2349033316
 30
0.0
 40
20.50000000000026
100
AcDbArc
 50
202.4480607153
 51
90.5615699437
  0
SPLINE
  5
23F
330
1F
100
AcDbEntity
  8
0
  6
Continuous
 62
     7
370
    25
100
AcDbSpline
210
0.0
220
0.0
230
1.0
 70
     8
 71
     3
 72
    10
 73
     6
 74
     0
 42
0.000000001
 43
0.00000001
 40
0.0
 40
0.0
 40
0.0
 40
0.0
 40
0.5594632111966811
 40
0.7795038784492135
 40
1.0
 40
1.0
 40
1.0
 40
1.0
 10
1119.429828281276
 20
138.4725043137822
 30
0.0
 10
1120.412531267045
 20
137.9243033692856
 30
0.0
 10
1121.781737987772
 20
137.1604912832495
 30
0.0
 10
1123.752737392116
 20
136.7759251505618
 30
0.0
 10
1124.630515422556
 20
136.7479305524192
 30
0.0
 10
1125.069858188503
 20
136.7339187820706
 30
0.0
  0
SPLINE
  5
240
330
1F
100
AcDbEntity
  8
0
  6
Continuous
 62
     7
370
    25
100
AcDbSpline
210
0.0
220
0.0
230
1.0
 70
     8
 71
     3
 72
    10
 73
     6
 74
     0
 42
0.000000001
 43
0.00000001
 40
0.0
 40
0.0
 40
0.0
 40
0.0
 40
0.2799635155573936
 40
0.5599510577669295
 40
1.0
 40
1.0
 40
1.0
 40
1.0
 10
1008.860589618557
 20
213.7312436064038
 30
0.0
 10
1019.110668726934
 20
206.6080385594883
 30
0.0
 10
1039.611706612186
 20
192.3610171475382
 30
0.0
 10
1076.606982611177
 20
167.4776755725853
 30
0.0
 10
1103.1860694104
 20
149.4748793443011
 30
0.0
 10
1119.429828281276
 20
138.4725043137822
 30
0.0
  0
SPLINE
  5
241
330
1F
100
AcDbEntity
  8
0
  6
Continuous
 62
     7
370
    25
100
AcDbSpline
210
0.0
220
0.0
230
1.0
 70
     8
 71
     3
 72
    11
 73
     7
 74
     0
 42
0.000000001
 43
0.00000001
 40
0.0
 40
0.0
 40
0.0
 40
0.0
 40
0.2800542729536385
 40
0.560040948210034
 40
0.7801401450690227
 40
1.0
 40
1.0
 40
1.0
 40
1.0
 10
1000.770749206417
 20
229.5544607152495
 30
0.0
 10
1000.90083398106
 20
227.8290792979074
 30
0.0
 10
1001.160972131322
 20
224.3787329246807
 30
0.0
 10
1003.099405017763
 20
219.9132941509071
 30
0.0
 10
1005.684362293199
 20
216.2764605329198
 30
0.0
 10
1007.802231223749
 20
214.5793414989189
 30
0.0
 10
1008.860589618557
 20
213.7312436064038
 30
0.0
  0
LINE
  5
242
330
1F
100
AcDbEntity
  8
0
  6
Continuous
 62
     7
370
    25
100
AcDbLine
 10
1000.7707492064
 20
272.9152677168
 30
0.0
 11
1000.7707492064
 21
229.5544607152
 31
0.0
  0
SPLINE
  5
243
330
1F
100
AcDbEntity
  8
0
  6
Continuous
 62
     7
370
    25
100
AcDbSpline
210
0.0
220
0.0
230
1.0
 70
     8
 71
     3
 72
    12
 73
     8
 74
     0
 42
0.000000001
 43
0.00000001
 40
0.0
 40
0.0
 40
0.0
 40
0.0
 40
0.1864380038263619
 40
0.3730820423710685
 40
0.5598853370177209
 40
0.7798431329072487
 40
1.0
 40
1.0
 40
1.0
 40
1.0
 10
1008.858443851345
 20
288.737013336018
 30
0.0
 10
1007.955443202032
 20
288.0267769317275
 30
0.0
 10
1006.148443987314
 20
286.6055192329711
 30
0.0
 10
1003.987397381617
 20
283.8881979248482
 30
0.0
 10
1002.235499001874
 20
280.6792286893807
 30
0.0
 10
1001.012496187128
 20
276.9794267278926
 30
0.0
 10
1000.851355828811
 20
274.2703958338111
 30
0.0
 10
1000.770749206417
 20
272.9152677168402
 30
0.0
  0
SPLINE
  5
244
330
1F
100
AcDbEntity
  8
0
  6
Continuous
 62
     7
370
    25
100
AcDbSpline
210
0.0
220
0.0
230
1.0
 70
     8
 71
     3
 72
    11
 73
     7
 74
     0
 42
0.000000001
 43
0.00000001
 40
0.0
 40
0.0
 40
0.0
 40
0.0
 40
0.2800309907939391
 40
0.560048685893268
 40
0.7800312473475733
 40
1.0
 40
1.0
 40
1.0
 40
1.0
 10
1119.429828281276
 20
363.9973023494038
 30
0.0
 10
1109.10394967281
 20
356.9788700670817
 30
0.0
 10
1088.452682722073
 20
342.9423387331702
 30
0.0
 10
1059.573045997598
 20
323.5654585458005
 30
0.0
 10
1033.003131232579
 20
305.5520061184606
 30
0.0
 10
1016.90650456954
 20
294.3418936458077
 30
0.0
 10
1008.858443851345
 20
288.737013336018
 30
0.0
  0
SPLINE
  5
245
330
1F
100
AcDbEntity
  8
0
  6
Continuous
 62
     7
370
    25
100
AcDbSpline
210
0.0
220
0.0
230
1.0
 70
     8
 71
     3
 72
    10
 73
     6
 74
     0
 42
0.000000001
 43
0.00000001
 40
0.0
 40
0.0
 40
0.0
 40
0.0
 40
0.2805499526613736
 40
0.5595434911953262
 40
1.0
 40
1.0
 40
1.0
 40
1.0
 10
1125.069858188503
 20
365.7358878811154
 30
0.0
 10
1124.509994752033
 20
365.7121373715327
 30
0.0
 10
1123.39337384776
 20
365.6647681136752
 30
0.0
 10
1121.440514500043
 20
365.1645453540698
 30
0.0
 10
1120.193355159824
 20
364.4405447606471
 30
0.0
 10
1119.429828281276
 20
363.9973023494038
 30
0.0
  0
ARC
  5
246
330
1F
100
AcDbEntity
  8
0
  6
Continuous
 62
     7
370
    25
100
AcDbCircle
 10
1125.2707639884
 20
386.2349033316
 30
0.0
 40
20.50000000000016
100
AcDbArc
 50
269.4384300628
 51
157.5519392912
  0
SPLINE
  5
247
330
1F
100
AcDbEntity
  8
0
  6
Continuous
 62
     7
370
    25
100
AcDbSpline
210
0.0
220
0.0
230
1.0
 70
     8
 71
     3
 72
    10
 73
     6
 74
     0
 42
0.000000001
 43
0.00000001
 40
0.0
 40
0.0
 40
0.0
 40
0.0
 40
0.5594639925528263
 40
0.7795050320580635
 40
0.9999999999999999
 40
0.9999999999999999
 40
0.9999999999999999
 40
0.9999999999999999
 10
1102.519275302761
 20
389.5510578115735
 30
0.0
 10
1103.407993550878
 20
390.2412797223997
 30
0.0
 10
1104.646250803733
 20
391.2029706620987
 30
0.0
 10
1105.77064354756
 20
392.8668354969274
 30
0.0
 10
1106.139513022778
 20
393.663832750824
 30
0.0
 10
1106.324137801998
 20
394.0627419908795
 30
0.0
  0
SPLINE
  5
248
330
1F
100
AcDbEntity
  8
0
  6
Continuous
 62
     7
370
    25
100
AcDbSpline
210
0.0
220
0.0
230
1.0
 70
     8
 71
     3
 72
    10
 73
     6
 74
     0
 42
0.000000001
 43
0.00000001
 40
0.0
 40
0.0
 40
0.0
 40
0.0
 40
0.2799703866786409
 40
0.5599577506301038
 40
1.0
 40
1.0
 40
1.0
 40
1.0
 10
1004.573048705928
 20
326.3312199672017
 30
0.0
 10
1013.746273586626
 20
332.1805795260324
 30
0.0
 10
1032.093279608072
 20
343.8796533461117
 30
0.0
 10
1064.649393821692
 20
365.0965638781076
 30
0.0
 10
1088.154348123473
 20
380.2748992702222
 30
0.0
 10
1102.519275302761
 20
389.5510578115735
 30
0.0
  0
SPLINE
  5
249
330
1F
100
AcDbEntity
  8
0
  6
Continuous
 62
     7
370
    25
100
AcDbSpline
210
0.0
220
0.0
230
1.0
 70
     8
 71
     3
 72
    14
 73
    10
 74
     0
 42
0.000000001
 43
0.00000001
 40
0.0
 40
0.0
 40
0.0
 40
0.0
 40
0.2504491147691022
 40
0.3764544016005304
 40
0.5016678952321861
 40
0.6265369994333596
 40
0.7505623623061078
 40
0.8749627570846654
 40
1.0
 40
1.0
 40
1.0
 40
1.0
 10
1000.770570392482
 20
328.528701659039
 30
0.0
 10
1000.835945089898
 20
328.0771872569252
 30
0.0
 10
1000.93421092972
 20
327.3985081399378
 30
0.0
 10
1001.490049889328
 20
326.6752061910061
 30
0.0
 10
1002.018623002148
 20
326.2548071387306
 30
0.0
 10
1002.644014667718
 20
325.9991944121087
 30
0.0
 10
1003.310012990846
 20
325.9176866764026
 30
0.0
 10
1003.98042710472
 20
326.0174897093971
 30
0.0
 10
1004.375172226239
 20
326.2264653668632
 30
0.0
 10
1004.573048705928
 20
326.3312199672017
 30
0.0
  0
LINE
  5
24A
330
1F
100
AcDbEntity
  8
0
  6
Continuous
 62
     7
370
    25
100
AcDbLine
 10
1000.7707492064
 20
329.2450749834
 30
0.0
 11
1000.7705703925
 21
328.528701659
 31
0.0
  0
SPLINE
  5
24B
330
1F
100
AcDbEntity
  8
0
  6
Continuous
 62
     7
370
    25
100
AcDbSpline
210
0.0
220
0.0
230
1.0
 70
     8
 71
     3
 72
    13
 73
     9
 74
     0
 42
0.000000001
 43
0.00000001
 40
0.0
 40
0.0
 40
0.0
 40
0.0
 40
0.1499379345759784
 40
0.3023787019076903
 40
0.4724055241061655
 40
0.6258432958130722
 40
0.8009344670677156
 40
1.0
 40
1.0
 40
1.0
 40
1.0
 10
990.8846036146808
 20
348.221763368443
 30
0.0
 10
991.9850029848285
 20
347.8510610686112
 30
0.0
 10
994.2041700959825
 20
347.1034685361787
 30
0.0
 10
996.8561874502079
 20
344.4860556033232
 30
0.0
 10
998.6263642473042
 20
341.2698025727759
 30
0.0
 10
999.7777557856629
 20
337.6141858433469
 30
0.0
 10
1000.501504703301
 20
333.6292465361497
 30
0.0
 10
1000.67724742468
 20
330.7675864808833
 30
0.0
 10
1000.770749206417
 20
329.2450749834332
 30
0.0
  0
ARC
  5
24C
330
1F
100
AcDbEntity
  8
0
  6
Continuous
 62
     7
370
    25
100
AcDbCircle
 10
977.7707639884
 20
292.1515699983
 30
0.0
 40
57.58333333333314
100
AcDbArc
 50
76.8361106896
 51
90.0
  0
LINE
  5
24D
330
1F
100
AcDbEntity
  8
0
  6
Continuous
 62
     7
370
    25
100
AcDbLine
 10
932.7707902144
 20
349.7349017819
 30
0.0
 11
977.7707472991
 21
349.7349017819
 31
0.0
  0
ARC
  5
24E
330
1F
100
AcDbEntity
  8
0
  6
Continuous
 62
     7
370
    25
100
AcDbCircle
 10
932.7707639884
 20
292.1515699983
 30
0.0
 40
57.58333333333314
100
AcDbArc
 50
90.0
 51
103.1638893104
  0
SPLINE
  5
24F
330
1F
100
AcDbEntity
  8
0
  6
Continuous
 62
     7
370
    25
100
AcDbSpline
210
0.0
220
0.0
230
1.0
 70
     8
 71
     3
 72
    13
 73
     9
 74
     0
 42
0.000000001
 43
0.00000001
 40
0.0
 40
0.0
 40
0.0
 40
0.0
 40
0.2489189358914412
 40
0.4599590114162075
 40
0.6391063724040048
 40
0.7640087039491582
 40
0.8817029430799106
 40
1.0
 40
1.0
 40
1.0
 40
1.0
 10
909.7707883070636
 20
329.2450749834332
 30
0.0
 10
909.8969295249983
 20
331.1502353227849
 30
0.0
 10
910.1300166129386
 20
334.6706411253381
 30
0.0
 10
911.2228099932431
 20
339.4655211129683
 30
0.0
 10
912.8123476777773
 20
343.1210823830849
 30
0.0
 10
914.8181919043571
 20
345.6842965372655
 30
0.0
 10
917.0492505280235
 20
347.4057461268218
 30
0.0
 10
918.7861874242607
 20
347.9492948064077
 30
0.0
 10
919.6568742941547
 20
348.221763368443
 30
0.0
  0
LINE
  5
250
330
1F
100
AcDbEntity
  8
0
  6
Continuous
 62
     7
370
    25
100
AcDbLine
 10
909.770967121
 20
328.528701659
 30
0.0
 11
909.7707883071
 21
329.2450749834
 31
0.0
  0
SPLINE
  5
251
330
1F
100
AcDbEntity
  8
0
  6
Continuous
 62
     7
370
    25
100
AcDbSpline
210
0.0
220
0.0
230
1.0
 70
     8
 71
     3
 72
    14
 73
    10
 74
     0
 42
0.000000001
 43
0.00000001
 40
0.0
 40
0.0
 40
0.0
 40
0.0
 40
0.1249547585531725
 40
0.2494241183451347
 40
0.3734319235096778
 40
0.4983420037312046
 40
0.6238406087732574
 40
0.7495001302322152
 40
1.0
 40
1.0
 40
1.0
 40
1.0
 10
905.9684888075519
 20
326.3312199672017
 30
0.0
 10
906.1662094182724
 20
326.2265299589989
 30
0.0
 10
906.5608825750106
 20
326.0175566209854
 30
0.0
 10
907.2312106622342
 20
325.9177067388442
 30
0.0
 10
907.8972260980635
 20
325.9990348441918
 30
0.0
 10
908.5235925451069
 20
326.2544106638601
 30
0.0
 10
909.0498302534172
 20
326.6773895993375
 30
0.0
 10
909.608496855949
 20
327.3980933154355
 30
0.0
 10
909.7060214914204
 20
328.0767539093455
 30
0.0
 10
909.770967120998
 20
328.528701659039
 30
0.0
  0
SPLINE
  5
252
330
1F
100
AcDbEntity
  8
0
  6
Continuous
 62
     7
370
    25
100
AcDbSpline
210
0.0
220
0.0
230
1.0
 70
     8
 71
     3
 72
     9
 73
     5
 74
     0
 42
0.000000001
 43
0.00000001
 40
0.0
 40
0.0
 40
0.0
 40
0.0
 40
0.5600064115587575
 40
1.0
 40
1.0
 40
1.0
 40
1.0
 10
866.5156975935627
 20
351.6655930836949
 30
0.0
 10
873.8610973514499
 20
346.9065251337811
 30
0.0
 10
886.9777324582542
 20
338.4082868070677
 30
0.0
 10
900.1658164203881
 20
330.0213974925541
 30
0.0
 10
905.9684888075519
 20
326.3312199672017
 30
0.0
  0
ARC
  5
253
330
1F
100
AcDbEntity
  8
0
  6
Continuous
 62
     7
370
    25
100
AcDbCircle
 10
869.2367682891
 20
355.8603345496
 30
0.0
 40
5.00000000000002
100
AcDbArc
 50
176.3759218132
 51
237.0291738089
  0
ARC
  5
254
330
1F
100
AcDbEntity
  8
0
  6
Continuous
 62
     7
370
    25
100
AcDbCircle
 10
852.2707639884
 20
356.9349033316
 30
0.0
 40
12.00000000000006
100
AcDbArc
 50
356.3759218132
 51
90.0
  0
LINE
  5
255
330
1F
100
AcDbEntity
  8
0
  6
Continuous
 62
     7
370
    25
100
AcDbLine
 10
841.4319769095
 20
368.9349064191
 30
0.0
 11
852.2707835387
 21
368.9349064191
 31
0.0
  0
ARC
  5
256
330
1F
100
AcDbEntity
  8
0
  6
Continuous
 62
     7
370
    25
100
AcDbCircle
 10
841.431982428
 20
373.9349033316
 30
0.0
 40
5.000000000000031
100
AcDbArc
 50
236.9840478685
 51
270.0
  0
SPLINE
  5
257
330
1F
100
AcDbEntity
  8
0
  6
Continuous
 62
     7
370
    25
100
AcDbSpline
210
0.0
220
0.0
230
1.0
 70
     8
 71
     3
 72
     9
 73
     5
 74
     0
 42
0.000000001
 43
0.00000001
 40
0.0
 40
0.0
 40
0.0
 40
0.0
 40
0.5600006185949867
 40
1.0
 40
1.0
 40
1.0
 40
1.0
 10
834.5484749029804
 20
372.4435487349782
 30
0.0
 10
835.324939224184
 20
371.9394531197815
 30
0.0
 10
836.7114811232835
 20
371.0392833727168
 30
0.0
 10
838.0976944184108
 20
370.1386076833909
 30
0.0
 10
838.7076274107624
 20
369.742310937241
 30
0.0
  0
ARC
  5
258
330
1F
100
AcDbEntity
  8
0
  6
Continuous
 62
     7
370
    25
100
AcDbCircle
 10
837.2707639884
 20
376.6374933061
 30
0.0
 40
5.0
100
AcDbArc
 50
180.0
 51
237.0124169615
  0
LINE
  5
259
330
1F
100
AcDbEntity
  8
0
  6
Continuous
 62
     7
370
    25
100
AcDbLine
 10
832.2707728099
 20
401.9349062403
 30
0.0
 11
832.2707728099
 21
376.6374880036
 31
0.0
  0
SPLINE
  5
25A
330
1F
100
AcDbEntity
  8
0
  6
Continuous
 62
     7
370
    25
100
AcDbSpline
210
0.0
220
0.0
230
1.0
 70
     8
 71
     3
 72
    13
 73
     9
 74
     0
 42
0.000000001
 43
0.00000001
 40
0.0
 40
0.0
 40
0.0
 40
0.0
 40
0.1436963578266434
 40
0.2944142529504772
 40
0.4658556499183659
 40
0.6215139006600665
 40
0.798884736873282
 40
1.0
 40
1.0
 40
1.0
 40
1.0
 10
814.0584245871235
 20
393.4309476574215
 30
0.0
 10
814.4877209528331
 20
394.3668403105219
 30
0.0
 10
815.3672906977899
 20
396.2843568048286
 30
0.0
 10
817.9251282591667
 20
398.5096128750589
 30
0.0
 10
820.9735445479174
 20
400.0323217608198
 30
0.0
 10
824.4206107152378
 20
401.0412202171382
 30
0.0
 10
828.1632027270533
 20
401.6867807121694
 30
0.0
 10
830.845491415591
 20
401.8488094259892
 30
0.0
 10
832.270772809856
 20
401.9349062402997
 30
0.0
  0
ARC
  5
25B
330
1F
100
AcDbEntity
  8
0
  6
Continuous
 62
     7
370
    25
100
AcDbCircle
 10
809.3345183073
 20
395.0694302524
 30
0.0
 40
5.000000000000129
100
AcDbArc
 50
215.2110429638
 51
340.8709621959
  0
SPLINE
  5
25C
330
1F
100
AcDbEntity
  8
0
  6
Continuous
 62
     7
370
    25
100
AcDbSpline
210
0.0
220
0.0
230
1.0
 70
     8
 71
     3
 72
     9
 73
     5
 74
     0
 42
0.000000001
 43
0.00000001
 40
0.0
 40
0.0
 40
0.0
 40
0.0
 40
0.5541453537051076
 40
1.0
 40
1.0
 40
1.0
 40
1.0
 10
804.2173997114826
 20
394.0627419908795
 30
0.0
 10
804.380858998069
 20
393.7010236396373
 30
0.0
 10
804.6758344688434
 20
393.0482736908673
 30
0.0
 10
805.0724859988608
 20
392.4522272537249
 30
0.0
 10
805.2493349264789
 20
392.1864771803174
 30
0.0
  0
ARC
  5
25D
330
1F
100
AcDbEntity
  8
0
  6
Continuous
 62
     7
370
    25
100
AcDbCircle
 10
785.2707639884
 20
386.2349033316
 30
0.0
 40
20.50000000000006
100
AcDbArc
 50
22.4480607153
 51
270.5615699437
  0
SPLINE
  5
25E
330
1F
100
AcDbEntity
  8
0
  6
Continuous
 62
     7
370
    25
100
AcDbSpline
210
0.0
220
0.0
230
1.0
 70
     8
 71
     3
 72
    10
 73
     6
 74
     0
 42
0.000000001
 43
0.00000001
 40
0.0
 40
0.0
 40
0.0
 40
0.0
 40
0.5594612664466824
 40
0.7795078392894983
 40
1.0
 40
1.0
 40
1.0
 40
1.0
 10
791.1116794298816
 20
363.9973023494038
 30
0.0
 10
790.1289870107266
 20
364.5455055662827
 30
0.0
 10
788.7597832958621
 20
365.3093273546882
 30
0.0
 10
786.7887893660574
 20
365.6938768137936
 30
0.0
 10
785.9110119512909
 20
365.7218747523979
 30
0.0
 10
785.4716793249775
 20
365.7358878811154
 30
0.0
  0
SPLINE
  5
25F
330
1F
100
AcDbEntity
  8
0
  6
Continuous
 62
     7
370
    25
100
AcDbSpline
210
0.0
220
0.0
230
1.0
 70
     8
 71
     3
 72
     9
 73
     5
 74
     0
 42
0.000000001
 43
0.00000001
 40
0.0
 40
0.0
 40
0.0
 40
0.0
 40
0.5600013043181922
 40
1.0
 40
1.0
 40
1.0
 40
1.0
 10
805.5919126223255
 20
354.1374498565945
 30
0.0
 10
802.8856651885019
 20
355.9731675314274
 30
0.0
 10
798.0530917409837
 20
359.2512271728561
 30
0.0
 10
793.2326621587086
 20
362.5471156974638
 30
0.0
 10
791.1116794298816
 20
363.9973023494038
 30
0.0
  0
ARC
  5
260
330
1F
100
AcDbEntity
  8
0
  6
Continuous
 62
     7
370
    25
100
AcDbCircle
 10
802.786999131
 20
349.9983095543
 30
0.0
 40
5.000000000000004
100
AcDbArc
 50
0.0
 51
55.8762923618
  0
LINE
  5
261
330
1F
100
AcDbEntity
  8
0
  6
Continuous
 62
     7
370
    25
100
AcDbLine
 10
807.7870026778
 20
331.7752474507
 30
0.0
 11
807.7870026778
 21
349.9983096083
 31
0.0
  0
ARC
  5
262
330
1F
100
AcDbEntity
  8
0
  6
Continuous
 62
     7
370
    25
100
AcDbCircle
 10
812.786999131
 20
331.7752462419
 30
0.0
 40
5.0
100
AcDbArc
 50
180.0
 51
270.0
  0
ARC
  5
263
330
1F
100
AcDbEntity
  8
0
  6
Continuous
 62
     7
370
    25
100
AcDbCircle
 10
869.3540973217
 20
334.4349033316
 30
0.0
 40
57.08333333333176
100
AcDbArc
 50
187.7114241443
 51
193.1638893104
  0
SPLINE
  5
264
330
1F
100
AcDbEntity
  8
0
  6
Continuous
 62
     7
370
    25
100
AcDbSpline
210
0.0
220
0.0
230
1.0
 70
     8
 71
     3
 72
    13
 73
     9
 74
     0
 42
0.000000001
 43
0.00000001
 40
0.0
 40
0.0
 40
0.0
 40
0.0
 40
0.2535724462163032
 40
0.4669507978579653
 40
0.6460666927205669
 40
0.7692332906656953
 40
0.8843686935206174
 40
1.0
 40
1.0
 40
1.0
 40
1.0
 10
832.270772809856
 20
311.934902664021
 30
0.0
 10
830.3856330942607
 20
312.0597990167803
 30
0.0
 10
826.9141695839073
 20
312.2897942407913
 30
0.0
 10
822.2059566775888
 20
313.362370597541
 30
0.0
 10
818.6508118443851
 20
314.9065151117402
 30
0.0
 10
816.1845293149654
 20
316.8323676738666
 30
0.0
 10
814.5456887022658
 20
318.9585195495831
 30
0.0
 10
814.0294477385256
 20
320.6082627939996
 30
0.0
 10
813.7707725714374
 20
321.43490701516
 30
0.0
  0
LINE
  5
265
330
1F
100
AcDbEntity
  8
0
  6
Continuous
 62
     7
370
    25
100
AcDbLine
 10
832.2707728099
 20
321.5056204756
 30
0.0
 11
832.2707728099
 21
311.934902664
 31
0.0
  0
ARC
  5
266
330
1F
100
AcDbEntity
  8
0
  6
Continuous
 62
     7
370
    25
100
AcDbCircle
 10
837.2707639884
 20
321.5056239735
 30
0.0
 40
5.000000000000114
100
AcDbArc
 50
75.0124380289
 51
180.0
  0
LINE
  5
267
330
1F
100
AcDbEntity
  8
0
  6
Continuous
 62
     7
370
    25
100
AcDbLine
 10
851.4302984427
 20
322.8909665306
 30
0.0
 11
838.5638014029
 21
326.3355338534
 31
0.0
  0
ARC
  5
268
330
1F
100
AcDbEntity
  8
0
  6
Continuous
 62
     7
370
    25
100
AcDbCircle
 10
850.1372492091
 20
318.061053127
 30
0.0
 40
5.000000000000043
100
AcDbArc
 50
55.9488982966
 51
75.0124380289
  0
SPLINE
  5
269
330
1F
100
AcDbEntity
  8
0
  6
Continuous
 62
     7
370
    25
100
AcDbSpline
210
0.0
220
0.0
230
1.0
 70
     8
 71
     3
 72
     9
 73
     5
 74
     0
 42
0.000000001
 43
0.00000001
 40
0.0
 40
0.0
 40
0.0
 40
0.0
 40
0.559986145833783
 40
1.0
 40
1.0
 40
1.0
 40
1.0
 10
901.6830936621357
 20
288.7370170613083
 30
0.0
 10
892.6236865435186
 20
295.0418072524176
 30
0.0
 10
876.4457735968904
 20
306.3006397039275
 30
0.0
 10
860.1203413934616
 20
317.3443581918988
 30
0.0
 10
852.9369250487018
 20
322.2037473281178
 30
0.0
  0
LINE
  5
26A
330
1F
100
AcDbEntity
  8
0
  6
Continuous
 62
     7
370
    25
100
AcDbLine
 10
475.2707645844
 20
111.2349027355
 30
0.0
 11
475.2707645844
 21
152.3639106711
 31
0.0
  0
LINE
  5
26B
330
1F
100
AcDbEntity
  8
0
  6
Continuous
 62
     7
370
    25
100
AcDbLine
 10
475.2707645844
 20
152.3639106711
 30
0.0
 11
492.7760825108
 21
152.3639106711
 31
0.0
  0
ARC
  5
26C
330
1F
100
AcDbEntity
  8
0
  6
Continuous
 62
     7
370
    25
100
AcDbCircle
 10
492.7760794665
 20
167.3661402967
 30
0.0
 40
15.00223081167621
100
AcDbArc
 50
270.0
 51
341.9266041464
  0
ARC
  5
26D
330
1F
100
AcDbEntity
  8
0
  6
Continuous
 62
     7
370
    25
100
AcDbCircle
 10
521.2979967754
 20
158.0583969237
 30
0.0
 40
15.00000000000001
100
AcDbArc
 50
123.9061448156
 51
161.9266041464
  0
ARC
  5
26E
330
1F
100
AcDbEntity
  8
0
  6
Continuous
 62
     7
370
    25
100
AcDbCircle
 10
492.7760794665
 20
200.493656067
 30
0.0
 40
36.129746582023
100
AcDbArc
 50
303.9061448156
 51
343.8301160409
  0
ARC
  5
26F
330
1F
100
AcDbEntity
  8
0
  6
Continuous
 62
     7
370
    25
100
AcDbCircle
 10
515.8392631436
 20
193.8063255811
 30
0.0
 40
12.11660787936307
100
AcDbArc
 50
343.8301160409
 51
360.0
  0
LINE
  5
270
330
1F
100
AcDbEntity
  8
0
  6
Continuous
 62
     7
370
    25
100
AcDbLine
 10
527.9558763455
 20
193.8063272794
 30
0.0
 11
527.9558763455
 21
308.6634793838
 31
0.0
  0
ARC
  5
271
330
1F
100
AcDbEntity
  8
0
  6
Continuous
 62
     7
370
    25
100
AcDbCircle
 10
515.8392631436
 20
308.6634810821
 30
0.0
 40
12.11660787936307
100
AcDbArc
 50
0.0
 51
16.1698839591
  0
ARC
  5
272
330
1F
100
AcDbEntity
  8
0
  6
Continuous
 62
     7
370
    25
100
AcDbCircle
 10
492.7760794664
 20
301.9761505962
 30
0.0
 40
36.12974658202433
100
AcDbArc
 50
16.1698839591
 51
56.0938551844
  0
ARC
  5
273
330
1F
100
AcDbEntity
  8
0
  6
Continuous
 62
     7
370
    25
100
AcDbCircle
 10
521.2979967754
 20
344.4114097395
 30
0.0
 40
15.00000000000003
100
AcDbArc
 50
198.0733958536
 51
236.0938551844
  0
ARC
  5
274
330
1F
100
AcDbEntity
  8
0
  6
Continuous
 62
     7
370
    25
100
AcDbCircle
 10
492.7760794665
 20
335.1036663665
 30
0.0
 40
15.00223081167616
100
AcDbArc
 50
18.0733958536
 51
90.0
  0
LINE
  5
275
330
1F
100
AcDbEntity
  8
0
  6
Continuous
 62
     7
370
    25
100
AcDbLine
 10
492.7760825108
 20
350.1058959921
 30
0.0
 11
423.8376483868
 21
350.1058959921
 31
0.0
  0
ARC
  5
276
330
1F
100
AcDbEntity
  8
0
  6
Continuous
 62
     7
370
    25
100
AcDbCircle
 10
423.8376461957
 20
335.0972008996
 30
0.0
 40
15.00869627855174
100
AcDbArc
 50
90.0
 51
163.2888422903
  0
ARC
  5
277
330
1F
100
AcDbEntity
  8
0
  6
Continuous
 62
     7
370
    25
100
AcDbCircle
 10
395.0963216978
 20
343.726112676
 30
0.0
 40
15.0
100
AcDbArc
 50
306.1483791171
 51
343.2888422903
  0
ARC
  5
278
330
1F
100
AcDbEntity
  8
0
  6
Continuous
 62
     7
370
    25
100
AcDbCircle
 10
423.8376461957
 20
304.3817452005
 30
0.0
 40
33.72415197764039
100
AcDbArc
 50
126.1483791171
 51
158.9048533085
  0
ARC
  5
279
330
1F
100
AcDbEntity
  8
0
  6
Continuous
 62
     7
370
    25
100
AcDbCircle
 10
387.7086310017
 20
318.3192560076
 30
0.0
 40
5.0
100
AcDbArc
 50
270.0
 51
338.9048533085
  0
LINE
  5
27A
330
1F
100
AcDbEntity
  8
0
  6
Continuous
 62
     7
370
    25
100
AcDbLine
 10
387.7086319576
 20
313.3192577918
 30
0.0
 11
316.6707639198
 21
313.3192577918
 31
0.0
  0
LINE
  5
27B
330
1F
100
AcDbEntity
  8
0
  6
Continuous
 62
     7
370
    25
100
AcDbLine
 10
316.6707639198
 20
325.6349036058
 30
0.0
 11
316.6707639198
 21
313.3192577918
 31
0.0
  0
LINE
  5
27C
330
1F
100
AcDbEntity
  8
0
  6
Continuous
 62
     7
370
    25
100
AcDbLine
 10
326.6707636963
 20
325.6349036058
 30
0.0
 11
316.6707639198
 21
325.6349036058
 31
0.0
  0
LINE
  5
27D
330
1F
100
AcDbEntity
  8
0
  6
Continuous
 62
     7
370
    25
100
AcDbLine
 10
326.6707636963
 20
340.5971074065
 30
0.0
 11
326.6707636963
 21
325.6349036058
 31
0.0
  0
ARC
  5
27E
330
1F
100
AcDbEntity
  8
0
  6
Continuous
 62
     7
370
    25
100
AcDbCircle
 10
328.6707639884
 20
340.5971049569
 30
0.0
 40
2.000000000000069
100
AcDbArc
 50
99.511839942
 51
180.0
  0
LINE
  5
27F
330
1F
100
AcDbEntity
  8
0
  6
Continuous
 62
     7
370
    25
100
AcDbLine
 10
379.0065624367
 20
351.0590040644
 30
0.0
 11
328.3402613911
 21
342.5696113666
 31
0.0
  0
LINE
  5
280
330
1F
100
AcDbEntity
  8
0
  6
Continuous
 62
     7
370
    25
100
AcDbLine
 10
379.3370664667
 20
349.0865001043
 30
0.0
 11
379.0065624367
 21
351.0590040644
 31
0.0
  0
LINE
  5
281
330
1F
100
AcDbEntity
  8
0
  6
Continuous
 62
     7
370
    25
100
AcDbLine
 10
408.9246109675
 20
354.0440419277
 30
0.0
 11
379.3370664667
 21
349.0865001043
 31
0.0
  0
LINE
  5
282
330
1F
100
AcDbEntity
  8
0
  6
Continuous
 62
     7
370
    25
100
AcDbLine
 10
408.5941106628
 20
356.0165458878
 30
0.0
 11
408.9246109675
 21
354.0440419277
 31
0.0
  0
LINE
  5
283
330
1F
100
AcDbEntity
  8
0
  6
Continuous
 62
     7
370
    25
100
AcDbLine
 10
448.5372916411
 20
362.7092310746
 30
0.0
 11
408.5941106628
 21
356.0165458878
 31
0.0
  0
ARC
  5
284
330
1F
100
AcDbEntity
  8
0
  6
Continuous
 62
     7
370
    25
100
AcDbCircle
 10
447.2979073047
 20
370.1061135321
 30
0.0
 40
7.500000000000038
100
AcDbArc
 50
279.511839942
 51
9.511839942
  0
LINE
  5
285
330
1F
100
AcDbEntity
  8
0
  6
Continuous
 62
     7
370
    25
100
AcDbLine
 10
450.2330065321
 20
397.9742819031
 30
0.0
 11
454.6947941731
 21
371.3454970678
 31
0.0
  0
ARC
  5
286
330
1F
100
AcDbEntity
  8
0
  6
Continuous
 62
     7
370
    25
100
AcDbCircle
 10
442.8361191191
 20
396.7349033316
 30
0.0
 40
7.499999999999991
100
AcDbArc
 50
9.511839942
 51
99.511839942
  0
LINE
  5
287
330
1F
100
AcDbEntity
  8
0
  6
Continuous
 62
     7
370
    25
100
AcDbLine
 10
401.6535521101
 20
397.4391066988
 30
0.0
 11
441.5967330884
 21
404.1317844351
 31
0.0
  0
LINE
  5
288
330
1F
100
AcDbEntity
  8
0
  6
Continuous
 62
     7
370
    25
100
AcDbLine
 10
401.3230443548
 20
399.4116032084
 30
0.0
 11
401.6535521101
 21
397.4391066988
 31
0.0
  0
LINE
  5
289
330
1F
100
AcDbEntity
  8
0
  6
Continuous
 62
     7
370
    25
100
AcDbLine
 10
371.7355035793
 20
394.454061385
 30
0.0
 11
401.3230443548
 21
399.4116032084
 31
0.0
  0
LINE
  5
28A
330
1F
100
AcDbEntity
  8
0
  6
Continuous
 62
     7
370
    25
100
AcDbLine
 10
372.066003884
 20
392.4815648754
 30
0.0
 11
371.7355035793
 21
394.454061385
 31
0.0
  0
LINE
  5
28B
330
1F
100
AcDbEntity
  8
0
  6
Continuous
 62
     7
370
    25
100
AcDbLine
 10
329.0012666571
 20
385.2658563813
 30
0.0
 11
372.066003884
 21
392.4815648754
 31
0.0
  0
ARC
  5
28C
330
1F
100
AcDbEntity
  8
0
  6
Continuous
 62
     7
370
    25
100
AcDbCircle
 10
328.6707639884
 20
387.2383533708
 30
0.0
 40
2.000000000000004
100
AcDbArc
 50
180.0
 51
279.511839942
  0
LINE
  5
28D
330
1F
100
AcDbEntity
  8
0
  6
Continuous
 62
     7
370
    25
100
AcDbLine
 10
326.6707636963
 20
388.234897848
 30
0.0
 11
326.6707636963
 21
387.2383528908
 31
0.0
  0
LINE
  5
28E
330
1F
100
AcDbEntity
  8
0
  6
Continuous
 62
     7
370
    25
100
AcDbLine
 10
316.6707639198
 20
388.234897848
 30
0.0
 11
326.6707636963
 21
388.234897848
 31
0.0
  0
LINE
  5
28F
330
1F
100
AcDbEntity
  8
0
  6
Continuous
 62
     7
370
    25
100
AcDbLine
 10
316.6707639198
 20
400.2349072655
 30
0.0
 11
316.6707639198
 21
388.234897848
 31
0.0
  0
LINE
  5
290
330
1F
100
AcDbEntity
  8
0
  6
Continuous
 62
     7
370
    25
100
AcDbLine
 10
286.6707645904
 20
400.2349072655
 30
0.0
 11
316.6707639198
 21
400.2349072655
 31
0.0
  0
LINE
  5
291
330
1F
100
AcDbEntity
  8
0
  6
Continuous
 62
     7
370
    25
100
AcDbLine
 10
286.6707645904
 20
388.234897848
 30
0.0
 11
286.6707645904
 21
400.2349072655
 31
0.0
  0
LINE
  5
292
330
1F
100
AcDbEntity
  8
0
  6
Continuous
 62
     7
370
    25
100
AcDbLine
 10
274.2707633029
 20
388.234897848
 30
0.0
 11
286.6707645904
 21
388.234897848
 31
0.0
  0
LINE
  5
293
330
1F
100
AcDbEntity
  8
0
  6
Continuous
 62
     7
370
    25
100
AcDbLine
 10
274.2707633029
 20
400.2349072655
 30
0.0
 11
274.2707633029
 21
388.234897848
 31
0.0
  0
LINE
  5
294
330
1F
100
AcDbEntity
  8
0
  6
Continuous
 62
     7
370
    25
100
AcDbLine
 10
244.2707658361
 20
400.2349072655
 30
0.0
 11
274.2707633029
 21
400.2349072655
 31
0.0
  0
LINE
  5
295
330
1F
100
AcDbEntity
  8
0
  6
Continuous
 62
     7
370
    25
100
AcDbLine
 10
244.2707658361
 20
388.234897848
 30
0.0
 11
244.2707658361
 21
400.2349072655
 31
0.0
  0
LINE
  5
296
330
1F
100
AcDbEntity
  8
0
  6
Continuous
 62
     7
370
    25
100
AcDbLine
 10
227.270761187
 20
388.234897848
 30
0.0
 11
244.2707658361
 21
388.234897848
 31
0.0
  0
LINE
  5
297
330
1F
100
AcDbEntity
  8
0
  6
Continuous
 62
     7
370
    25
100
AcDbLine
 10
227.270761187
 20
397.7349096497
 30
0.0
 11
227.270761187
 21
388.234897848
 31
0.0
  0
LINE
  5
298
330
1F
100
AcDbEntity
  8
0
  6
Continuous
 62
     7
370
    25
100
AcDbLine
 10
212.2707605909
 20
397.7349096497
 30
0.0
 11
227.270761187
 21
397.7349096497
 31
0.0
  0
ARC
  5
299
330
1F
100
AcDbEntity
  8
0
  6
Continuous
 62
     7
370
    25
100
AcDbCircle
 10
249.3540973217
 20
379.4349033316
 30
0.0
 40
57.08333333333176
100
AcDbArc
 50
166.8361106896
 51
172.2885758557
  0
ARC
  5
29A
330
1F
100
AcDbEntity
  8
0
  6
Continuous
 62
     7
370
    25
100
AcDbCircle
 10
192.786999131
 20
382.0945604213
 30
0.0
 40
5.0
100
AcDbArc
 50
90.0
 51
180.0
  0
LINE
  5
29B
330
1F
100
AcDbEntity
  8
0
  6
Continuous
 62
     7
370
    25
100
AcDbLine
 10
187.7869979094
 20
331.7752474507
 30
0.0
 11
187.7869979094
 21
382.0945614537
 31
0.0
  0
ARC
  5
29C
330
1F
100
AcDbEntity
  8
0
  6
Continuous
 62
     7
370
    25
100
AcDbCircle
 10
192.786999131
 20
331.7752462419
 30
0.0
 40
5.000000000000016
100
AcDbArc
 50
180.0
 51
266.4663009745
  0
ARC
  5
29D
330
1F
100
AcDbEntity
  8
0
  6
Continuous
 62
     7
370
    25
100
AcDbCircle
 10
199.7487873166
 20
328.6280085475
 30
0.0
 40
7.500000000000046
100
AcDbArc
 50
194.2271923865
 51
205.792728351
  0
ARC
  5
29E
330
1F
100
AcDbEntity
  8
0
  6
Continuous
 62
     7
370
    25
100
AcDbCircle
 10
249.3540973217
 20
334.4349033316
 30
0.0
 40
57.08333333333177
100
AcDbArc
 50
189.1427789233
 51
193.1638893104
  0
SPLINE
  5
29F
330
1F
100
AcDbEntity
  8
0
  6
Continuous
 62
     7
370
    25
100
AcDbSpline
210
0.0
220
0.0
230
1.0
 70
     8
 71
     3
 72
    47
 73
    43
 74
     0
 42
0.000000001
 43
0.00000001
 40
0.0
 40
0.0
 40
0.0
 40
0.0
 40
0.036387424214405
 40
0.0719975888405656
 40
0.1068376376701678
 40
0.140915198824093
 40
0.1742384240574563
 40
0.2068160313930359
 40
0.2386573513008631
 40
0.2697723766300767
 40
0.3001718164769885
 40
0.3298671541376105
 40
0.3588707092395994
 40
0.3871957040733792
 40
0.414856334039393
 40
0.4418678419925512
 40
0.4682465960892449
 40
0.4940101705207535
 40
0.5191774282435481
 40
0.5437686044880219
 40
0.5678053894413312
 40
0.5913110080611492
 40
0.6143102944960016
 40
0.6368297580848215
 40
0.6588976374153696
 40
0.6805439384843914
 40
0.7018004526811599
 40
0.7227007501820976
 40
0.7432801444749753
 40
0.7635756242007488
 40
0.7836257493659559
 40
0.8034705102610982
 40
0.8231511490930528
 40
0.8427099463128713
 40
0.8621899757415371
 40
0.8816348346610846
 40
0.901088356816831
 40
0.9205943175501756
 40
0.9401961408837596
 40
0.9599366182304433
 40
0.979857647514908
 40
1.0
 40
1.0
 40
1.0
 40
1.0
 10
212.2707639883686
 20
311.934903331593
 30
0.0
 10
211.9997907117274
 20
311.9470311303885
 30
0.0
 10
211.4636323279013
 20
311.9710276701292
 30
0.0
 10
210.6687356722264
 20
312.0204496451888
 30
0.0
 10
209.8917655097907
 20
312.0793222610808
 30
0.0
 10
209.1327590798958
 20
312.1485757205006
 30
0.0
 10
208.3917059045954
 20
312.2279691459328
 30
0.0
 10
207.6686078201059
 20
312.3175653261007
 30
0.0
 10
206.9634634168191
 20
312.4173484564807
 30
0.0
 10
206.2762720738134
 20
312.5273232039979
 30
0.0
 10
205.6070329188879
 20
312.6474890659927
 30
0.0
 10
204.9557451058592
 20
312.7778470296528
 30
0.0
 10
204.322407754588
 20
312.9183978704446
 30
0.0
 10
203.7070199830009
 20
313.0691426161317
 30
0.0
 10
203.1095809210478
 20
313.2300824514774
 30
0.0
 10
202.5300897362073
 20
313.4012187678318
 30
0.0
 10
201.968545664053
 20
313.5825531742241
 30
0.0
 10
201.4249480466843
 20
313.7740875156734
 30
0.0
 10
200.8992963792389
 20
313.9758238846103
 30
0.0
 10
200.3915903649934
 20
314.1877646261252
 30
0.0
 10
199.9018299788441
 20
314.4099123332535
 30
0.0
 10
199.4300155381839
 20
314.6422698290634
 30
0.0
 10
198.9761477790503
 20
314.8848401317333
 30
0.0
 10
198.5402279339937
 20
315.1376263988727
 30
0.0
 10
198.1222578064229
 20
315.400631847806
 30
0.0
 10
197.72223983441
 20
315.6738596496946
 30
0.0
 10
197.3401771352258
 20
315.9573127973452
 30
0.0
 10
196.9760735209742
 20
316.2509939494797
 30
0.0
 10
196.6299334747076
 20
316.5549052577386
 30
0.0
 10
196.3017620807337
 20
316.869048187555
 30
0.0
 10
195.9915648948692
 20
317.1934233454696
 30
0.0
 10
195.6993477859828
 20
317.5280303379724
 30
0.0
 10
195.4251166378512
 20
317.8728676532928
 30
0.0
 10
195.1688773559644
 20
318.2279326838422
 30
0.0
 10
194.9306346056415
 20
318.5932215296722
 30
0.0
 10
194.7103952149994
 20
318.9687299662575
 30
0.0
 10
194.5081542885745
 20
319.3544504428849
 30
0.0
 10
194.3239460925976
 20
319.750384239736
 30
0.0
 10
194.1576525006624
 20
320.1564970735416
 30
0.0
 10
194.0097233761045
 20
320.5728874835485
 30
0.0
 10
193.8784574624663
 20
320.9991526179817
 30
0.0
 10
193.8067937775985
 20
321.2891191371495
 30
0.0
 10
193.7707639883686
 20
321.434903331593
 30
0.0
  0
LINE
  5
2A0
330
1F
100
AcDbEntity
  8
0
  6
Continuous
 62
     7
370
    25
100
AcDbLine
 10
212.2707605909
 20
316.1349067052
 30
0.0
 11
212.2707605909
 21
311.934902664
 31
0.0
  0
LINE
  5
2A1
330
1F
100
AcDbEntity
  8
0
  6
Continuous
 62
     7
370
    25
100
AcDbLine
 10
227.270761187
 20
316.1349067052
 30
0.0
 11
212.2707605909
 21
316.1349067052
 31
0.0
  0
LINE
  5
2A2
330
1F
100
AcDbEntity
  8
0
  6
Continuous
 62
     7
370
    25
100
AcDbLine
 10
227.270761187
 20
325.6349036058
 30
0.0
 11
227.270761187
 21
316.1349067052
 31
0.0
  0
LINE
  5
2A3
330
1F
100
AcDbEntity
  8
0
  6
Continuous
 62
     7
370
    25
100
AcDbLine
 10
244.2707658361
 20
325.6349036058
 30
0.0
 11
227.270761187
 21
325.6349036058
 31
0.0
  0
LINE
  5
2A4
330
1F
100
AcDbEntity
  8
0
  6
Continuous
 62
     7
370
    25
100
AcDbLine
 10
244.2707658361
 20
323.6349070032
 30
0.0
 11
244.2707658361
 21
325.6349036058
 31
0.0
  0
LINE
  5
2A5
330
1F
100
AcDbEntity
  8
0
  6
Continuous
 62
     7
370
    25
100
AcDbLine
 10
274.2707633029
 20
323.6349070032
 30
0.0
 11
244.2707658361
 21
323.6349070032
 31
0.0
  0
LINE
  5
2A6
330
1F
100
AcDbEntity
  8
0
  6
Continuous
 62
     7
370
    25
100
AcDbLine
 10
274.2707633029
 20
325.6349036058
 30
0.0
 11
274.2707633029
 21
323.6349070032
 31
0.0
  0
LINE
  5
2A7
330
1F
100
AcDbEntity
  8
0
  6
Continuous
 62
     7
370
    25
100
AcDbLine
 10
286.6707645904
 20
325.6349036058
 30
0.0
 11
274.2707633029
 21
325.6349036058
 31
0.0
  0
LINE
  5
2A8
330
1F
100
AcDbEntity
  8
0
  6
Continuous
 62
     7
370
    25
100
AcDbLine
 10
286.6707645904
 20
313.3192577918
 30
0.0
 11
286.6707645904
 21
325.6349036058
 31
0.0
  0
LINE
  5
2A9
330
1F
100
AcDbEntity
  8
0
  6
Continuous
 62
     7
370
    25
100
AcDbLine
 10
286.6707645904
 20
313.3192577918
 30
0.0
 11
260.3614420246
 21
313.3192577918
 31
0.0
  0
ARC
  5
2AA
330
1F
100
AcDbEntity
  8
0
  6
Continuous
 62
     7
370
    25
100
AcDbCircle
 10
260.3614421167
 20
301.3192560076
 30
0.0
 40
12.0
100
AcDbArc
 50
90.0
 51
270.0
  0
LINE
  5
2AB
330
1F
100
AcDbEntity
  8
0
  6
Continuous
 62
     7
370
    25
100
AcDbLine
 10
260.3614420246
 20
289.3192575832
 30
0.0
 11
286.6707645904
 21
289.3192575832
 31
0.0
  0
LINE
  5
2AC
330
1F
100
AcDbEntity
  8
0
  6
Continuous
 62
     7
370
    25
100
AcDbLine
 10
286.6707645904
 20
279.2349041959
 30
0.0
 11
286.6707645904
 21
289.3192575832
 31
0.0
  0
LINE
  5
2AD
330
1F
100
AcDbEntity
  8
0
  6
Continuous
 62
     7
370
    25
100
AcDbLine
 10
316.6707639198
 20
279.2349041959
 30
0.0
 11
286.6707645904
 21
279.2349041959
 31
0.0
  0
LINE
  5
2AE
330
1F
100
AcDbEntity
  8
0
  6
Continuous
 62
     7
370
    25
100
AcDbLine
 10
316.6707639198
 20
289.3192575832
 30
0.0
 11
316.6707639198
 21
279.2349041959
 31
0.0
  0
LINE
  5
2AF
330
1F
100
AcDbEntity
  8
0
  6
Continuous
 62
     7
370
    25
100
AcDbLine
 10
316.6707639198
 20
289.3192575832
 30
0.0
 11
383.4509231697
 21
289.3192575832
 31
0.0
  0
ARC
  5
2B0
330
1F
100
AcDbEntity
  8
0
  6
Continuous
 62
     7
370
    25
100
AcDbCircle
 10
383.4509246551
 20
284.3192560076
 30
0.0
 40
5.000000000000057
100
AcDbArc
 50
340.9619599827
 51
90.0
  0
LINE
  5
2B1
330
1F
100
AcDbEntity
  8
0
  6
Continuous
 62
     7
370
    25
100
AcDbLine
 10
388.17743739
 20
282.6882781049
 30
0.0
 11
386.4767902147
 21
277.7598810901
 31
0.0
  0
ARC
  5
2B2
330
1F
100
AcDbEntity
  8
0
  6
Continuous
 62
     7
370
    25
100
AcDbCircle
 10
410.1093473165
 20
269.6049846931
 30
0.0
 40
25.00000000000004
100
AcDbArc
 50
160.9619599827
 51
164.6213562261
  0
LINE
  5
2B3
330
1F
100
AcDbEntity
  8
0
  6
Continuous
 62
     7
370
    25
100
AcDbLine
 10
365.2707633178
 20
276.2349037041
 30
0.0
 11
386.00449046
 21
276.2349037041
 31
0.0
  0
LINE
  5
2B4
330
1F
100
AcDbEntity
  8
0
  6
Continuous
 62
     7
370
    25
100
AcDbLine
 10
365.2707633178
 20
226.2349029591
 30
0.0
 11
365.2707633178
 21
276.2349037041
 31
0.0
  0
LINE
  5
2B5
330
1F
100
AcDbEntity
  8
0
  6
Continuous
 62
     7
370
    25
100
AcDbLine
 10
386.00449046
 20
226.2349029591
 30
0.0
 11
365.2707633178
 21
226.2349029591
 31
0.0
  0
ARC
  5
2B6
330
1F
100
AcDbEntity
  8
0
  6
Continuous
 62
     7
370
    25
100
AcDbCircle
 10
410.1093473165
 20
232.8648219701
 30
0.0
 40
25.00000000000001
100
AcDbArc
 50
195.3786437739
 51
199.0380400173
  0
LINE
  5
2B7
330
1F
100
AcDbEntity
  8
0
  6
Continuous
 62
     7
370
    25
100
AcDbLine
 10
386.4767902147
 20
224.7099255731
 30
0.0
 11
388.17743739
 21
219.7815285583
 31
0.0
  0
ARC
  5
2B8
330
1F
100
AcDbEntity
  8
0
  6
Continuous
 62
     7
370
    25
100
AcDbCircle
 10
383.4509246551
 20
218.1505506556
 30
0.0
 40
5.0
100
AcDbArc
 50
270.0
 51
19.0380400173
  0
LINE
  5
2B9
330
1F
100
AcDbEntity
  8
0
  6
Continuous
 62
     7
370
    25
100
AcDbLine
 10
383.4509231697
 20
213.15054908
 30
0.0
 11
350.2707636531
 21
213.15054908
 31
0.0
  0
LINE
  5
2BA
330
1F
100
AcDbEntity
  8
0
  6
Continuous
 62
     7
370
    25
100
AcDbLine
 10
350.2707636531
 20
223.2349024673
 30
0.0
 11
350.2707636531
 21
213.15054908
 31
0.0
  0
LINE
  5
2BB
330
1F
100
AcDbEntity
  8
0
  6
Continuous
 62
     7
370
    25
100
AcDbLine
 10
320.2707643236
 20
223.2349024673
 30
0.0
 11
350.2707636531
 21
223.2349024673
 31
0.0
  0
LINE
  5
2BC
330
1F
100
AcDbEntity
  8
0
  6
Continuous
 62
     7
370
    25
100
AcDbLine
 10
320.2707643236
 20
213.15054908
 30
0.0
 11
320.2707643236
 21
223.2349024673
 31
0.0
  0
LINE
  5
2BD
330
1F
100
AcDbEntity
  8
0
  6
Continuous
 62
     7
370
    25
100
AcDbLine
 10
320.2707643236
 20
213.15054908
 30
0.0
 11
260.3614420246
 21
213.15054908
 31
0.0
  0
ARC
  5
2BE
330
1F
100
AcDbEntity
  8
0
  6
Continuous
 62
     7
370
    25
100
AcDbCircle
 10
260.3614421167
 20
201.1505506556
 30
0.0
 40
11.99999999999994
100
AcDbArc
 50
90.0
 51
270.0
  0
LINE
  5
2BF
330
1F
100
AcDbEntity
  8
0
  6
Continuous
 62
     7
370
    25
100
AcDbLine
 10
260.3614420246
 20
189.1505488714
 30
0.0
 11
320.2707643236
 21
189.1505488714
 31
0.0
  0
LINE
  5
2C0
330
1F
100
AcDbEntity
  8
0
  6
Continuous
 62
     7
370
    25
100
AcDbLine
 10
320.2707643236
 20
158.4808671435
 30
0.0
 11
320.2707643236
 21
189.1505488714
 31
0.0
  0
ARC
  5
2C1
330
1F
100
AcDbEntity
  8
0
  6
Continuous
 62
     7
370
    25
100
AcDbCircle
 10
318.2707639884
 20
158.480870024
 30
0.0
 40
2.000000000000044
100
AcDbArc
 50
234.6234598481
 51
0.0
  0
ARC
  5
2C2
330
1F
100
AcDbEntity
  8
0
  6
Continuous
 62
     7
370
    25
100
AcDbCircle
 10
312.7707639884
 20
150.7349033316
 30
0.0
 40
7.499999999999972
100
AcDbArc
 50
54.6234598481
 51
90.0
  0
LINE
  5
2C3
330
1F
100
AcDbEntity
  8
0
  6
Continuous
 62
     7
370
    25
100
AcDbLine
 10
305.2707646589
 20
158.2349011262
 30
0.0
 11
312.7707630943
 21
158.2349011262
 31
0.0
  0
LINE
  5
2C4
330
1F
100
AcDbEntity
  8
0
  6
Continuous
 62
     7
370
    25
100
AcDbLine
 10
305.2707646589
 20
172.2348996957
 30
0.0
 11
305.2707646589
 21
158.2349011262
 31
0.0
  0
LINE
  5
2C5
330
1F
100
AcDbEntity
  8
0
  6
Continuous
 62
     7
370
    25
100
AcDbLine
 10
275.2707653295
 20
172.2348996957
 30
0.0
 11
305.2707646589
 21
172.2348996957
 31
0.0
  0
LINE
  5
2C6
330
1F
100
AcDbEntity
  8
0
  6
Continuous
 62
     7
370
    25
100
AcDbLine
 10
275.2707653295
 20
158.2349011262
 30
0.0
 11
275.2707653295
 21
172.2348996957
 31
0.0
  0
LINE
  5
2C7
330
1F
100
AcDbEntity
  8
0
  6
Continuous
 62
     7
370
    25
100
AcDbLine
 10
232.2707638692
 20
158.2349011262
 30
0.0
 11
275.2707653295
 21
158.2349011262
 31
0.0
  0
LINE
  5
2C8
330
1F
100
AcDbEntity
  8
0
  6
Continuous
 62
     7
370
    25
100
AcDbLine
 10
232.2707638692
 20
172.2348996957
 30
0.0
 11
232.2707638692
 21
158.2349011262
 31
0.0
  0
LINE
  5
2C9
330
1F
100
AcDbEntity
  8
0
  6
Continuous
 62
     7
370
    25
100
AcDbLine
 10
202.2707626771
 20
172.2348996957
 30
0.0
 11
232.2707638692
 21
172.2348996957
 31
0.0
  0
LINE
  5
2CA
330
1F
100
AcDbEntity
  8
0
  6
Continuous
 62
     7
370
    25
100
AcDbLine
 10
202.2707626771
 20
158.2349011262
 30
0.0
 11
202.2707626771
 21
172.2348996957
 31
0.0
  0
LINE
  5
2CB
330
1F
100
AcDbEntity
  8
0
  6
Continuous
 62
     7
370
    25
100
AcDbLine
 10
194.7707698296
 20
158.2349011262
 30
0.0
 11
202.2707626771
 21
158.2349011262
 31
0.0
  0
ARC
  5
2CC
330
1F
100
AcDbEntity
  8
0
  6
Continuous
 62
     7
370
    25
100
AcDbCircle
 10
194.7707639884
 20
150.7349033316
 30
0.0
 40
7.5
100
AcDbArc
 50
90.0
 51
180.0
  0
LINE
  5
2CD
330
1F
100
AcDbEntity
  8
0
  6
Continuous
 62
     7
370
    25
100
AcDbLine
 10
187.270762081
 20
107.7349030932
 30
0.0
 11
187.270762081
 21
150.7349008282
 31
0.0
  0
ARC
  5
2CE
330
1F
100
AcDbEntity
  8
0
  6
Continuous
 62
     7
370
    25
100
AcDbCircle
 10
194.7707639884
 20
107.7349033316
 30
0.0
 40
7.500000000000014
100
AcDbArc
 50
180.0
 51
270.0
  0
LINE
  5
2CF
330
1F
100
AcDbEntity
  8
0
  6
Continuous
 62
     7
370
    25
100
AcDbLine
 10
202.2707626771
 20
100.2349102457
 30
0.0
 11
194.7707698296
 21
100.2349102457
 31
0.0
  0
LINE
  5
2D0
330
1F
100
AcDbEntity
  8
0
  6
Continuous
 62
     7
370
    25
100
AcDbLine
 10
202.2707626771
 20
98.2349061926
 30
0.0
 11
202.2707626771
 21
100.2349102457
 31
0.0
  0
LINE
  5
2D1
330
1F
100
AcDbEntity
  8
0
  6
Continuous
 62
     7
370
    25
100
AcDbLine
 10
232.2707638692
 20
98.2349061926
 30
0.0
 11
202.2707626771
 21
98.2349061926
 31
0.0
  0
LINE
  5
2D2
330
1F
100
AcDbEntity
  8
0
  6
Continuous
 62
     7
370
    25
100
AcDbLine
 10
232.2707638692
 20
100.2349102457
 30
0.0
 11
232.2707638692
 21
98.2349061926
 31
0.0
  0
LINE
  5
2D3
330
1F
100
AcDbEntity
  8
0
  6
Continuous
 62
     7
370
    25
100
AcDbLine
 10
275.2707653295
 20
100.2349102457
 30
0.0
 11
232.2707638692
 21
100.2349102457
 31
0.0
  0
LINE
  5
2D4
330
1F
100
AcDbEntity
  8
0
  6
Continuous
 62
     7
370
    25
100
AcDbLine
 10
275.2707653295
 20
98.2349061926
 30
0.0
 11
275.2707653295
 21
100.2349102457
 31
0.0
  0
LINE
  5
2D5
330
1F
100
AcDbEntity
  8
0
  6
Continuous
 62
     7
370
    25
100
AcDbLine
 10
305.2707646589
 20
98.2349061926
 30
0.0
 11
275.2707653295
 21
98.2349061926
 31
0.0
  0
LINE
  5
2D6
330
1F
100
AcDbEntity
  8
0
  6
Continuous
 62
     7
370
    25
100
AcDbLine
 10
305.2707646589
 20
100.2349102457
 30
0.0
 11
305.2707646589
 21
98.2349061926
 31
0.0
  0
LINE
  5
2D7
330
1F
100
AcDbEntity
  8
0
  6
Continuous
 62
     7
370
    25
100
AcDbLine
 10
408.2707629155
 20
100.2349102457
 30
0.0
 11
305.2707646589
 21
100.2349102457
 31
0.0
  0
LINE
  5
2D8
330
1F
100
AcDbEntity
  8
0
  6
Continuous
 62
     7
370
    25
100
AcDbLine
 10
408.2707629155
 20
98.2349061926
 30
0.0
 11
408.2707629155
 21
100.2349102457
 31
0.0
  0
LINE
  5
2D9
330
1F
100
AcDbEntity
  8
0
  6
Continuous
 62
     7
370
    25
100
AcDbLine
 10
438.2707641076
 20
98.2349061926
 30
0.0
 11
408.2707629155
 21
98.2349061926
 31
0.0
  0
LINE
  5
2DA
330
1F
100
AcDbEntity
  8
0
  6
Continuous
 62
     7
370
    25
100
AcDbLine
 10
438.2707641076
 20
100.2349102457
 30
0.0
 11
438.2707641076
 21
98.2349061926
 31
0.0
  0
LINE
  5
2DB
330
1F
100
AcDbEntity
  8
0
  6
Continuous
 62
     7
370
    25
100
AcDbLine
 10
445.7707644056
 20
100.2349102457
 30
0.0
 11
438.2707641076
 21
100.2349102457
 31
0.0
  0
ARC
  5
2DC
330
1F
100
AcDbEntity
  8
0
  6
Continuous
 62
     7
370
    25
100
AcDbCircle
 10
445.7707639884
 20
107.7349033316
 30
0.0
 40
7.500000000000057
100
AcDbArc
 50
270.0
 51
0.0
  0
LINE
  5
2DD
330
1F
100
AcDbEntity
  8
0
  6
Continuous
 62
     7
370
    25
100
AcDbLine
 10
453.2707647036
 20
111.2349027355
 30
0.0
 11
453.2707647036
 21
107.7349030932
 31
0.0
  0
LINE
  5
2DE
330
1F
100
AcDbEntity
  8
0
  6
Continuous
 62
     7
370
    25
100
AcDbLine
 10
453.2707647036
 20
111.2349027355
 30
0.0
 11
475.2707645844
 21
111.2349027355
 31
0.0
  0
CIRCLE
  5
2DF
330
1F
100
AcDbEntity
  8
0
  6
Continuous
 62
     7
370
    25
100
AcDbCircle
 10
165.2707639884
 20
116.2349033316
 30
0.0
 40
14.00000000000001
  0
CIRCLE
  5
2E0
330
1F
100
AcDbEntity
  8
0
  6
Continuous
 62
     7
370
    25
100
AcDbCircle
 10
505.2707639884
 20
116.2349033316
 30
0.0
 40
14.00000000000001
  0
CIRCLE
  5
2E1
330
1F
100
AcDbEntity
  8
0
  6
Continuous
 62
     7
370
    25
100
AcDbCircle
 10
505.2707639884
 20
386.2349033316
 30
0.0
 40
14.0
  0
ARC
  5
2E2
330
1F
100
AcDbEntity
  8
0
  6
Continuous
 62
     7
370
    25
100
AcDbCircle
 10
142.2707639884
 20
276.2349033316
 30
0.0
 40
5.0
100
AcDbArc
 50
180.0
 51
0.0
  0
LINE
  5
2E3
330
1F
100
AcDbEntity
  8
0
  6
Continuous
 62
     7
370
    25
100
AcDbLine
 10
147.2707704257
 20
316.2349009474
 30
0.0
 11
147.2707704257
 21
276.2349037041
 31
0.0
  0
ARC
  5
2E4
330
1F
100
AcDbEntity
  8
0
  6
Continuous
 62
     7
370
    25
100
AcDbCircle
 10
142.2707639884
 20
316.2349033316
 30
0.0
 40
5.0
100
AcDbArc
 50
0.0
 51
180.0
  0
LINE
  5
2E5
330
1F
100
AcDbEntity
  8
0
  6
Continuous
 62
     7
370
    25
100
AcDbLine
 10
137.2707650613
 20
276.2349037041
 30
0.0
 11
137.2707650613
 21
316.2349009474
 31
0.0
  0
ARC
  5
2E6
330
1F
100
AcDbEntity
  8
0
  6
Continuous
 62
     7
370
    25
100
AcDbCircle
 10
142.2707639884
 20
186.2349033316
 30
0.0
 40
5.000000000000114
100
AcDbArc
 50
180.0
 51
0.0
  0
LINE
  5
2E7
330
1F
100
AcDbEntity
  8
0
  6
Continuous
 62
     7
370
    25
100
AcDbLine
 10
147.2707704257
 20
209.2349038978
 30
0.0
 11
147.2707704257
 21
186.2349057158
 31
0.0
  0
ARC
  5
2E8
330
1F
100
AcDbEntity
  8
0
  6
Continuous
 62
     7
370
    25
100
AcDbCircle
 10
142.2707639884
 20
209.2349033316
 30
0.0
 40
5.000000000000114
100
AcDbArc
 50
0.0
 51
180.0
  0
LINE
  5
2E9
330
1F
100
AcDbEntity
  8
0
  6
Continuous
 62
     7
370
    25
100
AcDbLine
 10
137.2707650613
 20
186.2349057158
 30
0.0
 11
137.2707650613
 21
209.2349038978
 31
0.0
  0
CIRCLE
  5
2EA
330
1F
100
AcDbEntity
  8
0
  6
Continuous
 62
     7
370
    25
100
AcDbCircle
 10
165.2707639884
 20
386.2349033316
 30
0.0
 40
14.0
  0
LINE
  5
2EB
330
1F
100
AcDbEntity
  8
0
  6
Continuous
 62
     7
370
    25
100
AcDbLine
 10
190.8707634162
 20
216.3331316372
 30
0.0
 11
190.8707634162
 21
201.7349035998
 31
0.0
  0
ARC
  5
2EC
330
1F
100
AcDbEntity
  8
0
  6
Continuous
 62
     7
370
    25
100
AcDbCircle
 10
175.8707639884
 20
241.7349033316
 30
0.0
 40
29.50000000000001
100
AcDbArc
 50
300.5622753517
 51
329.4621062562
  0
ARC
  5
2ED
330
1F
100
AcDbEntity
  8
0
  6
Continuous
 62
     7
370
    25
100
AcDbCircle
 10
207.7386161281
 20
222.9349033316
 30
0.0
 40
7.5
100
AcDbArc
 50
90.0
 51
149.4621062562
  0
LINE
  5
2EE
330
1F
100
AcDbEntity
  8
0
  6
Continuous
 62
     7
370
    25
100
AcDbLine
 10
221.770764942
 20
230.434903275
 30
0.0
 11
207.7386096667
 21
230.434903275
 31
0.0
  0
LINE
  5
2EF
330
1F
100
AcDbEntity
  8
0
  6
Continuous
 62
     7
370
    25
100
AcDbLine
 10
221.770764942
 20
217.6326134761
 30
0.0
 11
221.770764942
 21
230.434903275
 31
0.0
  0
LINE
  5
2F0
330
1F
100
AcDbEntity
  8
0
  6
Continuous
 62
     7
370
    25
100
AcDbLine
 10
251.7707661341
 20
217.6326134761
 30
0.0
 11
221.770764942
 21
217.6326134761
 31
0.0
  0
LINE
  5
2F1
330
1F
100
AcDbEntity
  8
0
  6
Continuous
 62
     7
370
    25
100
AcDbLine
 10
251.7707661341
 20
228.2349032869
 30
0.0
 11
251.7707661341
 21
217.6326134761
 31
0.0
  0
LINE
  5
2F2
330
1F
100
AcDbEntity
  8
0
  6
Continuous
 62
     7
370
    25
100
AcDbLine
 10
264.7707626771
 20
228.2349032869
 30
0.0
 11
251.7707661341
 21
228.2349032869
 31
0.0
  0
ARC
  5
2F3
330
1F
100
AcDbEntity
  8
0
  6
Continuous
 62
     7
370
    25
100
AcDbCircle
 10
264.7707639884
 20
230.2349033316
 30
0.0
 40
2.0
100
AcDbArc
 50
270.0
 51
0.0
  0
LINE
  5
2F4
330
1F
100
AcDbEntity
  8
0
  6
Continuous
 62
     7
370
    25
100
AcDbLine
 10
266.7707667302
 20
232.2349039425
 30
0.0
 11
266.7707667302
 21
230.2349036147
 31
0.0
  0
ARC
  5
2F5
330
1F
100
AcDbEntity
  8
0
  6
Continuous
 62
     7
370
    25
100
AcDbCircle
 10
264.7707639884
 20
232.2349033316
 30
0.0
 40
2.0
100
AcDbArc
 50
0.0
 51
90.0
  0
LINE
  5
2F6
330
1F
100
AcDbEntity
  8
0
  6
Continuous
 62
     7
370
    25
100
AcDbLine
 10
262.2707650613
 20
234.2349024077
 30
0.0
 11
264.7707626771
 21
234.2349024077
 31
0.0
  0
ARC
  5
2F7
330
1F
100
AcDbEntity
  8
0
  6
Continuous
 62
     7
370
    25
100
AcDbCircle
 10
262.2707639884
 20
236.2349033316
 30
0.0
 40
2.0
100
AcDbArc
 50
180.0
 51
270.0
  0
LINE
  5
2F8
330
1F
100
AcDbEntity
  8
0
  6
Continuous
 62
     7
370
    25
100
AcDbLine
 10
260.2707610081
 20
247.2349031416
 30
0.0
 11
260.2707610081
 21
236.2349036669
 31
0.0
  0
ARC
  5
2F9
330
1F
100
AcDbEntity
  8
0
  6
Continuous
 62
     7
370
    25
100
AcDbCircle
 10
262.2707639884
 20
247.2349033316
 30
0.0
 40
2.0
100
AcDbArc
 50
90.0
 51
180.0
  0
LINE
  5
2FA
330
1F
100
AcDbEntity
  8
0
  6
Continuous
 62
     7
370
    25
100
AcDbLine
 10
264.7707626771
 20
249.2349032366
 30
0.0
 11
262.2707650613
 21
249.2349032366
 31
0.0
  0
ARC
  5
2FB
330
1F
100
AcDbEntity
  8
0
  6
Continuous
 62
     7
370
    25
100
AcDbCircle
 10
264.7707639884
 20
251.2349033316
 30
0.0
 40
2.0
100
AcDbArc
 50
270.0
 51
0.0
  0
LINE
  5
2FC
330
1F
100
AcDbEntity
  8
0
  6
Continuous
 62
     7
370
    25
100
AcDbLine
 10
266.7707667302
 20
269.2349025567
 30
0.0
 11
266.7707667302
 21
251.2349033316
 31
0.0
  0
ARC
  5
2FD
330
1F
100
AcDbEntity
  8
0
  6
Continuous
 62
     7
370
    25
100
AcDbCircle
 10
264.7707639884
 20
269.2349033316
 30
0.0
 40
2.0
100
AcDbArc
 50
0.0
 51
90.0
  0
LINE
  5
2FE
330
1F
100
AcDbEntity
  8
0
  6
Continuous
 62
     7
370
    25
100
AcDbLine
 10
251.7707661341
 20
271.2349028846
 30
0.0
 11
264.7707626771
 21
271.2349028846
 31
0.0
  0
LINE
  5
2FF
330
1F
100
AcDbEntity
  8
0
  6
Continuous
 62
     7
370
    25
100
AcDbLine
 10
251.7707661341
 20
284.8371931871
 30
0.0
 11
251.7707661341
 21
271.2349028846
 31
0.0
  0
LINE
  5
300
330
1F
100
AcDbEntity
  8
0
  6
Continuous
 62
     7
370
    25
100
AcDbLine
 10
221.770764942
 20
284.8371931871
 30
0.0
 11
251.7707661341
 21
284.8371931871
 31
0.0
  0
LINE
  5
301
330
1F
100
AcDbEntity
  8
0
  6
Continuous
 62
     7
370
    25
100
AcDbLine
 10
221.770764942
 20
270.0349030604
 30
0.0
 11
221.770764942
 21
284.8371931871
 31
0.0
  0
LINE
  5
302
330
1F
100
AcDbEntity
  8
0
  6
Continuous
 62
     7
370
    25
100
AcDbLine
 10
216.346146221
 20
270.0349030604
 30
0.0
 11
221.770764942
 21
270.0349030604
 31
0.0
  0
ARC
  5
303
330
1F
100
AcDbEntity
  8
0
  6
Continuous
 62
     7
370
    25
100
AcDbCircle
 10
205.3707639884
 20
269.2993772105
 30
0.0
 40
11.00000000000005
100
AcDbArc
 50
3.8340008615
 51
55.0
  0
LINE
  5
304
330
1F
100
AcDbEntity
  8
0
  6
Continuous
 62
     7
370
    25
100
AcDbLine
 10
197.4528894375
 20
288.2720524033
 30
0.0
 11
211.6801083635
 21
278.3100505878
 31
0.0
  0
ARC
  5
305
330
1F
100
AcDbEntity
  8
0
  6
Continuous
 62
     7
370
    25
100
AcDbCircle
 10
191.1435488846
 20
279.2613804739
 30
0.0
 40
11.00000000000001
100
AcDbArc
 50
55.0
 51
80.9660573558
  0
LINE
  5
306
330
1F
100
AcDbEntity
  8
0
  6
Continuous
 62
     7
370
    25
100
AcDbLine
 10
192.8707674693
 20
291.7349034508
 30
0.0
 11
192.8707674693
 21
290.1249298414
 31
0.0
  0
LINE
  5
307
330
1F
100
AcDbEntity
  8
0
  6
Continuous
 62
     7
370
    25
100
AcDbLine
 10
190.8707634162
 20
291.7349034508
 30
0.0
 11
192.8707674693
 21
291.7349034508
 31
0.0
  0
LINE
  5
308
330
1F
100
AcDbEntity
  8
0
  6
Continuous
 62
     7
370
    25
100
AcDbLine
 10
190.8707634162
 20
301.7349050899
 30
0.0
 11
190.8707634162
 21
291.7349034508
 31
0.0
  0
LINE
  5
309
330
1F
100
AcDbEntity
  8
0
  6
Continuous
 62
     7
370
    25
100
AcDbLine
 10
160.8707622241
 20
301.7349050899
 30
0.0
 11
190.8707634162
 21
301.7349050899
 31
0.0
  0
LINE
  5
30A
330
1F
100
AcDbEntity
  8
0
  6
Continuous
 62
     7
370
    25
100
AcDbLine
 10
160.8707622241
 20
291.7349034508
 30
0.0
 11
160.8707622241
 21
301.7349050899
 31
0.0
  0
LINE
  5
30B
330
1F
100
AcDbEntity
  8
0
  6
Continuous
 62
     7
370
    25
100
AcDbLine
 10
158.870758171
 20
291.7349034508
 30
0.0
 11
160.8707622241
 21
291.7349034508
 31
0.0
  0
LINE
  5
30C
330
1F
100
AcDbEntity
  8
0
  6
Continuous
 62
     7
370
    25
100
AcDbLine
 10
158.870758171
 20
269.4612437447
 30
0.0
 11
158.870758171
 21
291.7349034508
 31
0.0
  0
ARC
  5
30D
330
1F
100
AcDbEntity
  8
0
  6
Continuous
 62
     7
370
    25
100
AcDbCircle
 10
151.3707639884
 20
269.4612445976
 30
0.0
 40
7.500000000000028
100
AcDbArc
 50
311.4649807752
 51
0.0
  0
ARC
  5
30E
330
1F
100
AcDbEntity
  8
0
  6
Continuous
 62
     7
370
    25
100
AcDbCircle
 10
175.8707639884
 20
241.7349033316
 30
0.0
 40
29.5
100
AcDbArc
 50
131.4649807752
 51
239.4377246483
  0
LINE
  5
30F
330
1F
100
AcDbEntity
  8
0
  6
Continuous
 62
     7
370
    25
100
AcDbLine
 10
160.8707622241
 20
201.7349035998
 30
0.0
 11
160.8707622241
 21
216.3331316372
 31
0.0
  0
LINE
  5
310
330
1F
100
AcDbEntity
  8
0
  6
Continuous
 62
     7
370
    25
100
AcDbLine
 10
190.8707634162
 20
201.7349035998
 30
0.0
 11
160.8707622241
 21
201.7349035998
 31
0.0
  0
LINE
  5
311
330
1F
100
AcDbEntity
  8
0
  6
Continuous
 62
     7
370
    25
100
AcDbLine
 10
125.2707705449
 20
171.2349051197
 30
0.0
 11
135.2707610081
 21
171.2349051197
 31
0.0
  0
LINE
  5
312
330
1F
100
AcDbEntity
  8
0
  6
Continuous
 62
     7
370
    25
100
AcDbLine
 10
125.2707705449
 20
171.2349051197
 30
0.0
 11
125.2707705449
 21
331.2349015435
 31
0.0
  0
LINE
  5
313
330
1F
100
AcDbEntity
  8
0
  6
Continuous
 62
     7
370
    25
100
AcDbLine
 10
135.2707610081
 20
331.2349015435
 30
0.0
 11
125.2707705449
 21
331.2349015435
 31
0.0
  0
LINE
  5
314
330
1F
100
AcDbEntity
  8
0
  6
Continuous
 62
     7
370
    25
100
AcDbLine
 10
135.2707610081
 20
361.2349027355
 30
0.0
 11
135.2707610081
 21
331.2349015435
 31
0.0
  0
LINE
  5
315
330
1F
100
AcDbEntity
  8
0
  6
Continuous
 62
     7
370
    25
100
AcDbLine
 10
125.2707705449
 20
361.2349027355
 30
0.0
 11
135.2707610081
 21
361.2349027355
 31
0.0
  0
LINE
  5
316
330
1F
100
AcDbEntity
  8
0
  6
Continuous
 62
     7
370
    25
100
AcDbLine
 10
125.2707705449
 20
361.2349027355
 30
0.0
 11
125.2707705449
 21
366.2349054178
 31
0.0
  0
ARC
  5
317
330
1F
100
AcDbEntity
  8
0
  6
Continuous
 62
     7
370
    25
100
AcDbCircle
 10
175.2707639884
 20
366.2349033316
 30
0.0
 40
50.0
100
AcDbArc
 50
90.0
 51
180.0
  0
LINE
  5
318
330
1F
100
AcDbEntity
  8
0
  6
Continuous
 62
     7
370
    25
100
AcDbLine
 10
175.2707675646
 20
416.2349098881
 30
0.0
 11
495.2707604121
 21
416.2349098881
 31
0.0
  0
ARC
  5
319
330
1F
100
AcDbEntity
  8
0
  6
Continuous
 62
     7
370
    25
100
AcDbCircle
 10
495.2707639884
 20
366.2349033316
 30
0.0
 40
49.99999999999994
100
AcDbArc
 50
0.0
 51
90.0
  0
LINE
  5
31A
330
1F
100
AcDbEntity
  8
0
  6
Continuous
 62
     7
370
    25
100
AcDbLine
 10
545.2707574319
 20
366.2349054178
 30
0.0
 11
545.2707574319
 21
361.2349027355
 31
0.0
  0
LINE
  5
31B
330
1F
100
AcDbEntity
  8
0
  6
Continuous
 62
     7
370
    25
100
AcDbLine
 10
535.2707669686
 20
361.2349027355
 30
0.0
 11
545.2707574319
 21
361.2349027355
 31
0.0
  0
LINE
  5
31C
330
1F
100
AcDbEntity
  8
0
  6
Continuous
 62
     7
370
    25
100
AcDbLine
 10
535.2707669686
 20
331.2349015435
 30
0.0
 11
535.2707669686
 21
361.2349027355
 31
0.0
  0
LINE
  5
31D
330
1F
100
AcDbEntity
  8
0
  6
Continuous
 62
     7
370
    25
100
AcDbLine
 10
545.2707574319
 20
331.2349015435
 30
0.0
 11
535.2707669686
 21
331.2349015435
 31
0.0
  0
LINE
  5
31E
330
1F
100
AcDbEntity
  8
0
  6
Continuous
 62
     7
370
    25
100
AcDbLine
 10
545.2707574319
 20
331.2349015435
 30
0.0
 11
545.2707574319
 21
171.2349051197
 31
0.0
  0
LINE
  5
31F
330
1F
100
AcDbEntity
  8
0
  6
Continuous
 62
     7
370
    25
100
AcDbLine
 10
535.2707669686
 20
171.2349051197
 30
0.0
 11
545.2707574319
 21
171.2349051197
 31
0.0
  0
LINE
  5
320
330
1F
100
AcDbEntity
  8
0
  6
Continuous
 62
     7
370
    25
100
AcDbLine
 10
535.2707669686
 20
141.2349039276
 30
0.0
 11
535.2707669686
 21
171.2349051197
 31
0.0
  0
LINE
  5
321
330
1F
100
AcDbEntity
  8
0
  6
Continuous
 62
     7
370
    25
100
AcDbLine
 10
545.2707574319
 20
141.2349039276
 30
0.0
 11
535.2707669686
 21
141.2349039276
 31
0.0
  0
LINE
  5
322
330
1F
100
AcDbEntity
  8
0
  6
Continuous
 62
     7
370
    25
100
AcDbLine
 10
545.2707574319
 20
141.2349039276
 30
0.0
 11
545.2707574319
 21
136.2349012454
 31
0.0
  0
ARC
  5
323
330
1F
100
AcDbEntity
  8
0
  6
Continuous
 62
     7
370
    25
100
AcDbCircle
 10
495.2707639884
 20
136.2349033316
 30
0.0
 40
50.00000000000001
100
AcDbArc
 50
270.0
 51
0.0
  0
LINE
  5
324
330
1F
100
AcDbEntity
  8
0
  6
Continuous
 62
     7
370
    25
100
AcDbLine
 10
495.2707604121
 20
86.2348967751
 30
0.0
 11
175.2707675646
 21
86.2348967751
 31
0.0
  0
ARC
  5
325
330
1F
100
AcDbEntity
  8
0
  6
Continuous
 62
     7
370
    25
100
AcDbCircle
 10
175.2707639884
 20
136.2349033316
 30
0.0
 40
50.00000000000001
100
AcDbArc
 50
180.0
 51
270.0
  0
LINE
  5
326
330
1F
100
AcDbEntity
  8
0
  6
Continuous
 62
     7
370
    25
100
AcDbLine
 10
125.2707705449
 20
136.2349012454
 30
0.0
 11
125.2707705449
 21
141.2349039276
 31
0.0
  0
LINE
  5
327
330
1F
100
AcDbEntity
  8
0
  6
Continuous
 62
     7
370
    25
100
AcDbLine
 10
135.2707610081
 20
141.2349039276
 30
0.0
 11
125.2707705449
 21
141.2349039276
 31
0.0
  0
LINE
  5
328
330
1F
100
AcDbEntity
  8
0
  6
Continuous
 62
     7
370
    25
100
AcDbLine
 10
135.2707610081
 20
171.2349051197
 30
0.0
 11
135.2707610081
 21
141.2349039276
 31
0.0
  0
SPLINE
  5
329
330
1F
100
AcDbEntity
  8
0
  6
Continuous
 62
     7
370
    25
100
AcDbSpline
210
0.0
220
0.0
230
1.0
 70
     8
 71
     3
 72
    65
 73
    61
 74
     0
 42
0.000000001
 43
0.00000001
 40
0.0
 40
0.0
 40
0.0
 40
0.0
 40
0.0139171077064041
 40
0.027723043042082
 40
0.041430986861082
 40
0.0550544044450724
 40
0.0686070130228116
 40
0.0821027457382254
 40
0.0955557124541987
 40
0.1089801578828625
 40
0.1223904176247175
 40
0.1358008727732828
 40
0.1492259037941085
 40
0.1626798444138461
 40
0.1761769362546637
 40
0.1897312849218019
 40
0.2033568181991471
 40
0.2170672469329425
 40
0.230876029091691
 40
0.2447963373864772
 40
0.258841030726196
 40
0.2730226296720992
 40
0.2873532959507102
 40
0.3018448159878304
 40
0.3165085883419781
 40
0.3313556148453987
 40
0.3463964952053687
 40
0.361641424778294
 40
0.3771001952027067
 40
0.3927821975639129
 40
0.4086964277604938
 40
0.4248514937496344
 40
0.4412556243620141
 40
0.4579166793962352
 40
0.4748421607255635
 40
0.4920392241747809
 40
0.509514691950898
 40
0.5272750654374734
 40
0.5453265381874182
 40
0.5636750089730761
 40
0.582326094774527
 40
0.6012851436073352
 40
0.6205572471092211
 40
0.6401472528213359
 40
0.6600597761141015
 40
0.6802992117198635
 40
0.7008697448453232
 40
0.7217753618455981
 40
0.7430198604494602
 40
0.7646068595314944
 40
0.7865398084321021
 40
0.80882199583048
 40
0.831456558178957
 40
0.8544464877096967
 40
0.8777946400267557
 40
0.9015037412978629
 40
0.9255763950613635
 40
0.9500150886643771
 40
0.9748221993485613
 40
1.0
 40
1.0
 40
1.0
 40
1.0
 10
193.7707639883686
 20
392.4349033315929
 30
0.0
 10
193.7952662897774
 20
392.5357203274334
 30
0.0
 10
193.8440751637843
 20
392.736548974737
 30
0.0
 10
193.9285929148818
 20
393.0336792779412
 30
0.0
 10
194.0210196954674
 20
393.3261143093317
 30
0.0
 10
194.1221714585643
 20
393.6136626129648
 30
0.0
 10
194.231832063222
 20
393.8963737752219
 30
0.0
 10
194.3500590341017
 20
394.1742333825887
 30
0.0
 10
194.4768370263648
 20
394.4472439983647
 30
0.0
 10
194.6121699176299
 20
394.7154036679506
 30
0.0
 10
194.7560562960522
 20
394.9787116672666
 30
0.0
 10
194.9084959996194
 20
395.237166997588
 30
0.0
 10
195.0694883805427
 20
395.4907688133262
 30
0.0
 10
195.2390327845995
 20
395.7395163310716
 30
0.0
 10
195.4171284421344
 20
395.9834088738899
 30
0.0
 10
195.6037745199423
 20
396.2224458750539
 30
0.0
 10
195.7989701321258
 20
396.4566268878006
 30
0.0
 10
196.0027143629638
 20
396.6859515883741
 30
0.0
 10
196.2150062863786
 20
396.9104197758498
 30
0.0
 10
196.4358449850955
 20
397.1300313681429
 30
0.0
 10
196.665229567771
 20
397.3447863949275
 30
0.0
 10
196.9031591838629
 20
397.5546849880036
 30
0.0
 10
197.1496330358479
 20
397.7597273697851
 30
0.0
 10
197.4046503886553
 20
397.9599138405737
 30
0.0
 10
197.6682105763282
 20
398.1552447652559
 30
0.0
 10
197.9403130060558
 20
398.3457205599845
 30
0.0
 10
198.2209571598262
 20
398.5313416793197
 30
0.0
 10
198.5101425940086
 20
398.7121086042022
 30
0.0
 10
198.8078689372184
 20
398.8880218310249
 30
0.0
 10
199.1141358868221
 20
399.059081861972
 30
0.0
 10
199.4289432044289
 20
399.2252891967149
 30
0.0
 10
199.7522907106898
 20
399.3866443254689
 30
0.0
 10
200.0841782796832
 20
399.5431477233745
 30
0.0
 10
200.4246058331285
 20
399.6947998461114
 30
0.0
 10
200.7735733346211
 20
399.8416011266343
 30
0.0
 10
201.1310807840376
 20
399.9835519729019
 30
0.0
 10
201.4971282122289
 20
400.1206527664616
 30
0.0
 10
201.8717156760728
 20
400.2529038617579
 30
0.0
 10
202.2548432539401
 20
400.3803055860343
 30
0.0
 10
202.6465110415938
 20
400.5028582397142
 30
0.0
 10
203.0467191485321
 20
400.6205620971516
 30
0.0
 10
203.4554676947614
 20
400.7334174076623
 30
0.0
 10
203.8727568079838
 20
400.8414243967561
 30
0.0
 10
204.2985866211721
 20
400.944583267499
 30
0.0
 10
204.7329572705011
 20
401.0428942019632
 30
0.0
 10
205.1758688936033
 20
401.1363573626856
 30
0.0
 10
205.6273216281121
 20
401.2249728942205
 30
0.0
 10
206.0873156104777
 20
401.3087409243057
 30
0.0
 10
206.5558509749528
 20
401.3876615663533
 30
0.0
 10
207.0329278529899
 20
401.4617349166397
 30
0.0
 10
207.5185463719915
 20
401.5309610714428
 30
0.0
 10
208.0127066573303
 20
401.5953400675949
 30
0.0
 10
208.5154088225516
 20
401.6548721153278
 30
0.0
 10
209.0266530053081
 20
401.7095567138831
 30
0.0
 10
209.5464392290665
 20
401.7593960349736
 30
0.0
 10
210.0747679307133
 20
401.8043820039725
 30
0.0
 10
210.6116379454264
 20
401.8445456391382
 30
0.0
 10
211.1570542007162
 20
401.8797686711429
 30
0.0
 10
211.7109983452848
 20
401.9105026730829
 30
0.0
 10
212.0832552170577
 20
401.9267296654294
 30
0.0
 10
212.2707639883686
 20
401.9349033315929
 30
0.0
  0
LINE
  5
32A
330
1F
100
AcDbEntity
  8
0
  6
Continuous
 62
     7
370
    25
100
AcDbLine
 10
212.2707605909
 20
401.9349062403
 30
0.0
 11
212.2707605909
 21
397.7349096497
 31
0.0
  0
MTEXT
  5
32B
330
1F
100
AcDbEntity
  8
0
  6
Continuous
 62
     7
370
     0
100
AcDbMText
 10
298.3910289528
 20
459.9138436426
 30
0.0
 40
19.05
 41
0.0
 71
     1
 72
     1
  1
50mm
  7
SLDTEXTSTYLE0
 73
     1
 44
1.0
  0
ENDSEC
  0
SECTION
  2
OBJECTS
  0
DICTIONARY
  5
C
330
0
100
AcDbDictionary
281
     1
  3
ACAD_GROUP
350
D
  3
ACAD_LAYOUT
350
1A
  3
ACAD_MLINESTYLE
350
17
  3
ACAD_PLOTSETTINGS
350
19
  3
ACAD_PLOTSTYLENAME
350
E
  3
ACAD_SCALELIST
350
47
  0
DICTIONARY
  5
D
102
{ACAD_REACTORS
330
C
102
}
330
C
100
AcDbDictionary
281
     1
  0
DICTIONARY
  5
1A
102
{ACAD_REACTORS
330
C
102
}
330
C
100
AcDbDictionary
281
     1
  3
Layout1
350
1E
  3
Layout2
350
26
  3
Model
350
22
  0
DICTIONARY
  5
17
102
{ACAD_REACTORS
330
C
102
}
330
C
100
AcDbDictionary
281
     1
  3
Standard
350
18
  0
DICTIONARY
  5
19
102
{ACAD_REACTORS
330
C
102
}
330
C
100
AcDbDictionary
281
     1
  0
ACDBDICTIONARYWDFLT
  5
E
102
{ACAD_REACTORS
330
C
102
}
330
C
100
AcDbDictionary
281
     1
  3
Normal
350
F
100
AcDbDictionaryWithDefault
340
F
  0
DICTIONARY
  5
47
102
{ACAD_REACTORS
330
C
102
}
330
C
100
AcDbDictionary
281
     1
  3
A0
350
48
  3
A1
350
49
  3
A2
350
4A
  3
A3
350
4B
  3
A4
350
4C
  3
A5
350
4D
  3
A6
350
4E
  3
A7
350
4F
  3
A8
350
50
  3
A9
350
51
  3
B0
350
52
  3
B1
350
53
  3
B2
350
54
  3
B3
350
55
  3
B4
350
56
  3
B5
350
57
  3
B6
350
58
  3
B7
350
59
  3
B8
350
5A
  3
B9
350
5B
  3
C0
350
5C
  3
C1
350
5D
  3
C2
350
5E
  3
C3
350
5F
  3
C4
350
60
  3
C5
350
61
  3
C6
350
62
  3
C7
350
63
  3
C8
350
64
  3
C9
350
65
  3
D0
350
66
  3
D1
350
67
  3
D2
350
68
  0
LAYOUT
  5
1E
102
{ACAD_REACTORS
330
1A
102
}
330
1A
100
AcDbPlotSettings
  1

  2
none_device
  4

  6

 40
0.0
 41
0.0
 42
0.0
 43
0.0
 44
0.0
 45
0.0
 46
0.0
 47
0.0
 48
0.0
 49
0.0
140
0.0
141
0.0
142
1.0
143
1.0
 70
   688
 72
     1
 73
     0
 74
     5
  7

 75
    16
147
1.0
148
0.0
149
0.0
100
AcDbLayout
  1
Layout1
 70
     1
 71
     1
 10
0.0
 20
0.0
 11
420.0
 21
297.0
 12
0.0
 22
0.0
 32
0.0
 14
1.0000000000E+20
 24
1.0000000000E+20
 34
1.0000000000E+20
 15
-1.0000000000E+20
 25
-1.0000000000E+20
 35
-1.0000000000E+20
146
0.0
 13
0.0
 23
0.0
 33
0.0
 16
1.0
 26
0.0
 36
0.0
 17
0.0
 27
1.0
 37
0.0
 76
     0
330
1B
  0
LAYOUT
  5
26
102
{ACAD_REACTORS
330
1A
102
}
330
1A
100
AcDbPlotSettings
  1

  2
none_device
  4

  6

 40
0.0
 41
0.0
 42
0.0
 43
0.0
 44
0.0
 45
0.0
 46
0.0
 47
0.0
 48
0.0
 49
0.0
140
0.0
141
0.0
142
1.0
143
1.0
 70
   688
 72
     1
 73
     0
 74
     5
  7

 75
    16
147
1.0
148
0.0
149
0.0
100
AcDbLayout
  1
Layout2
 70
     1
 71
     2
 10
0.0
 20
0.0
 11
0.0
 21
0.0
 12
0.0
 22
0.0
 32
0.0
 14
0.0
 24
0.0
 34
0.0
 15
0.0
 25
0.0
 35
0.0
146
0.0
 13
0.0
 23
0.0
 33
0.0
 16
1.0
 26
0.0
 36
0.0
 17
0.0
 27
1.0
 37
0.0
 76
     0
330
23
  0
LAYOUT
  5
22
102
{ACAD_REACTORS
330
1A
102
}
330
1A
100
AcDbPlotSettings
  1

  2
none_device
  4
Letter_(8.50_x_11.00_Inches)
  6

 40
6.35
 41
6.35
 42
6.35000508
 43
6.35000508
 44
215.9
 45
279.4
 46
0.0
 47
0.0
 48
0.0
 49
0.0
140
0.0
141
0.0
142
1.0
143
1.0
 70
  1712
 72
     1
 73
     0
 74
     0
  7

 75
     0
147
1.0
148
0.0
149
0.0
100
AcDbLayout
  1
Model
 70
     1
 71
     0
 10
0.0
 20
0.0
 11
1200.0
 21
500.0
 12
0.0
 22
0.0
 32
0.0
 14
0.0
 24
0.0
 34
0.0
 15
1200.0
 25
500.0
 35
0.0
146
0.0
 13
0.0
 23
0.0
 33
0.0
 16
1.0
 26
0.0
 36
0.0
 17
0.0
 27
1.0
 37
0.0
 76
     0
330
1F
331
29
  0
MLINESTYLE
  5
18
102
{ACAD_REACTORS
330
17
102
}
330
17
100
AcDbMlineStyle
  2
Standard
 70
     0
  3

 62
   256
 51
90.0
 52
90.0
 71
     2
 49
0.5
 62
   256
  6
BYLAYER
 49
-0.5
 62
   256
  6
BYLAYER
  0
ACDBPLACEHOLDER
  5
F
102
{ACAD_REACTORS
330
E
102
}
330
E
  0
SCALE
  5
48
102
{ACAD_REACTORS
330
47
102
}
330
47
100
AcDbScale
 70
     0
300
1:1
140
1.0
141
1.0
290
     1
  0
SCALE
  5
49
102
{ACAD_REACTORS
330
47
102
}
330
47
100
AcDbScale
 70
     0
300
1:2
140
1.0
141
2.0
290
     0
  0
SCALE
  5
4A
102
{ACAD_REACTORS
330
47
102
}
330
47
100
AcDbScale
 70
     0
300
1:4
140
1.0
141
4.0
290
     0
  0
SCALE
  5
4B
102
{ACAD_REACTORS
330
47
102
}
330
47
100
AcDbScale
 70
     0
300
1:5
140
1.0
141
5.0
290
     0
  0
SCALE
  5
4C
102
{ACAD_REACTORS
330
47
102
}
330
47
100
AcDbScale
 70
     0
300
1:8
140
1.0
141
8.0
290
     0
  0
SCALE
  5
4D
102
{ACAD_REACTORS
330
47
102
}
330
47
100
AcDbScale
 70
     0
300
1:10
140
1.0
141
10.0
290
     0
  0
SCALE
  5
4E
102
{ACAD_REACTORS
330
47
102
}
330
47
100
AcDbScale
 70
     0
300
1:16
140
1.0
141
16.0
290
     0
  0
SCALE
  5
4F
102
{ACAD_REACTORS
330
47
102
}
330
47
100
AcDbScale
 70
     0
300
1:20
140
1.0
141
20.0
290
     0
  0
SCALE
  5
50
102
{ACAD_REACTORS
330
47
102
}
330
47
100
AcDbScale
 70
     0
300
1:30
140
1.0
141
30.0
290
     0
  0
SCALE
  5
51
102
{ACAD_REACTORS
330
47
102
}
330
47
100
AcDbScale
 70
     0
300
1:40
140
1.0
141
40.0
290
     0
  0
SCALE
  5
52
102
{ACAD_REACTORS
330
47
102
}
330
47
100
AcDbScale
 70
     0
300
1:50
140
1.0
141
50.0
290
     0
  0
SCALE
  5
53
102
{ACAD_REACTORS
330
47
102
}
330
47
100
AcDbScale
 70
     0
300
1:100
140
1.0
141
100.0
290
     0
  0
SCALE
  5
54
102
{ACAD_REACTORS
330
47
102
}
330
47
100
AcDbScale
 70
     0
300
2:1
140
2.0
141
1.0
290
     0
  0
SCALE
  5
55
102
{ACAD_REACTORS
330
47
102
}
330
47
100
AcDbScale
 70
     0
300
4:1
140
4.0
141
1.0
290
     0
  0
SCALE
  5
56
102
{ACAD_REACTORS
330
47
102
}
330
47
100
AcDbScale
 70
     0
300
8:1
140
8.0
141
1.0
290
     0
  0
SCALE
  5
57
102
{ACAD_REACTORS
330
47
102
}
330
47
100
AcDbScale
 70
     0
300
10:1
140
10.0
141
1.0
290
     0
  0
SCALE
  5
58
102
{ACAD_REACTORS
330
47
102
}
330
47
100
AcDbScale
 70
     0
300
100:1
140
100.0
141
1.0
290
     0
  0
SCALE
  5
59
102
{ACAD_REACTORS
330
47
102
}
330
47
100
AcDbScale
 70
     0
300
1/128" = 1'-0"
140
0.0078125
141
12.0
290
     0
  0
SCALE
  5
5A
102
{ACAD_REACTORS
330
47
102
}
330
47
100
AcDbScale
 70
     0
300
1/64" = 1'-0"
140
0.015625
141
12.0
290
     0
  0
SCALE
  5
5B
102
{ACAD_REACTORS
330
47
102
}
330
47
100
AcDbScale
 70
     0
300
1/32" = 1'-0"
140
0.03125
141
12.0
290
     0
  0
SCALE
  5
5C
102
{ACAD_REACTORS
330
47
102
}
330
47
100
AcDbScale
 70
     0
300
1/16" = 1'-0"
140
0.0625
141
12.0
290
     0
  0
SCALE
  5
5D
102
{ACAD_REACTORS
330
47
102
}
330
47
100
AcDbScale
 70
     0
300
3/32" = 1'-0"
140
0.09375
141
12.0
290
     0
  0
SCALE
  5
5E
102
{ACAD_REACTORS
330
47
102
}
330
47
100
AcDbScale
 70
     0
300
1/8" = 1'-0"
140
0.125
141
12.0
290
     0
  0
SCALE
  5
5F
102
{ACAD_REACTORS
330
47
102
}
330
47
100
AcDbScale
 70
     0
300
3/16" = 1'-0"
140
0.1875
141
12.0
290
     0
  0
SCALE
  5
60
102
{ACAD_REACTORS
330
47
102
}
330
47
100
AcDbScale
 70
     0
300
1/4" = 1'-0"
140
0.25
141
12.0
290
     0
  0
SCALE
  5
61
102
{ACAD_REACTORS
330
47
102
}
330
47
100
AcDbScale
 70
     0
300
3/8" = 1'-0"
140
0.375
141
12.0
290
     0
  0
SCALE
  5
62
102
{ACAD_REACTORS
330
47
102
}
330
47
100
AcDbScale
 70
     0
300
1/2" = 1'-0"
140
0.5
141
12.0
290
     0
  0
SCALE
  5
63
102
{ACAD_REACTORS
330
47
102
}
330
47
100
AcDbScale
 70
     0
300
3/4" = 1'-0"
140
0.75
141
12.0
290
     0
  0
SCALE
  5
64
102
{ACAD_REACTORS
330
47
102
}
330
47
100
AcDbScale
 70
     0
300
1" = 1'-0"
140
1.0
141
12.0
290
     0
  0
SCALE
  5
65
102
{ACAD_REACTORS
330
47
102
}
330
47
100
AcDbScale
 70
     0
300
1-1/2" = 1'-0"
140
1.5
141
12.0
290
     0
  0
SCALE
  5
66
102
{ACAD_REACTORS
330
47
102
}
330
47
100
AcDbScale
 70
     0
300
3" = 1'-0"
140
3.0
141
12.0
290
     0
  0
SCALE
  5
67
102
{ACAD_REACTORS
330
47
102
}
330
47
100
AcDbScale
 70
     0
300
6" = 1'-0"
140
6.0
141
12.0
290
     0
  0
SCALE
  5
68
102
{ACAD_REACTORS
330
47
102
}
330
47
100
AcDbScale
 70
     0
300
1'-0" = 1'-0"
140
12.0
141
12.0
290
     0
  0
ENDSEC
  0
EOF
