G04 #@! TF.GenerationSoftware,KiCad,Pcbnew,(5.0.1)-4*
G04 #@! TF.CreationDate,2018-12-02T18:21:00+01:00*
G04 #@! TF.ProjectId,XD-M11C-01-12,58442D4D3131432D30312D31322E6B69,rev?*
G04 #@! TF.SameCoordinates,Original*
G04 #@! TF.FileFunction,Soldermask,Top*
G04 #@! TF.FilePolarity,Negative*
%FSLAX46Y46*%
G04 Gerber Fmt 4.6, Leading zero omitted, Abs format (unit mm)*
G04 Created by KiCad (PCBNEW (5.0.1)-4) date 02.12.2018 18:21:00*
%MOMM*%
%LPD*%
G01*
G04 APERTURE LIST*
%ADD10C,0.100000*%
G04 APERTURE END LIST*
D10*
G36*
X203886000Y-151501000D02*
X203134000Y-151501000D01*
X203134000Y-149399000D01*
X203886000Y-149399000D01*
X203886000Y-151501000D01*
X203886000Y-151501000D01*
G37*
G36*
X201346000Y-151501000D02*
X200594000Y-151501000D01*
X200594000Y-149399000D01*
X201346000Y-149399000D01*
X201346000Y-151501000D01*
X201346000Y-151501000D01*
G37*
G36*
X200076000Y-151501000D02*
X199324000Y-151501000D01*
X199324000Y-149399000D01*
X200076000Y-149399000D01*
X200076000Y-151501000D01*
X200076000Y-151501000D01*
G37*
G36*
X198806000Y-151501000D02*
X198054000Y-151501000D01*
X198054000Y-149399000D01*
X198806000Y-149399000D01*
X198806000Y-151501000D01*
X198806000Y-151501000D01*
G37*
G36*
X197536000Y-151501000D02*
X196784000Y-151501000D01*
X196784000Y-149399000D01*
X197536000Y-149399000D01*
X197536000Y-151501000D01*
X197536000Y-151501000D01*
G37*
G36*
X202616000Y-151501000D02*
X201864000Y-151501000D01*
X201864000Y-149399000D01*
X202616000Y-149399000D01*
X202616000Y-151501000D01*
X202616000Y-151501000D01*
G37*
G36*
X203006552Y-147766331D02*
X203088625Y-147800327D01*
X203088626Y-147800328D01*
X203088629Y-147800329D01*
X203162496Y-147849686D01*
X203162500Y-147849689D01*
X203225311Y-147912500D01*
X203225313Y-147912503D01*
X203225314Y-147912504D01*
X203274671Y-147986371D01*
X203274672Y-147986374D01*
X203274673Y-147986375D01*
X203308669Y-148068448D01*
X203326000Y-148155579D01*
X203326000Y-148244421D01*
X203308669Y-148331552D01*
X203274673Y-148413625D01*
X203274671Y-148413629D01*
X203225314Y-148487496D01*
X203225311Y-148487500D01*
X203162500Y-148550311D01*
X203162497Y-148550313D01*
X203162496Y-148550314D01*
X203088629Y-148599671D01*
X203088626Y-148599672D01*
X203088625Y-148599673D01*
X203006552Y-148633669D01*
X202919421Y-148651000D01*
X202830579Y-148651000D01*
X202743448Y-148633669D01*
X202661375Y-148599673D01*
X202661374Y-148599672D01*
X202661371Y-148599671D01*
X202587504Y-148550314D01*
X202587503Y-148550313D01*
X202587500Y-148550311D01*
X202524689Y-148487500D01*
X202524686Y-148487496D01*
X202475329Y-148413629D01*
X202475327Y-148413625D01*
X202441331Y-148331552D01*
X202424000Y-148244421D01*
X202424000Y-148155579D01*
X202441331Y-148068448D01*
X202475327Y-147986375D01*
X202475328Y-147986374D01*
X202475329Y-147986371D01*
X202524686Y-147912504D01*
X202524687Y-147912503D01*
X202524689Y-147912500D01*
X202587500Y-147849689D01*
X202587504Y-147849686D01*
X202661371Y-147800329D01*
X202661374Y-147800328D01*
X202661375Y-147800327D01*
X202743448Y-147766331D01*
X202830579Y-147749000D01*
X202919421Y-147749000D01*
X203006552Y-147766331D01*
X203006552Y-147766331D01*
G37*
G36*
X196656552Y-147766331D02*
X196738625Y-147800327D01*
X196738626Y-147800328D01*
X196738629Y-147800329D01*
X196812496Y-147849686D01*
X196812500Y-147849689D01*
X196875311Y-147912500D01*
X196875313Y-147912503D01*
X196875314Y-147912504D01*
X196924671Y-147986371D01*
X196924672Y-147986374D01*
X196924673Y-147986375D01*
X196958669Y-148068448D01*
X196976000Y-148155579D01*
X196976000Y-148244421D01*
X196958669Y-148331552D01*
X196924673Y-148413625D01*
X196924671Y-148413629D01*
X196875314Y-148487496D01*
X196875311Y-148487500D01*
X196812500Y-148550311D01*
X196812497Y-148550313D01*
X196812496Y-148550314D01*
X196738629Y-148599671D01*
X196738626Y-148599672D01*
X196738625Y-148599673D01*
X196656552Y-148633669D01*
X196569421Y-148651000D01*
X196480579Y-148651000D01*
X196393448Y-148633669D01*
X196311375Y-148599673D01*
X196311374Y-148599672D01*
X196311371Y-148599671D01*
X196237504Y-148550314D01*
X196237503Y-148550313D01*
X196237500Y-148550311D01*
X196174689Y-148487500D01*
X196174686Y-148487496D01*
X196125329Y-148413629D01*
X196125327Y-148413625D01*
X196091331Y-148331552D01*
X196074000Y-148244421D01*
X196074000Y-148155579D01*
X196091331Y-148068448D01*
X196125327Y-147986375D01*
X196125328Y-147986374D01*
X196125329Y-147986371D01*
X196174686Y-147912504D01*
X196174687Y-147912503D01*
X196174689Y-147912500D01*
X196237500Y-147849689D01*
X196237504Y-147849686D01*
X196311371Y-147800329D01*
X196311374Y-147800328D01*
X196311375Y-147800327D01*
X196393448Y-147766331D01*
X196480579Y-147749000D01*
X196569421Y-147749000D01*
X196656552Y-147766331D01*
X196656552Y-147766331D01*
G37*
G36*
X192631552Y-146676331D02*
X192713625Y-146710327D01*
X192713626Y-146710328D01*
X192713629Y-146710329D01*
X192787496Y-146759686D01*
X192787500Y-146759689D01*
X192850311Y-146822500D01*
X192850313Y-146822503D01*
X192850314Y-146822504D01*
X192899671Y-146896371D01*
X192899672Y-146896374D01*
X192899673Y-146896375D01*
X192933669Y-146978448D01*
X192951000Y-147065579D01*
X192951000Y-147154421D01*
X192933669Y-147241552D01*
X192899673Y-147323625D01*
X192899671Y-147323629D01*
X192850314Y-147397496D01*
X192850311Y-147397500D01*
X192787500Y-147460311D01*
X192787497Y-147460313D01*
X192787496Y-147460314D01*
X192713629Y-147509671D01*
X192713626Y-147509672D01*
X192713625Y-147509673D01*
X192631552Y-147543669D01*
X192544421Y-147561000D01*
X192455579Y-147561000D01*
X192368448Y-147543669D01*
X192286375Y-147509673D01*
X192286374Y-147509672D01*
X192286371Y-147509671D01*
X192212504Y-147460314D01*
X192212503Y-147460313D01*
X192212500Y-147460311D01*
X192149689Y-147397500D01*
X192149686Y-147397496D01*
X192100329Y-147323629D01*
X192100327Y-147323625D01*
X192066331Y-147241552D01*
X192049000Y-147154421D01*
X192049000Y-147065579D01*
X192066331Y-146978448D01*
X192100327Y-146896375D01*
X192100328Y-146896374D01*
X192100329Y-146896371D01*
X192149686Y-146822504D01*
X192149687Y-146822503D01*
X192149689Y-146822500D01*
X192212500Y-146759689D01*
X192212504Y-146759686D01*
X192286371Y-146710329D01*
X192286374Y-146710328D01*
X192286375Y-146710327D01*
X192368448Y-146676331D01*
X192455579Y-146659000D01*
X192544421Y-146659000D01*
X192631552Y-146676331D01*
X192631552Y-146676331D01*
G37*
G36*
X207031552Y-146676331D02*
X207113625Y-146710327D01*
X207113626Y-146710328D01*
X207113629Y-146710329D01*
X207187496Y-146759686D01*
X207187500Y-146759689D01*
X207250311Y-146822500D01*
X207250313Y-146822503D01*
X207250314Y-146822504D01*
X207299671Y-146896371D01*
X207299672Y-146896374D01*
X207299673Y-146896375D01*
X207333669Y-146978448D01*
X207351000Y-147065579D01*
X207351000Y-147154421D01*
X207333669Y-147241552D01*
X207299673Y-147323625D01*
X207299671Y-147323629D01*
X207250314Y-147397496D01*
X207250311Y-147397500D01*
X207187500Y-147460311D01*
X207187497Y-147460313D01*
X207187496Y-147460314D01*
X207113629Y-147509671D01*
X207113626Y-147509672D01*
X207113625Y-147509673D01*
X207031552Y-147543669D01*
X206944421Y-147561000D01*
X206855579Y-147561000D01*
X206768448Y-147543669D01*
X206686375Y-147509673D01*
X206686374Y-147509672D01*
X206686371Y-147509671D01*
X206612504Y-147460314D01*
X206612503Y-147460313D01*
X206612500Y-147460311D01*
X206549689Y-147397500D01*
X206549686Y-147397496D01*
X206500329Y-147323629D01*
X206500327Y-147323625D01*
X206466331Y-147241552D01*
X206449000Y-147154421D01*
X206449000Y-147065579D01*
X206466331Y-146978448D01*
X206500327Y-146896375D01*
X206500328Y-146896374D01*
X206500329Y-146896371D01*
X206549686Y-146822504D01*
X206549687Y-146822503D01*
X206549689Y-146822500D01*
X206612500Y-146759689D01*
X206612504Y-146759686D01*
X206686371Y-146710329D01*
X206686374Y-146710328D01*
X206686375Y-146710327D01*
X206768448Y-146676331D01*
X206855579Y-146659000D01*
X206944421Y-146659000D01*
X207031552Y-146676331D01*
X207031552Y-146676331D01*
G37*
G36*
X197536000Y-147001000D02*
X196784000Y-147001000D01*
X196784000Y-144899000D01*
X197536000Y-144899000D01*
X197536000Y-147001000D01*
X197536000Y-147001000D01*
G37*
G36*
X198806000Y-147001000D02*
X198054000Y-147001000D01*
X198054000Y-144899000D01*
X198806000Y-144899000D01*
X198806000Y-147001000D01*
X198806000Y-147001000D01*
G37*
G36*
X196266000Y-147001000D02*
X195514000Y-147001000D01*
X195514000Y-144899000D01*
X196266000Y-144899000D01*
X196266000Y-147001000D01*
X196266000Y-147001000D01*
G37*
G36*
X200076000Y-147001000D02*
X199324000Y-147001000D01*
X199324000Y-144899000D01*
X200076000Y-144899000D01*
X200076000Y-147001000D01*
X200076000Y-147001000D01*
G37*
G36*
X201346000Y-147001000D02*
X200594000Y-147001000D01*
X200594000Y-144899000D01*
X201346000Y-144899000D01*
X201346000Y-147001000D01*
X201346000Y-147001000D01*
G37*
G36*
X202616000Y-147001000D02*
X201864000Y-147001000D01*
X201864000Y-144899000D01*
X202616000Y-144899000D01*
X202616000Y-147001000D01*
X202616000Y-147001000D01*
G37*
G36*
X203886000Y-147001000D02*
X203134000Y-147001000D01*
X203134000Y-144899000D01*
X203886000Y-144899000D01*
X203886000Y-147001000D01*
X203886000Y-147001000D01*
G37*
M02*
