G04 #@! TF.GenerationSoftware,KiCad,Pcbnew,(5.0.1)-4*
G04 #@! TF.CreationDate,2018-12-02T18:21:00+01:00*
G04 #@! TF.ProjectId,XD-M11C-01-12,58442D4D3131432D30312D31322E6B69,rev?*
G04 #@! TF.SameCoordinates,Original*
G04 #@! TF.FileFunction,Soldermask,Bot*
G04 #@! TF.FilePolarity,Negative*
%FSLAX46Y46*%
G04 Gerber Fmt 4.6, Leading zero omitted, Abs format (unit mm)*
G04 Created by KiCad (PCBNEW (5.0.1)-4) date 02.12.2018 18:21:00*
%MOMM*%
%LPD*%
G01*
G04 APERTURE LIST*
%ADD10C,0.100000*%
G04 APERTURE END LIST*
D10*
G36*
X205851000Y-151451000D02*
X204749000Y-151451000D01*
X204749000Y-147849000D01*
X205851000Y-147849000D01*
X205851000Y-151451000D01*
X205851000Y-151451000D01*
G37*
G36*
X207451000Y-151451000D02*
X206349000Y-151451000D01*
X206349000Y-147849000D01*
X207451000Y-147849000D01*
X207451000Y-151451000D01*
X207451000Y-151451000D01*
G37*
G36*
X196656552Y-147766331D02*
X196738628Y-147800328D01*
X196779941Y-147827933D01*
X196801552Y-147839485D01*
X196825001Y-147846598D01*
X196849388Y-147849000D01*
X197851000Y-147849000D01*
X197851000Y-151451000D01*
X196749000Y-151451000D01*
X196749000Y-148767592D01*
X196746598Y-148743206D01*
X196739485Y-148719757D01*
X196727934Y-148698146D01*
X196712388Y-148679204D01*
X196693446Y-148663658D01*
X196671835Y-148652107D01*
X196648386Y-148644994D01*
X196624000Y-148642592D01*
X196599614Y-148644994D01*
X196569420Y-148651000D01*
X196480579Y-148651000D01*
X196400386Y-148635049D01*
X196375999Y-148632647D01*
X196351613Y-148635049D01*
X196328164Y-148642162D01*
X196306553Y-148653714D01*
X196287611Y-148669259D01*
X196272066Y-148688201D01*
X196260515Y-148709812D01*
X196253402Y-148733261D01*
X196251000Y-148757647D01*
X196251000Y-151451000D01*
X195149000Y-151451000D01*
X195149000Y-147849000D01*
X196200612Y-147849000D01*
X196224998Y-147846598D01*
X196248447Y-147839485D01*
X196270059Y-147827933D01*
X196311372Y-147800328D01*
X196393448Y-147766331D01*
X196480579Y-147749000D01*
X196569421Y-147749000D01*
X196656552Y-147766331D01*
X196656552Y-147766331D01*
G37*
G36*
X203006552Y-147766331D02*
X203088628Y-147800328D01*
X203129941Y-147827933D01*
X203151552Y-147839485D01*
X203175001Y-147846598D01*
X203199388Y-147849000D01*
X204251000Y-147849000D01*
X204251000Y-151451000D01*
X203149000Y-151451000D01*
X203149000Y-148757647D01*
X203146598Y-148733261D01*
X203139485Y-148709812D01*
X203127934Y-148688201D01*
X203112388Y-148669259D01*
X203093446Y-148653713D01*
X203071835Y-148642162D01*
X203048386Y-148635049D01*
X203024000Y-148632647D01*
X202999614Y-148635049D01*
X202919421Y-148651000D01*
X202830580Y-148651000D01*
X202800386Y-148644994D01*
X202776000Y-148642592D01*
X202751614Y-148644994D01*
X202728165Y-148652107D01*
X202706554Y-148663658D01*
X202687612Y-148679203D01*
X202672067Y-148698145D01*
X202660515Y-148719756D01*
X202653402Y-148743205D01*
X202651000Y-148767592D01*
X202651000Y-151451000D01*
X201549000Y-151451000D01*
X201549000Y-147849000D01*
X202550612Y-147849000D01*
X202574998Y-147846598D01*
X202598447Y-147839485D01*
X202620059Y-147827933D01*
X202661372Y-147800328D01*
X202743448Y-147766331D01*
X202830579Y-147749000D01*
X202919421Y-147749000D01*
X203006552Y-147766331D01*
X203006552Y-147766331D01*
G37*
G36*
X201051000Y-151451000D02*
X199949000Y-151451000D01*
X199949000Y-147849000D01*
X201051000Y-147849000D01*
X201051000Y-151451000D01*
X201051000Y-151451000D01*
G37*
G36*
X199451000Y-151451000D02*
X198349000Y-151451000D01*
X198349000Y-147849000D01*
X199451000Y-147849000D01*
X199451000Y-151451000D01*
X199451000Y-151451000D01*
G37*
G36*
X194651000Y-151451000D02*
X193549000Y-151451000D01*
X193549000Y-147849000D01*
X194651000Y-147849000D01*
X194651000Y-151451000D01*
X194651000Y-151451000D01*
G37*
G36*
X193051000Y-151451000D02*
X191949000Y-151451000D01*
X191949000Y-147849000D01*
X193051000Y-147849000D01*
X193051000Y-151451000D01*
X193051000Y-151451000D01*
G37*
G36*
X192631552Y-146676331D02*
X192713625Y-146710327D01*
X192713626Y-146710328D01*
X192713629Y-146710329D01*
X192787496Y-146759686D01*
X192787500Y-146759689D01*
X192850311Y-146822500D01*
X192850313Y-146822503D01*
X192850314Y-146822504D01*
X192899671Y-146896371D01*
X192899672Y-146896374D01*
X192899673Y-146896375D01*
X192933669Y-146978448D01*
X192951000Y-147065579D01*
X192951000Y-147154421D01*
X192933669Y-147241552D01*
X192899673Y-147323625D01*
X192899671Y-147323629D01*
X192850314Y-147397496D01*
X192850311Y-147397500D01*
X192787500Y-147460311D01*
X192787497Y-147460313D01*
X192787496Y-147460314D01*
X192713629Y-147509671D01*
X192713626Y-147509672D01*
X192713625Y-147509673D01*
X192631552Y-147543669D01*
X192544421Y-147561000D01*
X192455579Y-147561000D01*
X192368448Y-147543669D01*
X192286375Y-147509673D01*
X192286374Y-147509672D01*
X192286371Y-147509671D01*
X192212504Y-147460314D01*
X192212503Y-147460313D01*
X192212500Y-147460311D01*
X192149689Y-147397500D01*
X192149686Y-147397496D01*
X192100329Y-147323629D01*
X192100327Y-147323625D01*
X192066331Y-147241552D01*
X192049000Y-147154421D01*
X192049000Y-147065579D01*
X192066331Y-146978448D01*
X192100327Y-146896375D01*
X192100328Y-146896374D01*
X192100329Y-146896371D01*
X192149686Y-146822504D01*
X192149687Y-146822503D01*
X192149689Y-146822500D01*
X192212500Y-146759689D01*
X192212504Y-146759686D01*
X192286371Y-146710329D01*
X192286374Y-146710328D01*
X192286375Y-146710327D01*
X192368448Y-146676331D01*
X192455579Y-146659000D01*
X192544421Y-146659000D01*
X192631552Y-146676331D01*
X192631552Y-146676331D01*
G37*
G36*
X207031552Y-146676331D02*
X207113625Y-146710327D01*
X207113626Y-146710328D01*
X207113629Y-146710329D01*
X207187496Y-146759686D01*
X207187500Y-146759689D01*
X207250311Y-146822500D01*
X207250313Y-146822503D01*
X207250314Y-146822504D01*
X207299671Y-146896371D01*
X207299672Y-146896374D01*
X207299673Y-146896375D01*
X207333669Y-146978448D01*
X207351000Y-147065579D01*
X207351000Y-147154421D01*
X207333669Y-147241552D01*
X207299673Y-147323625D01*
X207299671Y-147323629D01*
X207250314Y-147397496D01*
X207250311Y-147397500D01*
X207187500Y-147460311D01*
X207187497Y-147460313D01*
X207187496Y-147460314D01*
X207113629Y-147509671D01*
X207113626Y-147509672D01*
X207113625Y-147509673D01*
X207031552Y-147543669D01*
X206944421Y-147561000D01*
X206855579Y-147561000D01*
X206768448Y-147543669D01*
X206686375Y-147509673D01*
X206686374Y-147509672D01*
X206686371Y-147509671D01*
X206612504Y-147460314D01*
X206612503Y-147460313D01*
X206612500Y-147460311D01*
X206549689Y-147397500D01*
X206549686Y-147397496D01*
X206500329Y-147323629D01*
X206500327Y-147323625D01*
X206466331Y-147241552D01*
X206449000Y-147154421D01*
X206449000Y-147065579D01*
X206466331Y-146978448D01*
X206500327Y-146896375D01*
X206500328Y-146896374D01*
X206500329Y-146896371D01*
X206549686Y-146822504D01*
X206549687Y-146822503D01*
X206549689Y-146822500D01*
X206612500Y-146759689D01*
X206612504Y-146759686D01*
X206686371Y-146710329D01*
X206686374Y-146710328D01*
X206686375Y-146710327D01*
X206768448Y-146676331D01*
X206855579Y-146659000D01*
X206944421Y-146659000D01*
X207031552Y-146676331D01*
X207031552Y-146676331D01*
G37*
M02*
