G04 #@! TF.GenerationSoftware,KiCad,Pcbnew,(5.0.1)-4*
G04 #@! TF.CreationDate,2018-12-02T18:21:00+01:00*
G04 #@! TF.ProjectId,XD-M11C-01-12,58442D4D3131432D30312D31322E6B69,rev?*
G04 #@! TF.SameCoordinates,Original*
G04 #@! TF.FileFunction,Copper,L1,Top,Signal*
G04 #@! TF.FilePolarity,Positive*
%FSLAX46Y46*%
G04 Gerber Fmt 4.6, Leading zero omitted, Abs format (unit mm)*
G04 Created by KiCad (PCBNEW (5.0.1)-4) date 02.12.2018 18:21:00*
%MOMM*%
%LPD*%
G01*
G04 APERTURE LIST*
G04 #@! TA.AperFunction,SMDPad,CuDef*
%ADD10R,0.650000X2.000000*%
G04 #@! TD*
G04 #@! TA.AperFunction,ViaPad*
%ADD11C,0.600000*%
G04 #@! TD*
G04 #@! TA.AperFunction,Conductor*
%ADD12C,0.500000*%
G04 #@! TD*
G04 #@! TA.AperFunction,Conductor*
%ADD13C,0.250000*%
G04 #@! TD*
G04 #@! TA.AperFunction,Conductor*
%ADD14C,0.177800*%
G04 #@! TD*
G04 #@! TA.AperFunction,Conductor*
%ADD15C,0.254000*%
G04 #@! TD*
G04 APERTURE END LIST*
D10*
G04 #@! TO.P,J2,13*
G04 #@! TO.N,VCC*
X195890000Y-145950000D03*
G04 #@! TO.P,J2,12*
X197160000Y-145950000D03*
G04 #@! TO.P,J2,11*
G04 #@! TO.N,/I2_N*
X198430000Y-145950000D03*
G04 #@! TO.P,J2,10*
G04 #@! TO.N,/I2_P*
X199700000Y-145950000D03*
G04 #@! TO.P,J2,9*
G04 #@! TO.N,/I1_P*
X200970000Y-145950000D03*
G04 #@! TO.P,J2,8*
G04 #@! TO.N,GND*
X202240000Y-145950000D03*
G04 #@! TO.P,J2,7*
X203510000Y-145950000D03*
G04 #@! TO.P,J2,6*
G04 #@! TO.N,VCC*
X197160000Y-150450000D03*
G04 #@! TO.P,J2,5*
G04 #@! TO.N,N/C*
X198430000Y-150450000D03*
G04 #@! TO.P,J2,4*
X199700000Y-150450000D03*
G04 #@! TO.P,J2,3*
G04 #@! TO.N,/I1_N*
X200970000Y-150450000D03*
G04 #@! TO.P,J2,2*
G04 #@! TO.N,GND*
X202240000Y-150450000D03*
G04 #@! TO.P,J2,1*
X203510000Y-150450000D03*
G04 #@! TD*
D11*
G04 #@! TO.N,GND*
X191008000Y-144526000D03*
X208407000Y-144526000D03*
X208407000Y-151892000D03*
X191008000Y-151892000D03*
X204851000Y-144526000D03*
X204851000Y-145288000D03*
X204851000Y-146050000D03*
X204851000Y-146812000D03*
X207645000Y-144526000D03*
X208407000Y-145288000D03*
X208407000Y-151130000D03*
X207645000Y-151892000D03*
X191770000Y-144526000D03*
X191008000Y-145288000D03*
X191008000Y-151130000D03*
X191770000Y-151892000D03*
X205613000Y-144526000D03*
X205613000Y-146812000D03*
X208407000Y-148209000D03*
X191008000Y-148209000D03*
X191008000Y-147447000D03*
X191008000Y-148971000D03*
X208407000Y-147447000D03*
X208407000Y-148971000D03*
X205613000Y-145288000D03*
X205613000Y-146050000D03*
G04 #@! TO.N,VCC*
X194056000Y-145161000D03*
X194691000Y-145161000D03*
X194691000Y-145796000D03*
X194056000Y-145796000D03*
X194056000Y-146431000D03*
X194691000Y-146431000D03*
X194691000Y-147066000D03*
X194056000Y-147066000D03*
G04 #@! TO.N,/I2_N*
X195707000Y-147447000D03*
G04 #@! TO.N,/I1_N*
X203500000Y-148971000D03*
G04 #@! TO.N,/I1_P*
X202100000Y-147447000D03*
G04 #@! TO.N,/I2_P*
X197485000Y-148209000D03*
G04 #@! TD*
D12*
G04 #@! TO.N,GND*
X192421000Y-144399000D02*
X202803000Y-144399000D01*
X192421000Y-152010000D02*
X202803000Y-152010000D01*
D13*
G04 #@! TO.N,/I2_N*
X198430000Y-145950000D02*
X198430000Y-146625000D01*
D14*
X198430000Y-147127800D02*
X198110800Y-147447000D01*
X198430000Y-145950000D02*
X198430000Y-147127800D01*
X198110800Y-147447000D02*
X195707000Y-147447000D01*
X195707000Y-147447000D02*
X195707000Y-147447000D01*
G04 #@! TO.N,/I1_N*
X203075736Y-148971000D02*
X203500000Y-148971000D01*
X201774000Y-148971000D02*
X203075736Y-148971000D01*
X200970000Y-149775000D02*
X201774000Y-148971000D01*
X200970000Y-150450000D02*
X200970000Y-149775000D01*
G04 #@! TO.N,/I1_P*
X201675736Y-147447000D02*
X202100000Y-147447000D01*
X201289200Y-147447000D02*
X201675736Y-147447000D01*
X200970000Y-147127800D02*
X201289200Y-147447000D01*
X200970000Y-145950000D02*
X200970000Y-147127800D01*
G04 #@! TO.N,/I2_P*
X199700000Y-147127800D02*
X198618800Y-148209000D01*
X199700000Y-145950000D02*
X199700000Y-147127800D01*
X198618800Y-148209000D02*
X197485000Y-148209000D01*
X197485000Y-148209000D02*
X197485000Y-148209000D01*
G04 #@! TD*
D15*
G04 #@! TO.N,VCC*
G36*
X194930000Y-145418250D02*
X195088750Y-145577000D01*
X195727500Y-145577000D01*
X195727500Y-145557000D01*
X196052500Y-145557000D01*
X196052500Y-145577000D01*
X196997500Y-145577000D01*
X196997500Y-145557000D01*
X197322500Y-145557000D01*
X197322500Y-145577000D01*
X197358000Y-145577000D01*
X197358000Y-146323000D01*
X197322500Y-146323000D01*
X197322500Y-146343000D01*
X196997500Y-146343000D01*
X196997500Y-146323000D01*
X196052500Y-146323000D01*
X196052500Y-146343000D01*
X195727500Y-146343000D01*
X195727500Y-146323000D01*
X195088750Y-146323000D01*
X194930000Y-146481750D01*
X194930000Y-147076310D01*
X195026673Y-147309699D01*
X195026737Y-147309763D01*
X195026000Y-147311541D01*
X195026000Y-147582459D01*
X195129676Y-147832756D01*
X195321244Y-148024324D01*
X195571541Y-148128000D01*
X195744000Y-148128000D01*
X195744000Y-148355351D01*
X195862900Y-148642401D01*
X196082599Y-148862100D01*
X196215000Y-148916942D01*
X196215000Y-149287477D01*
X196200000Y-149323690D01*
X196200000Y-149918250D01*
X196358750Y-150077000D01*
X196997500Y-150077000D01*
X196997500Y-150057000D01*
X197322500Y-150057000D01*
X197322500Y-150077000D01*
X197358000Y-150077000D01*
X197358000Y-150823000D01*
X197322500Y-150823000D01*
X197322500Y-150843000D01*
X196997500Y-150843000D01*
X196997500Y-150823000D01*
X196358750Y-150823000D01*
X196200000Y-150981750D01*
X196200000Y-151379000D01*
X193929000Y-151379000D01*
X193929000Y-145034000D01*
X194930000Y-145034000D01*
X194930000Y-145418250D01*
X194930000Y-145418250D01*
G37*
X194930000Y-145418250D02*
X195088750Y-145577000D01*
X195727500Y-145577000D01*
X195727500Y-145557000D01*
X196052500Y-145557000D01*
X196052500Y-145577000D01*
X196997500Y-145577000D01*
X196997500Y-145557000D01*
X197322500Y-145557000D01*
X197322500Y-145577000D01*
X197358000Y-145577000D01*
X197358000Y-146323000D01*
X197322500Y-146323000D01*
X197322500Y-146343000D01*
X196997500Y-146343000D01*
X196997500Y-146323000D01*
X196052500Y-146323000D01*
X196052500Y-146343000D01*
X195727500Y-146343000D01*
X195727500Y-146323000D01*
X195088750Y-146323000D01*
X194930000Y-146481750D01*
X194930000Y-147076310D01*
X195026673Y-147309699D01*
X195026737Y-147309763D01*
X195026000Y-147311541D01*
X195026000Y-147582459D01*
X195129676Y-147832756D01*
X195321244Y-148024324D01*
X195571541Y-148128000D01*
X195744000Y-148128000D01*
X195744000Y-148355351D01*
X195862900Y-148642401D01*
X196082599Y-148862100D01*
X196215000Y-148916942D01*
X196215000Y-149287477D01*
X196200000Y-149323690D01*
X196200000Y-149918250D01*
X196358750Y-150077000D01*
X196997500Y-150077000D01*
X196997500Y-150057000D01*
X197322500Y-150057000D01*
X197322500Y-150077000D01*
X197358000Y-150077000D01*
X197358000Y-150823000D01*
X197322500Y-150823000D01*
X197322500Y-150843000D01*
X196997500Y-150843000D01*
X196997500Y-150823000D01*
X196358750Y-150823000D01*
X196200000Y-150981750D01*
X196200000Y-151379000D01*
X193929000Y-151379000D01*
X193929000Y-145034000D01*
X194930000Y-145034000D01*
X194930000Y-145418250D01*
G04 #@! TO.N,GND*
G36*
X208624001Y-152124000D02*
X201803000Y-152124000D01*
X201803000Y-152085000D01*
X201918750Y-152085000D01*
X202077500Y-151926250D01*
X202077500Y-150823000D01*
X202402500Y-150823000D01*
X202402500Y-151926250D01*
X202561250Y-152085000D01*
X202691309Y-152085000D01*
X202875000Y-152008913D01*
X203058691Y-152085000D01*
X203188750Y-152085000D01*
X203347500Y-151926250D01*
X203347500Y-150823000D01*
X203672500Y-150823000D01*
X203672500Y-151926250D01*
X203831250Y-152085000D01*
X203961309Y-152085000D01*
X204194698Y-151988327D01*
X204373327Y-151809699D01*
X204470000Y-151576310D01*
X204470000Y-150981750D01*
X204311250Y-150823000D01*
X203672500Y-150823000D01*
X203347500Y-150823000D01*
X202402500Y-150823000D01*
X202077500Y-150823000D01*
X201915000Y-150823000D01*
X201915000Y-150077000D01*
X202077500Y-150077000D01*
X202077500Y-150057000D01*
X202402500Y-150057000D01*
X202402500Y-150077000D01*
X203347500Y-150077000D01*
X203347500Y-150057000D01*
X203672500Y-150057000D01*
X203672500Y-150077000D01*
X204311250Y-150077000D01*
X204470000Y-149918250D01*
X204470000Y-149323690D01*
X204373327Y-149090301D01*
X204194698Y-148911673D01*
X204104800Y-148874436D01*
X204104800Y-148850698D01*
X204012725Y-148628408D01*
X203842592Y-148458275D01*
X203620302Y-148366200D01*
X203569028Y-148366200D01*
X203579800Y-148340193D01*
X203579800Y-148059807D01*
X203472501Y-147800763D01*
X203274237Y-147602499D01*
X203201415Y-147572335D01*
X203347500Y-147426250D01*
X203347500Y-146323000D01*
X203672500Y-146323000D01*
X203672500Y-147426250D01*
X203831250Y-147585000D01*
X203961309Y-147585000D01*
X204194698Y-147488327D01*
X204373327Y-147309699D01*
X204470000Y-147076310D01*
X204470000Y-146969807D01*
X206195200Y-146969807D01*
X206195200Y-147250193D01*
X206302499Y-147509237D01*
X206500763Y-147707501D01*
X206759807Y-147814800D01*
X207040193Y-147814800D01*
X207299237Y-147707501D01*
X207497501Y-147509237D01*
X207604800Y-147250193D01*
X207604800Y-146969807D01*
X207497501Y-146710763D01*
X207299237Y-146512499D01*
X207040193Y-146405200D01*
X206759807Y-146405200D01*
X206500763Y-146512499D01*
X206302499Y-146710763D01*
X206195200Y-146969807D01*
X204470000Y-146969807D01*
X204470000Y-146481750D01*
X204311250Y-146323000D01*
X203672500Y-146323000D01*
X203347500Y-146323000D01*
X202402500Y-146323000D01*
X202402500Y-146343000D01*
X202077500Y-146343000D01*
X202077500Y-146323000D01*
X201915000Y-146323000D01*
X201915000Y-145577000D01*
X202077500Y-145577000D01*
X202077500Y-144473750D01*
X202402500Y-144473750D01*
X202402500Y-145577000D01*
X203347500Y-145577000D01*
X203347500Y-144473750D01*
X203672500Y-144473750D01*
X203672500Y-145577000D01*
X204311250Y-145577000D01*
X204470000Y-145418250D01*
X204470000Y-144823690D01*
X204373327Y-144590301D01*
X204194698Y-144411673D01*
X203961309Y-144315000D01*
X203831250Y-144315000D01*
X203672500Y-144473750D01*
X203347500Y-144473750D01*
X203188750Y-144315000D01*
X203058691Y-144315000D01*
X202875000Y-144391087D01*
X202691309Y-144315000D01*
X202561250Y-144315000D01*
X202402500Y-144473750D01*
X202077500Y-144473750D01*
X201918750Y-144315000D01*
X201803000Y-144315000D01*
X201803000Y-144276000D01*
X208624000Y-144276000D01*
X208624001Y-152124000D01*
X208624001Y-152124000D01*
G37*
X208624001Y-152124000D02*
X201803000Y-152124000D01*
X201803000Y-152085000D01*
X201918750Y-152085000D01*
X202077500Y-151926250D01*
X202077500Y-150823000D01*
X202402500Y-150823000D01*
X202402500Y-151926250D01*
X202561250Y-152085000D01*
X202691309Y-152085000D01*
X202875000Y-152008913D01*
X203058691Y-152085000D01*
X203188750Y-152085000D01*
X203347500Y-151926250D01*
X203347500Y-150823000D01*
X203672500Y-150823000D01*
X203672500Y-151926250D01*
X203831250Y-152085000D01*
X203961309Y-152085000D01*
X204194698Y-151988327D01*
X204373327Y-151809699D01*
X204470000Y-151576310D01*
X204470000Y-150981750D01*
X204311250Y-150823000D01*
X203672500Y-150823000D01*
X203347500Y-150823000D01*
X202402500Y-150823000D01*
X202077500Y-150823000D01*
X201915000Y-150823000D01*
X201915000Y-150077000D01*
X202077500Y-150077000D01*
X202077500Y-150057000D01*
X202402500Y-150057000D01*
X202402500Y-150077000D01*
X203347500Y-150077000D01*
X203347500Y-150057000D01*
X203672500Y-150057000D01*
X203672500Y-150077000D01*
X204311250Y-150077000D01*
X204470000Y-149918250D01*
X204470000Y-149323690D01*
X204373327Y-149090301D01*
X204194698Y-148911673D01*
X204104800Y-148874436D01*
X204104800Y-148850698D01*
X204012725Y-148628408D01*
X203842592Y-148458275D01*
X203620302Y-148366200D01*
X203569028Y-148366200D01*
X203579800Y-148340193D01*
X203579800Y-148059807D01*
X203472501Y-147800763D01*
X203274237Y-147602499D01*
X203201415Y-147572335D01*
X203347500Y-147426250D01*
X203347500Y-146323000D01*
X203672500Y-146323000D01*
X203672500Y-147426250D01*
X203831250Y-147585000D01*
X203961309Y-147585000D01*
X204194698Y-147488327D01*
X204373327Y-147309699D01*
X204470000Y-147076310D01*
X204470000Y-146969807D01*
X206195200Y-146969807D01*
X206195200Y-147250193D01*
X206302499Y-147509237D01*
X206500763Y-147707501D01*
X206759807Y-147814800D01*
X207040193Y-147814800D01*
X207299237Y-147707501D01*
X207497501Y-147509237D01*
X207604800Y-147250193D01*
X207604800Y-146969807D01*
X207497501Y-146710763D01*
X207299237Y-146512499D01*
X207040193Y-146405200D01*
X206759807Y-146405200D01*
X206500763Y-146512499D01*
X206302499Y-146710763D01*
X206195200Y-146969807D01*
X204470000Y-146969807D01*
X204470000Y-146481750D01*
X204311250Y-146323000D01*
X203672500Y-146323000D01*
X203347500Y-146323000D01*
X202402500Y-146323000D01*
X202402500Y-146343000D01*
X202077500Y-146343000D01*
X202077500Y-146323000D01*
X201915000Y-146323000D01*
X201915000Y-145577000D01*
X202077500Y-145577000D01*
X202077500Y-144473750D01*
X202402500Y-144473750D01*
X202402500Y-145577000D01*
X203347500Y-145577000D01*
X203347500Y-144473750D01*
X203672500Y-144473750D01*
X203672500Y-145577000D01*
X204311250Y-145577000D01*
X204470000Y-145418250D01*
X204470000Y-144823690D01*
X204373327Y-144590301D01*
X204194698Y-144411673D01*
X203961309Y-144315000D01*
X203831250Y-144315000D01*
X203672500Y-144473750D01*
X203347500Y-144473750D01*
X203188750Y-144315000D01*
X203058691Y-144315000D01*
X202875000Y-144391087D01*
X202691309Y-144315000D01*
X202561250Y-144315000D01*
X202402500Y-144473750D01*
X202077500Y-144473750D01*
X201918750Y-144315000D01*
X201803000Y-144315000D01*
X201803000Y-144276000D01*
X208624000Y-144276000D01*
X208624001Y-152124000D01*
G36*
X193294000Y-152124000D02*
X190776000Y-152124000D01*
X190776000Y-146969807D01*
X191795200Y-146969807D01*
X191795200Y-147250193D01*
X191902499Y-147509237D01*
X192100763Y-147707501D01*
X192359807Y-147814800D01*
X192640193Y-147814800D01*
X192899237Y-147707501D01*
X193097501Y-147509237D01*
X193204800Y-147250193D01*
X193204800Y-146969807D01*
X193097501Y-146710763D01*
X192899237Y-146512499D01*
X192640193Y-146405200D01*
X192359807Y-146405200D01*
X192100763Y-146512499D01*
X191902499Y-146710763D01*
X191795200Y-146969807D01*
X190776000Y-146969807D01*
X190776000Y-144276000D01*
X193294000Y-144276000D01*
X193294000Y-152124000D01*
X193294000Y-152124000D01*
G37*
X193294000Y-152124000D02*
X190776000Y-152124000D01*
X190776000Y-146969807D01*
X191795200Y-146969807D01*
X191795200Y-147250193D01*
X191902499Y-147509237D01*
X192100763Y-147707501D01*
X192359807Y-147814800D01*
X192640193Y-147814800D01*
X192899237Y-147707501D01*
X193097501Y-147509237D01*
X193204800Y-147250193D01*
X193204800Y-146969807D01*
X193097501Y-146710763D01*
X192899237Y-146512499D01*
X192640193Y-146405200D01*
X192359807Y-146405200D01*
X192100763Y-146512499D01*
X191902499Y-146710763D01*
X191795200Y-146969807D01*
X190776000Y-146969807D01*
X190776000Y-144276000D01*
X193294000Y-144276000D01*
X193294000Y-152124000D01*
G04 #@! TD*
M02*
