M48
;DRILL file {KiCad (5.0.1)-4} date 02.12.2018 18:21:06
;FORMAT={-:-/ absolute / metric / decimal}
FMAT,2
METRIC,TZ
T1C0.300
%
G90
G05
M71
T1
X191.008Y-144.526
X191.008Y-145.288
X191.008Y-147.447
X191.008Y-148.209
X191.008Y-148.971
X191.008Y-151.13
X191.008Y-151.892
X191.77Y-144.526
X191.77Y-151.892
X194.056Y-145.161
X194.056Y-145.796
X194.056Y-146.431
X194.056Y-147.066
X194.691Y-145.161
X194.691Y-145.796
X194.691Y-146.431
X194.691Y-147.066
X195.707Y-147.447
X197.485Y-148.209
X202.1Y-147.447
X203.5Y-148.971
X204.851Y-144.526
X204.851Y-145.288
X204.851Y-146.05
X204.851Y-146.812
X205.613Y-144.526
X205.613Y-145.288
X205.613Y-146.05
X205.613Y-146.812
X207.645Y-144.526
X207.645Y-151.892
X208.407Y-144.526
X208.407Y-145.288
X208.407Y-147.447
X208.407Y-148.209
X208.407Y-148.971
X208.407Y-151.13
X208.407Y-151.892
T0
M30
